<svg width="81" height="30" viewBox="0 0 81 30" fill="none" xmlns="http://www.w3.org/2000/svg">
<path fillRule="evenodd" clip-rule="evenodd" d="M3.78616 29.4192C3.12852 29.2227 1.80829 28.7024 0.974858 27.2865C0.701349 26.8219 0.426666 26.2373 0.264534 25.7797L0.262726 25.7746C0.231343 25.6861 0.120602 25.3739 0.0562117 24.9892C0.0560982 24.9885 0.0558064 24.987 0.0553574 24.9846C0.0418706 24.9145 -0.113435 24.1073 0.164552 23.1667C0.333793 22.5941 0.864703 21.3334 2.33901 20.6581C3.78504 19.9959 5.05894 20.3959 5.56618 20.6098C6.42901 20.9736 6.94305 21.5643 6.99731 21.6267C6.99934 21.629 7.00073 21.6306 7.00146 21.6314C7.02405 21.6564 7.04573 21.6809 7.06649 21.7049C7.58546 21.6764 8.2529 21.6206 9.09859 21.5314C10.6928 21.3634 12.5903 21.1173 14.8892 20.8192C17.0152 20.5435 19.4844 20.2232 22.3742 19.8791C34.1543 18.4763 51.5704 16.8597 74.7773 17.1721C76.0079 17.1844 76.8968 17.7232 77.2512 17.9596C77.7171 18.2702 78.0936 18.6305 78.3836 18.9587C78.9637 19.6155 79.4848 20.4709 79.8046 21.458C80.1299 22.4618 80.2944 23.762 79.9084 25.159C79.5083 26.6071 78.6092 27.8189 77.3804 28.7154C75.5957 30.0174 73.0935 29.6261 71.7915 27.8414C71.1986 27.0287 70.9568 26.0672 71.0378 25.138C50.0849 25.0352 34.2346 26.5232 23.3202 27.823C20.6659 28.1391 18.2252 28.4546 16.0661 28.7337C13.633 29.0483 11.5576 29.3166 9.93701 29.4874C8.39201 29.6502 6.95841 29.7612 5.80315 29.719C5.23616 29.6984 4.51089 29.6357 3.78616 29.4192ZM0.754443 26.5932C0.754441 26.5932 0.755666 26.5951 0.758175 26.5992C0.755709 26.5953 0.754445 26.5933 0.754443 26.5932Z" fill="#1AC04B"/>
<path d="M9.28927 19.7282C9.10261 19.7282 8.93461 19.6628 8.78527 19.5322C8.65461 19.3828 8.58927 19.2148 8.58927 19.0282V4.52417H3.60527C3.41861 4.52417 3.25061 4.45884 3.10127 4.32817C2.97061 4.17884 2.90527 4.01084 2.90527 3.82417V0.828175C2.90527 0.622841 2.97061 0.454841 3.10127 0.324175C3.25061 0.193508 3.41861 0.128174 3.60527 0.128174H18.6693C18.8746 0.128174 19.0426 0.193508 19.1733 0.324175C19.3039 0.454841 19.3693 0.622841 19.3693 0.828175V3.82417C19.3693 4.02951 19.3039 4.19751 19.1733 4.32817C19.0426 4.45884 18.8746 4.52417 18.6693 4.52417H13.6853V19.0282C13.6853 19.2148 13.6199 19.3828 13.4893 19.5322C13.3586 19.6628 13.1906 19.7282 12.9853 19.7282H9.28927Z" fill="#1E1E1E"/>
<path d="M18.7979 19.7282C18.6486 19.7282 18.5086 19.6722 18.3779 19.5602C18.2659 19.4295 18.2099 19.2895 18.2099 19.1402C18.2099 19.0282 18.2192 18.9442 18.2379 18.8882L24.8179 0.912173C24.8739 0.688174 24.9952 0.501508 25.1819 0.352174C25.3686 0.202841 25.6112 0.128174 25.9099 0.128174H30.0539C30.3526 0.128174 30.5952 0.202841 30.7819 0.352174C30.9686 0.501508 31.0899 0.688174 31.1459 0.912173L37.6979 18.8882L37.7539 19.1402C37.7539 19.2895 37.6886 19.4295 37.5579 19.5602C37.4459 19.6722 37.3059 19.7282 37.1379 19.7282H33.6939C33.2459 19.7282 32.9472 19.5322 32.7979 19.1402L31.7059 16.2842H24.2299L23.1659 19.1402C23.0166 19.5322 22.7086 19.7282 22.2419 19.7282H18.7979ZM30.5859 12.2522L27.9819 4.86018L25.3779 12.2522H30.5859Z" fill="#1E1E1E"/>
<path d="M40.6609 19.7282C40.4742 19.7282 40.3062 19.6628 40.1569 19.5322C40.0262 19.3828 39.9609 19.2148 39.9609 19.0282V0.828175C39.9609 0.622841 40.0262 0.454841 40.1569 0.324175C40.3062 0.193508 40.4742 0.128174 40.6609 0.128174H44.1889C44.3942 0.128174 44.5622 0.193508 44.6929 0.324175C44.8235 0.454841 44.8889 0.622841 44.8889 0.828175V7.04418L50.0689 0.660173C50.2929 0.305507 50.6569 0.128174 51.1609 0.128174H55.1929C55.3609 0.128174 55.5009 0.193508 55.6129 0.324175C55.7249 0.436175 55.7809 0.566841 55.7809 0.716175C55.7809 0.846841 55.7529 0.95884 55.6969 1.05217L48.9769 9.50817L56.2009 18.8042C56.2755 18.8788 56.3129 18.9908 56.3129 19.1402C56.3129 19.2895 56.2569 19.4295 56.1449 19.5602C56.0329 19.6722 55.8929 19.7282 55.7249 19.7282H51.5529C51.1049 19.7282 50.7315 19.5415 50.4329 19.1682L44.8889 12.2522V19.0282C44.8889 19.2335 44.8235 19.4015 44.6929 19.5322C44.5622 19.6628 44.3942 19.7282 44.1889 19.7282H40.6609Z" fill="#1E1E1E"/>
<path d="M59.2273 19.7282C59.0406 19.7282 58.8726 19.6628 58.7233 19.5322C58.5926 19.3828 58.5273 19.2148 58.5273 19.0282V0.828175C58.5273 0.622841 58.5926 0.454841 58.7233 0.324175C58.8726 0.193508 59.0406 0.128174 59.2273 0.128174H72.3033C72.5086 0.128174 72.6766 0.193508 72.8073 0.324175C72.9379 0.454841 73.0033 0.622841 73.0033 0.828175V3.46017C73.0033 3.64684 72.9379 3.81484 72.8073 3.96417C72.6766 4.09484 72.5086 4.16017 72.3033 4.16017H63.3713V7.94017H71.6873C71.8926 7.94017 72.0606 8.01484 72.1913 8.16418C72.3219 8.29484 72.3873 8.46284 72.3873 8.66817V11.1042C72.3873 11.2908 72.3219 11.4588 72.1913 11.6082C72.0606 11.7388 71.8926 11.8042 71.6873 11.8042H63.3713V15.6962H72.5273C72.7326 15.6962 72.9006 15.7615 73.0313 15.8922C73.1619 16.0228 73.2273 16.1908 73.2273 16.3962V19.0282C73.2273 19.2148 73.1619 19.3828 73.0313 19.5322C72.9006 19.6628 72.7326 19.7282 72.5273 19.7282H59.2273Z" fill="#1E1E1E"/>
</svg>
