<svg width="901" height="230" viewBox="0 0 901 230" fill="none" xmlns="http://www.w3.org/2000/svg">
<path d="M1.35498 19C1.35498 10.7157 8.07071 4 16.355 4H223.355C231.639 4 238.355 10.7157 238.355 19V77C238.355 85.2843 231.639 92 223.355 92H1.35498V19Z" fill="#118834"/>
<path d="M54.61 42H56.3656V37.9091H58.752C61.4509 37.9091 62.7861 36.2784 62.7861 34.1307C62.7861 31.9886 61.4622 30.3636 58.7577 30.3636H54.61V42ZM56.3656 36.4205V31.8693H58.5702C60.3088 31.8693 61.019 32.8125 61.019 34.1307C61.019 35.4489 60.3088 36.4205 58.5929 36.4205H56.3656ZM69.9125 42H71.5091V33.2727H67.8216C65.8102 33.2727 64.583 34.3125 64.583 35.9545C64.583 37.1023 65.1852 37.9489 66.225 38.3409L64.1852 42H65.9239L67.8273 38.5852H69.9125V42ZM69.9125 37.2102H67.708C66.7818 37.2102 66.2421 36.7216 66.2477 35.9773C66.2421 35.2273 66.8273 34.7216 67.8216 34.7216H69.9125V37.2102ZM72.9182 44.517H74.6V42H80.6852V44.517H82.3443V40.5284H81.0034V33.2727H75.0716L74.7989 36.5284C74.6171 38.7273 74.35 39.875 73.6284 40.5284H72.9182V44.517ZM75.4466 40.5284C76.0261 39.7159 76.2421 38.3636 76.4125 36.5284L76.5943 34.7273H79.3443V40.5284H75.4466ZM87.681 42.1761C90.1412 42.1761 91.7492 40.375 91.7492 37.6761C91.7492 34.9602 90.1412 33.1591 87.681 33.1591C85.2207 33.1591 83.6128 34.9602 83.6128 37.6761C83.6128 40.375 85.2207 42.1761 87.681 42.1761ZM87.6867 40.75C86.0787 40.75 85.3287 39.3466 85.3287 37.6705C85.3287 36 86.0787 34.5795 87.6867 34.5795C89.2832 34.5795 90.0332 36 90.0332 37.6705C90.0332 39.3466 89.2832 40.75 87.6867 40.75ZM98.5432 39.8977L95.7818 33.2727H93.6455V42H95.3102V35.6534L97.9125 42H99.1739L101.822 35.6761V42H103.475V33.2727H101.361L98.5432 39.8977ZM113.65 42.1761C115.712 42.1761 117.047 40.9375 117.235 39.2386H115.582C115.366 40.1818 114.633 40.7386 113.661 40.7386C112.224 40.7386 111.297 39.5398 111.297 37.6364C111.297 35.767 112.241 34.5909 113.661 34.5909C114.741 34.5909 115.4 35.2727 115.582 36.0909H117.235C117.053 34.3295 115.616 33.1591 113.633 33.1591C111.172 33.1591 109.582 35.0114 109.582 37.6761C109.582 40.3068 111.116 42.1761 113.65 42.1761ZM122.728 42.1761C125.188 42.1761 126.796 40.375 126.796 37.6761C126.796 34.9602 125.188 33.1591 122.728 33.1591C120.268 33.1591 118.66 34.9602 118.66 37.6761C118.66 40.375 120.268 42.1761 122.728 42.1761ZM122.734 40.75C121.126 40.75 120.376 39.3466 120.376 37.6705C120.376 36 121.126 34.5795 122.734 34.5795C124.33 34.5795 125.08 36 125.08 37.6705C125.08 39.3466 124.33 40.75 122.734 40.75ZM137.824 39.8977L135.063 33.2727H132.927V42H134.591V35.6534L137.194 42H138.455L141.103 35.6761V42H142.756V33.2727H140.643L137.824 39.8977ZM146.685 33.2727H145.02V42H146.685V38.375H150.464V42H152.123V33.2727H150.464V36.9034H146.685V33.2727ZM158.072 42.1761C160.532 42.1761 162.14 40.375 162.14 37.6761C162.14 34.9602 160.532 33.1591 158.072 33.1591C155.611 33.1591 154.003 34.9602 154.003 37.6761C154.003 40.375 155.611 42.1761 158.072 42.1761ZM158.077 40.75C156.469 40.75 155.719 39.3466 155.719 37.6705C155.719 36 156.469 34.5795 158.077 34.5795C159.674 34.5795 160.424 36 160.424 37.6705C160.424 39.3466 159.674 40.75 158.077 40.75ZM165.701 39.6193V33.2727H164.036V42H165.883L169.712 35.6477V42H171.377V33.2727H169.547L165.701 39.6193ZM168.82 30.3182C168.82 30.892 168.502 31.3977 167.707 31.3977C166.9 31.3977 166.599 30.8864 166.599 30.3182H165.207C165.207 31.5966 166.178 32.4773 167.707 32.4773C169.246 32.4773 170.218 31.5966 170.218 30.3182H168.82ZM179.56 39.6193V33.2727H177.895V42H179.742L183.572 35.6477V42H185.236V33.2727H183.407L179.56 39.6193ZM22.872 66H24.5254V58.7386H28.3266V66H29.9913V57.2727H22.872V66ZM32.2627 69.2727H33.9615V64.642H34.0638C34.3706 65.1989 34.9956 66.1705 36.5865 66.1705C38.7002 66.1705 40.2342 64.4773 40.2342 61.6534C40.2342 58.8239 38.6774 57.1591 36.5695 57.1591C34.9502 57.1591 34.3649 58.1477 34.0638 58.6875H33.9217V57.2727H32.2627V69.2727ZM33.9274 61.6364C33.9274 59.8125 34.7229 58.6023 36.2058 58.6023C37.7456 58.6023 38.5183 59.9034 38.5183 61.6364C38.5183 63.3864 37.7229 64.7216 36.2058 64.7216C34.7456 64.7216 33.9274 63.4716 33.9274 61.6364ZM45.8138 66.1761C48.274 66.1761 49.882 64.375 49.882 61.6761C49.882 58.9602 48.274 57.1591 45.8138 57.1591C43.3536 57.1591 41.7456 58.9602 41.7456 61.6761C41.7456 64.375 43.3536 66.1761 45.8138 66.1761ZM45.8195 64.75C44.2115 64.75 43.4615 63.3466 43.4615 61.6705C43.4615 60 44.2115 58.5795 45.8195 58.5795C47.4161 58.5795 48.1661 60 48.1661 61.6705C48.1661 63.3466 47.4161 64.75 45.8195 64.75ZM51.7783 66H53.4771V62.5114H54.5794L57.2101 66H59.318L55.8976 61.517L59.2783 57.2727H57.176L54.2953 60.9318H53.4771V57.2727H51.7783V66ZM63.1774 66.1932C64.6206 66.1932 65.4331 65.4602 65.757 64.8068H65.8252V66H67.4842V60.2045C67.4842 57.6648 65.4842 57.1591 64.0979 57.1591C62.5183 57.1591 61.0638 57.7955 60.4956 59.3864L62.0922 59.75C62.3422 59.1307 62.9786 58.5341 64.1206 58.5341C65.2172 58.5341 65.7797 59.108 65.7797 60.0966V60.1364C65.7797 60.7557 65.1433 60.7443 63.5752 60.9261C61.9217 61.1193 60.2286 61.5511 60.2286 63.5341C60.2286 65.25 61.5183 66.1932 63.1774 66.1932ZM63.5467 64.8295C62.5865 64.8295 61.8933 64.3977 61.8933 63.5568C61.8933 62.6477 62.7002 62.3239 63.6831 62.1932C64.2342 62.1193 65.5411 61.9716 65.7854 61.7273V62.8523C65.7854 63.8864 64.9615 64.8295 63.5467 64.8295ZM68.6646 58.7386H71.5226V66H73.1817V58.7386H76.0283V57.2727H68.6646V58.7386ZM81.095 66.1761C83.5553 66.1761 85.1632 64.375 85.1632 61.6761C85.1632 58.9602 83.5553 57.1591 81.095 57.1591C78.6348 57.1591 77.0269 58.9602 77.0269 61.6761C77.0269 64.375 78.6348 66.1761 81.095 66.1761ZM81.1007 64.75C79.4928 64.75 78.7428 63.3466 78.7428 61.6705C78.7428 60 79.4928 58.5795 81.1007 58.5795C82.6973 58.5795 83.4473 60 83.4473 61.6705C83.4473 63.3466 82.6973 64.75 81.1007 64.75ZM87.0595 66H91.23C93.1391 66 94.2584 65.0341 94.2584 63.6477C94.2584 62.3523 93.2641 61.5568 92.0993 61.4205C93.1732 61.2159 93.8834 60.625 93.8834 59.6023C93.8834 58.1705 92.6448 57.2727 90.6788 57.2727H87.0595V66ZM88.6561 64.5795V62.1534H91.23C92.0709 62.1534 92.5766 62.6477 92.5766 63.4602C92.5766 64.1534 92.0709 64.5795 91.23 64.5795H88.6561ZM88.6561 60.9091V58.7102H90.6788C91.6448 58.7102 92.23 59.1136 92.23 59.7841C92.23 60.483 91.6504 60.9091 90.6959 60.9091H88.6561ZM102.021 57.2727H100.356V66H102.021V62.375H105.8V66H107.459V57.2727H105.8V60.9034H102.021V57.2727ZM113.493 66.1761C115.396 66.1761 116.743 65.2386 117.129 63.8182L115.521 63.5284C115.214 64.3523 114.476 64.7727 113.51 64.7727C112.055 64.7727 111.078 63.8295 111.033 62.1477H117.237V61.5455C117.237 58.392 115.351 57.1591 113.373 57.1591C110.942 57.1591 109.339 59.0114 109.339 61.6932C109.339 64.4034 110.919 66.1761 113.493 66.1761ZM111.038 60.875C111.106 59.6364 112.004 58.5625 113.385 58.5625C114.703 58.5625 115.567 59.5398 115.572 60.875H111.038ZM118.352 58.7386H121.21V66H122.869V58.7386H125.716V57.2727H118.352V58.7386ZM131.747 66H135.917C137.827 66 138.946 65.0341 138.946 63.6477C138.946 62.3523 137.952 61.5568 136.787 61.4205C137.861 61.2159 138.571 60.625 138.571 59.6023C138.571 58.1705 137.332 57.2727 135.366 57.2727H131.747V66ZM133.344 64.5795V62.1534H135.917C136.758 62.1534 137.264 62.6477 137.264 63.4602C137.264 64.1534 136.758 64.5795 135.917 64.5795H133.344ZM133.344 60.9091V58.7102H135.366C136.332 58.7102 136.917 59.1136 136.917 59.7841C136.917 60.483 136.338 60.9091 135.383 60.9091H133.344ZM140.81 69.2727H142.508V64.642H142.611C142.917 65.1989 143.542 66.1705 145.133 66.1705C147.247 66.1705 148.781 64.4773 148.781 61.6534C148.781 58.8239 147.224 57.1591 145.116 57.1591C143.497 57.1591 142.912 58.1477 142.611 58.6875H142.469V57.2727H140.81V69.2727ZM142.474 61.6364C142.474 59.8125 143.27 58.6023 144.753 58.6023C146.292 58.6023 147.065 59.9034 147.065 61.6364C147.065 63.3864 146.27 64.7216 144.753 64.7216C143.292 64.7216 142.474 63.4716 142.474 61.6364ZM154.361 66.1761C156.821 66.1761 158.429 64.375 158.429 61.6761C158.429 58.9602 156.821 57.1591 154.361 57.1591C151.9 57.1591 150.292 58.9602 150.292 61.6761C150.292 64.375 151.9 66.1761 154.361 66.1761ZM154.366 64.75C152.758 64.75 152.008 63.3466 152.008 61.6705C152.008 60 152.758 58.5795 154.366 58.5795C155.963 58.5795 156.713 60 156.713 61.6705C156.713 63.3466 155.963 64.75 154.366 64.75ZM159.473 68.517H161.155V66H167.24V68.517H168.899V64.5284H167.558V57.2727H161.626L161.354 60.5284C161.172 62.7273 160.905 63.875 160.183 64.5284H159.473V68.517ZM162.001 64.5284C162.581 63.7159 162.797 62.3636 162.967 60.5284L163.149 58.7273H165.899V64.5284H162.001ZM174.321 66.1761C176.224 66.1761 177.571 65.2386 177.957 63.8182L176.349 63.5284C176.042 64.3523 175.304 64.7727 174.338 64.7727C172.883 64.7727 171.906 63.8295 171.861 62.1477H178.065V61.5455C178.065 58.392 176.179 57.1591 174.202 57.1591C171.77 57.1591 170.167 59.0114 170.167 61.6932C170.167 64.4034 171.747 66.1761 174.321 66.1761ZM171.866 60.875C171.935 59.6364 172.832 58.5625 174.213 58.5625C175.531 58.5625 176.395 59.5398 176.4 60.875H171.866ZM190.917 54.0227C190.491 54.3636 189.844 54.3636 188.94 54.358C188.673 54.358 188.383 54.358 188.065 54.3636C185.236 54.4205 183.804 56.4318 183.804 60.4205V61.2841C183.804 64.4886 185.395 66.1761 187.832 66.1761C190.27 66.1761 191.849 64.483 191.849 61.767C191.849 59.0852 190.298 57.6023 188.196 57.6023C186.929 57.6023 185.872 58.142 185.304 59.2216H185.196C185.389 57.0114 186.219 55.9148 188.105 55.858C189.781 55.8068 190.844 55.8125 191.622 55.0966L190.917 54.0227ZM187.838 64.75C186.395 64.75 185.514 63.5966 185.514 61.7955C185.537 60.0284 186.406 59.017 187.821 59.017C189.258 59.017 190.133 60.0284 190.133 61.7955C190.133 63.6023 189.258 64.75 187.838 64.75ZM195.412 60.2727V57.2727H193.747V66H197.56C199.696 66 200.889 64.7614 200.889 63.1193C200.889 61.4432 199.696 60.2727 197.56 60.2727H195.412ZM202.128 66H203.827V57.2727H202.128V66ZM195.412 61.7386H197.56C198.537 61.7386 199.236 62.3295 199.236 63.1705C199.236 63.9659 198.537 64.5341 197.56 64.5341H195.412V61.7386ZM207.243 66.108C207.862 66.108 208.379 65.6023 208.379 64.9716C208.379 64.3523 207.862 63.8409 207.243 63.8409C206.618 63.8409 206.106 64.3523 206.106 64.9716C206.106 65.6023 206.618 66.108 207.243 66.108ZM211.487 66.108C212.106 66.108 212.623 65.6023 212.623 64.9716C212.623 64.3523 212.106 63.8409 211.487 63.8409C210.862 63.8409 210.351 64.3523 210.351 64.9716C210.351 65.6023 210.862 66.108 211.487 66.108ZM215.737 66.108C216.356 66.108 216.873 65.6023 216.873 64.9716C216.873 64.3523 216.356 63.8409 215.737 63.8409C215.112 63.8409 214.601 64.3523 214.601 64.9716C214.601 65.6023 215.112 66.108 215.737 66.108Z" fill="white"/>
<path d="M257.774 153C257.774 144.716 264.49 138 272.774 138H482.774C491.059 138 497.774 144.716 497.774 153V211C497.774 219.284 491.059 226 482.774 226H257.774V153Z" fill="#118834"/>
<path d="M329.931 164.364H320.953V176H322.703V165.864H328.181V176H329.931V164.364ZM335.019 176.193C336.462 176.193 337.274 175.46 337.598 174.807H337.666V176H339.326V170.205C339.326 167.665 337.326 167.159 335.939 167.159C334.36 167.159 332.905 167.795 332.337 169.386L333.934 169.75C334.184 169.131 334.82 168.534 335.962 168.534C337.059 168.534 337.621 169.108 337.621 170.097V170.136C337.621 170.756 336.985 170.744 335.416 170.926C333.763 171.119 332.07 171.551 332.07 173.534C332.07 175.25 333.36 176.193 335.019 176.193ZM335.388 174.83C334.428 174.83 333.735 174.398 333.735 173.557C333.735 172.648 334.541 172.324 335.524 172.193C336.076 172.119 337.382 171.972 337.627 171.727V172.852C337.627 173.886 336.803 174.83 335.388 174.83ZM345.264 176.176C347.327 176.176 348.662 174.938 348.85 173.239H347.196C346.98 174.182 346.247 174.739 345.276 174.739C343.838 174.739 342.912 173.54 342.912 171.636C342.912 169.767 343.855 168.591 345.276 168.591C346.355 168.591 347.014 169.273 347.196 170.091H348.85C348.668 168.33 347.23 167.159 345.247 167.159C342.787 167.159 341.196 169.011 341.196 171.676C341.196 174.307 342.73 176.176 345.264 176.176ZM350.666 176H352.32V168.739H356.121V176H357.786V167.273H350.666V176ZM363.733 176.176C366.193 176.176 367.801 174.375 367.801 171.676C367.801 168.96 366.193 167.159 363.733 167.159C361.273 167.159 359.665 168.96 359.665 171.676C359.665 174.375 361.273 176.176 363.733 176.176ZM363.739 174.75C362.131 174.75 361.381 173.347 361.381 171.67C361.381 170 362.131 168.58 363.739 168.58C365.335 168.58 366.085 170 366.085 171.67C366.085 173.347 365.335 174.75 363.739 174.75ZM369.698 179.273H371.397V174.642H371.499C371.806 175.199 372.431 176.17 374.022 176.17C376.135 176.17 377.669 174.477 377.669 171.653C377.669 168.824 376.112 167.159 374.005 167.159C372.385 167.159 371.8 168.148 371.499 168.688H371.357V167.273H369.698V179.273ZM371.362 171.636C371.362 169.812 372.158 168.602 373.641 168.602C375.181 168.602 375.953 169.903 375.953 171.636C375.953 173.386 375.158 174.722 373.641 174.722C372.181 174.722 371.362 173.472 371.362 171.636ZM378.522 168.739H381.38V176H383.039V168.739H385.885V167.273H378.522V168.739ZM395.593 176.176C398.053 176.176 399.661 174.375 399.661 171.676C399.661 168.96 398.053 167.159 395.593 167.159C393.132 167.159 391.524 168.96 391.524 171.676C391.524 174.375 393.132 176.176 395.593 176.176ZM395.598 174.75C393.99 174.75 393.24 173.347 393.24 171.67C393.24 170 393.99 168.58 395.598 168.58C397.195 168.58 397.945 170 397.945 171.67C397.945 173.347 397.195 174.75 395.598 174.75ZM401.557 176H403.21V168.739H407.012V176H408.676V167.273H401.557V176ZM416.152 176H417.749V167.273H414.061C412.05 167.273 410.823 168.312 410.823 169.955C410.823 171.102 411.425 171.949 412.465 172.341L410.425 176H412.164L414.067 172.585H416.152V176ZM416.152 171.21H413.948C413.022 171.21 412.482 170.722 412.487 169.977C412.482 169.227 413.067 168.722 414.061 168.722H416.152V171.21ZM418.928 168.739H421.786V176H423.445V168.739H426.291V167.273H418.928V168.739ZM429.753 170.273V167.273H428.088V176H431.901C434.037 176 435.23 174.761 435.23 173.119C435.23 171.443 434.037 170.273 431.901 170.273H429.753ZM429.753 171.739H431.901C432.878 171.739 433.577 172.33 433.577 173.17C433.577 173.966 432.878 174.534 431.901 174.534H429.753V171.739ZM283.024 202.972H284.723V200.176C287.188 200.176 288.865 198.369 288.865 195.676C288.865 192.966 287.188 191.159 284.723 191.159V188.364H283.024V191.159C280.558 191.159 278.876 192.966 278.876 195.676C278.876 198.369 280.558 200.176 283.024 200.176V202.972ZM283.024 198.744C281.393 198.744 280.598 197.33 280.598 195.676C280.598 194.023 281.393 192.591 283.024 192.591V198.744ZM284.723 198.744V192.591C286.353 192.591 287.143 194.023 287.143 195.676C287.143 197.33 286.353 198.744 284.723 198.744ZM294.429 200.176C296.889 200.176 298.497 198.375 298.497 195.676C298.497 192.96 296.889 191.159 294.429 191.159C291.968 191.159 290.36 192.96 290.36 195.676C290.36 198.375 291.968 200.176 294.429 200.176ZM294.434 198.75C292.826 198.75 292.076 197.347 292.076 195.67C292.076 194 292.826 192.58 294.434 192.58C296.031 192.58 296.781 194 296.781 195.67C296.781 197.347 296.031 198.75 294.434 198.75ZM299.342 192.739H302.2V200H303.859V192.739H306.706V191.273H299.342V192.739ZM311.772 200.176C314.233 200.176 315.84 198.375 315.84 195.676C315.84 192.96 314.233 191.159 311.772 191.159C309.312 191.159 307.704 192.96 307.704 195.676C307.704 198.375 309.312 200.176 311.772 200.176ZM311.778 198.75C310.17 198.75 309.42 197.347 309.42 195.67C309.42 194 310.17 192.58 311.778 192.58C313.375 192.58 314.125 194 314.125 195.67C314.125 197.347 313.375 198.75 311.778 198.75ZM323.316 191.273H317.737V200H319.413V192.739H323.316V191.273ZM325.112 203.273H326.811V198.642H326.913C327.22 199.199 327.845 200.17 329.436 200.17C331.549 200.17 333.083 198.477 333.083 195.653C333.083 192.824 331.527 191.159 329.419 191.159C327.799 191.159 327.214 192.148 326.913 192.688H326.771V191.273H325.112V203.273ZM326.777 195.636C326.777 193.812 327.572 192.602 329.055 192.602C330.595 192.602 331.367 193.903 331.367 195.636C331.367 197.386 330.572 198.722 329.055 198.722C327.595 198.722 326.777 197.472 326.777 195.636ZM337.527 200.193C338.97 200.193 339.782 199.46 340.106 198.807H340.174V200H341.833V194.205C341.833 191.665 339.833 191.159 338.447 191.159C336.867 191.159 335.413 191.795 334.845 193.386L336.441 193.75C336.691 193.131 337.328 192.534 338.47 192.534C339.566 192.534 340.129 193.108 340.129 194.097V194.136C340.129 194.756 339.492 194.744 337.924 194.926C336.271 195.119 334.578 195.551 334.578 197.534C334.578 199.25 335.867 200.193 337.527 200.193ZM337.896 198.83C336.936 198.83 336.242 198.398 336.242 197.557C336.242 196.648 337.049 196.324 338.032 196.193C338.583 196.119 339.89 195.972 340.134 195.727V196.852C340.134 197.886 339.311 198.83 337.896 198.83ZM347.852 202.972H349.551V200.176C352.017 200.176 353.693 198.369 353.693 195.676C353.693 192.966 352.017 191.159 349.551 191.159V188.364H347.852V191.159C345.386 191.159 343.704 192.966 343.704 195.676C343.704 198.369 345.386 200.176 347.852 200.176V202.972ZM347.852 198.744C346.221 198.744 345.426 197.33 345.426 195.676C345.426 194.023 346.221 192.591 347.852 192.591V198.744ZM349.551 198.744V192.591C351.181 192.591 351.971 194.023 351.971 195.676C351.971 197.33 351.181 198.744 349.551 198.744ZM357.245 197.619V191.273H355.581V200H357.427L361.257 193.648V200H362.921V191.273H361.092L357.245 197.619ZM365.206 203.273H366.904V198.642H367.007C367.313 199.199 367.938 200.17 369.529 200.17C371.643 200.17 373.177 198.477 373.177 195.653C373.177 192.824 371.62 191.159 369.512 191.159C367.893 191.159 367.308 192.148 367.007 192.688H366.865V191.273H365.206V203.273ZM366.87 195.636C366.87 193.812 367.666 192.602 369.149 192.602C370.688 192.602 371.461 193.903 371.461 195.636C371.461 197.386 370.666 198.722 369.149 198.722C367.688 198.722 366.87 197.472 366.87 195.636ZM378.757 200.176C381.217 200.176 382.825 198.375 382.825 195.676C382.825 192.96 381.217 191.159 378.757 191.159C376.296 191.159 374.688 192.96 374.688 195.676C374.688 198.375 376.296 200.176 378.757 200.176ZM378.762 198.75C377.154 198.75 376.404 197.347 376.404 195.67C376.404 194 377.154 192.58 378.762 192.58C380.359 192.58 381.109 194 381.109 195.67C381.109 197.347 380.359 198.75 378.762 198.75ZM384.721 200H388.892C390.801 200 391.92 199.034 391.92 197.648C391.92 196.352 390.926 195.557 389.761 195.42C390.835 195.216 391.545 194.625 391.545 193.602C391.545 192.17 390.306 191.273 388.34 191.273H384.721V200ZM386.318 198.58V196.153H388.892C389.733 196.153 390.238 196.648 390.238 197.46C390.238 198.153 389.733 198.58 388.892 198.58H386.318ZM386.318 194.909V192.71H388.34C389.306 192.71 389.892 193.114 389.892 193.784C389.892 194.483 389.312 194.909 388.358 194.909H386.318ZM396.323 200.193C397.767 200.193 398.579 199.46 398.903 198.807H398.971V200H400.63V194.205C400.63 191.665 398.63 191.159 397.244 191.159C395.664 191.159 394.21 191.795 393.642 193.386L395.238 193.75C395.488 193.131 396.125 192.534 397.267 192.534C398.363 192.534 398.926 193.108 398.926 194.097V194.136C398.926 194.756 398.289 194.744 396.721 194.926C395.068 195.119 393.375 195.551 393.375 197.534C393.375 199.25 394.664 200.193 396.323 200.193ZM396.693 198.83C395.733 198.83 395.039 198.398 395.039 197.557C395.039 196.648 395.846 196.324 396.829 196.193C397.38 196.119 398.687 195.972 398.931 195.727V196.852C398.931 197.886 398.108 198.83 396.693 198.83ZM401.811 192.739H404.669V200H406.328V192.739H409.174V191.273H401.811V192.739ZM412.636 194.273V191.273H410.971V200H414.784C416.92 200 418.113 198.761 418.113 197.119C418.113 195.443 416.92 194.273 414.784 194.273H412.636ZM412.636 195.739H414.784C415.761 195.739 416.46 196.33 416.46 197.17C416.46 197.966 415.761 198.534 414.784 198.534H412.636V195.739ZM430.985 188.023C430.559 188.364 429.911 188.364 429.008 188.358C428.741 188.358 428.451 188.358 428.133 188.364C425.304 188.42 423.872 190.432 423.872 194.42V195.284C423.872 198.489 425.463 200.176 427.9 200.176C430.338 200.176 431.917 198.483 431.917 195.767C431.917 193.085 430.366 191.602 428.264 191.602C426.997 191.602 425.94 192.142 425.372 193.222H425.264C425.457 191.011 426.286 189.915 428.173 189.858C429.849 189.807 430.911 189.812 431.69 189.097L430.985 188.023ZM427.906 198.75C426.463 198.75 425.582 197.597 425.582 195.795C425.605 194.028 426.474 193.017 427.889 193.017C429.326 193.017 430.201 194.028 430.201 195.795C430.201 197.602 429.326 198.75 427.906 198.75ZM434.889 203.273C436.292 203.273 437.179 202.54 437.684 201.165L441.292 191.29L439.457 191.273L437.247 198.045H437.156L434.946 191.273H433.127L436.321 200.114L436.11 200.693C435.679 201.852 435.071 201.949 434.139 201.693L433.73 203.085C433.934 203.176 434.377 203.273 434.889 203.273ZM441.322 202.517H443.004V200H449.089V202.517H450.748V198.528H449.407V191.273H443.475L443.203 194.528C443.021 196.727 442.754 197.875 442.032 198.528H441.322V202.517ZM443.85 198.528C444.43 197.716 444.646 196.364 444.816 194.528L444.998 192.727H447.748V198.528H443.85ZM453.483 203.273C454.886 203.273 455.772 202.54 456.278 201.165L459.886 191.29L458.051 191.273L455.84 198.045H455.75L453.539 191.273H451.721L454.914 200.114L454.704 200.693C454.272 201.852 453.664 201.949 452.733 201.693L452.323 203.085C452.528 203.176 452.971 203.273 453.483 203.273ZM460.998 192.739H463.856V200H465.515V192.739H468.362V191.273H460.998V192.739ZM472.017 196.653H473.642V196.545C473.664 195.239 474.039 194.653 475.005 194.057C476.022 193.443 476.647 192.58 476.647 191.301C476.647 189.455 475.25 188.205 473.164 188.205C471.25 188.205 469.715 189.324 469.642 191.369H471.369C471.437 190.165 472.295 189.636 473.164 189.636C474.13 189.636 474.914 190.278 474.914 191.284C474.914 192.131 474.386 192.727 473.71 193.148C472.653 193.795 472.028 194.438 472.017 196.545V196.653ZM472.875 200.108C473.494 200.108 474.011 199.602 474.011 198.972C474.011 198.352 473.494 197.841 472.875 197.841C472.25 197.841 471.738 198.352 471.738 198.972C471.738 199.602 472.25 200.108 472.875 200.108Z" fill="white"/>
<path d="M335.21 24C335.21 15.7157 341.926 9 350.21 9H530.21C538.495 9 545.21 15.7157 545.21 24V82C545.21 90.2843 538.495 97 530.21 97H335.21V24Z" fill="white"/>
<path d="M356.676 47H358.432V41.9261H364.233V47H365.995V35.3636H364.233V40.4205H358.432V35.3636H356.676V47ZM370.08 44.6193V38.2727H368.415V47H370.262L374.091 40.6477V47H375.756V38.2727H373.926L370.08 44.6193ZM385.046 38.2727H383.387V42.6193C382.813 42.7727 382.233 42.8636 381.568 42.8636C380.409 42.8636 379.693 42.3409 379.693 41.108V38.2557H378.04V41.108C378.04 43.2898 379.409 44.3295 381.568 44.3295C382.227 44.3295 382.83 44.2386 383.387 44.0966V47H385.046V38.2727ZM391.067 47.1761C392.97 47.1761 394.317 46.2386 394.703 44.8182L393.095 44.5284C392.789 45.3523 392.05 45.7727 391.084 45.7727C389.629 45.7727 388.652 44.8295 388.607 43.1477H394.811V42.5455C394.811 39.392 392.925 38.1591 390.948 38.1591C388.516 38.1591 386.914 40.0114 386.914 42.6932C386.914 45.4034 388.493 47.1761 391.067 47.1761ZM388.612 41.875C388.681 40.6364 389.578 39.5625 390.959 39.5625C392.277 39.5625 393.141 40.5398 393.147 41.875H388.612ZM402.276 38.2727H396.696V47H398.372V39.7386H402.276V38.2727ZM407.341 47.1761C409.801 47.1761 411.409 45.375 411.409 42.6761C411.409 39.9602 409.801 38.1591 407.341 38.1591C404.881 38.1591 403.273 39.9602 403.273 42.6761C403.273 45.375 404.881 47.1761 407.341 47.1761ZM407.347 45.75C405.739 45.75 404.989 44.3466 404.989 42.6705C404.989 41 405.739 39.5795 407.347 39.5795C408.943 39.5795 409.693 41 409.693 42.6705C409.693 44.3466 408.943 45.75 407.347 45.75ZM419.205 38.2727H417.54V47H419.205V43.375H422.983V47H424.642V38.2727H422.983V41.9034H419.205V38.2727ZM430.676 47.1761C432.58 47.1761 433.926 46.2386 434.313 44.8182L432.705 44.5284C432.398 45.3523 431.659 45.7727 430.693 45.7727C429.239 45.7727 428.262 44.8295 428.216 43.1477H434.421V42.5455C434.421 39.392 432.534 38.1591 430.557 38.1591C428.125 38.1591 426.523 40.0114 426.523 42.6932C426.523 45.4034 428.102 47.1761 430.676 47.1761ZM428.222 41.875C428.29 40.6364 429.188 39.5625 430.568 39.5625C431.887 39.5625 432.75 40.5398 432.756 41.875H428.222ZM440.54 47H442.193V39.7386H445.995V47H447.659V38.2727H440.54V47ZM453.607 47.1761C456.067 47.1761 457.675 45.375 457.675 42.6761C457.675 39.9602 456.067 38.1591 453.607 38.1591C451.147 38.1591 449.539 39.9602 449.539 42.6761C449.539 45.375 451.147 47.1761 453.607 47.1761ZM453.612 45.75C452.004 45.75 451.254 44.3466 451.254 42.6705C451.254 41 452.004 39.5795 453.612 39.5795C455.209 39.5795 455.959 41 455.959 42.6705C455.959 44.3466 455.209 45.75 453.612 45.75ZM461.236 38.2727H459.571V47H461.236V43.375H465.014V47H466.674V38.2727H465.014V41.9034H461.236V38.2727ZM470.611 44.6193V38.2727H468.946V47H470.793L474.622 40.6477V47H476.287V38.2727H474.458L470.611 44.6193ZM483.469 44.8977L480.708 38.2727H478.571V47H480.236V40.6534L482.838 47H484.1L486.747 40.6761V47H488.401V38.2727H486.287L483.469 44.8977ZM493.205 47.1932C494.648 47.1932 495.46 46.4602 495.784 45.8068H495.852V47H497.512V41.2045C497.512 38.6648 495.512 38.1591 494.125 38.1591C492.546 38.1591 491.091 38.7955 490.523 40.3864L492.12 40.75C492.37 40.1307 493.006 39.5341 494.148 39.5341C495.245 39.5341 495.807 40.108 495.807 41.0966V41.1364C495.807 41.7557 495.171 41.7443 493.602 41.9261C491.949 42.1193 490.256 42.5511 490.256 44.5341C490.256 46.25 491.546 47.1932 493.205 47.1932ZM493.574 45.8295C492.614 45.8295 491.921 45.3977 491.921 44.5568C491.921 43.6477 492.727 43.3239 493.71 43.1932C494.262 43.1193 495.568 42.9716 495.813 42.7273V43.8523C495.813 44.8864 494.989 45.8295 493.574 45.8295ZM500.894 38.2727H499.195V47H500.894V43.4432H502.837C503.115 45.6989 504.632 47.1761 506.826 47.1761C509.269 47.1761 510.865 45.3523 510.865 42.6705C510.865 39.9659 509.269 38.1591 506.826 38.1591C504.604 38.1591 503.087 39.6591 502.831 41.9659H500.894V38.2727ZM506.826 45.7216C505.183 45.7216 504.451 44.3352 504.451 42.6705C504.451 41 505.183 39.6023 506.826 39.6023C508.473 39.6023 509.201 41.0057 509.201 42.6705C509.201 44.3295 508.473 45.7216 506.826 45.7216ZM517.102 47H521.273C523.182 47 524.301 46.0341 524.301 44.6477C524.301 43.3523 523.307 42.5568 522.142 42.4205C523.216 42.2159 523.926 41.625 523.926 40.6023C523.926 39.1705 522.688 38.2727 520.722 38.2727H517.102V47ZM518.699 45.5795V43.1534H521.273C522.114 43.1534 522.62 43.6477 522.62 44.4602C522.62 45.1534 522.114 45.5795 521.273 45.5795H518.699ZM518.699 41.9091V39.7102H520.722C521.688 39.7102 522.273 40.1136 522.273 40.7841C522.273 41.483 521.693 41.9091 520.739 41.9091H518.699ZM375.095 63.6307C376.373 63.642 377.061 64.7557 377.225 65.9602H374.282V67.267H377.231C377.083 68.4716 376.384 69.6648 375.095 69.6705C374.123 69.6648 373.305 68.8523 373.305 67.9205H371.703C371.703 69.7898 373.117 71.1591 375.095 71.1591C377.566 71.1591 378.924 69.1648 378.924 66.7955V66.5114C378.924 64.1477 377.561 62.1477 375.095 62.1477C373.282 62.1477 371.703 63.5227 371.703 65.1591H373.305C373.305 64.3011 374.214 63.642 375.095 63.6307ZM379.762 63.7386H382.62V71H384.279V63.7386H387.126V62.2727H379.762V63.7386ZM390.588 68.6193V62.2727H388.923V71H390.769L394.599 64.6477V71H396.264V62.2727H394.434L390.588 68.6193ZM399.889 62.2727H398.025L400.707 66.6364L397.991 71H399.855L401.815 67.7386L403.781 71H405.639L402.894 66.6364L405.616 62.2727H403.758L401.815 65.6705L399.889 62.2727ZM410.742 73.517H412.424V71H418.509V73.517H420.169V69.5284H418.828V62.2727H412.896L412.623 65.5284C412.441 67.7273 412.174 68.875 411.453 69.5284H410.742V73.517ZM413.271 69.5284C413.85 68.7159 414.066 67.3636 414.237 65.5284L414.419 63.7273H417.169V69.5284H413.271ZM425.505 71.1761C427.965 71.1761 429.573 69.375 429.573 66.6761C429.573 63.9602 427.965 62.1591 425.505 62.1591C423.045 62.1591 421.437 63.9602 421.437 66.6761C421.437 69.375 423.045 71.1761 425.505 71.1761ZM425.511 69.75C423.903 69.75 423.153 68.3466 423.153 66.6705C423.153 65 423.903 63.5795 425.511 63.5795C427.107 63.5795 427.857 65 427.857 66.6705C427.857 68.3466 427.107 69.75 425.511 69.75ZM431.47 71H433.169V67.5114H434.271L436.902 71H439.009L435.589 66.517L438.97 62.2727H436.867L433.987 65.9318H433.169V62.2727H431.47V71ZM441.45 74.2727C442.853 74.2727 443.74 73.5398 444.245 72.1648L447.853 62.2898L446.018 62.2727L443.808 69.0455H443.717L441.507 62.2727H439.688L442.882 71.1136L442.671 71.6932C442.24 72.8523 441.632 72.9489 440.7 72.6932L440.291 74.0852C440.495 74.1761 440.938 74.2727 441.45 74.2727ZM454.352 68.8977L451.59 62.2727H449.454V71H451.119V64.6534L453.721 71H454.982L457.63 64.6761V71H459.284V62.2727H457.17L454.352 68.8977ZM465.309 71.1761C467.213 71.1761 468.559 70.2386 468.946 68.8182L467.338 68.5284C467.031 69.3523 466.292 69.7727 465.326 69.7727C463.872 69.7727 462.894 68.8295 462.849 67.1477H469.053V66.5455C469.053 63.392 467.167 62.1591 465.19 62.1591C462.758 62.1591 461.156 64.0114 461.156 66.6932C461.156 69.4034 462.735 71.1761 465.309 71.1761ZM462.855 65.875C462.923 64.6364 463.821 63.5625 465.201 63.5625C466.519 63.5625 467.383 64.5398 467.389 65.875H462.855ZM472.603 62.2727H470.938V71H472.603V67.375H476.382V71H478.041V62.2727H476.382V65.9034H472.603V62.2727ZM479.231 63.7386H482.089V71H483.748V63.7386H486.595V62.2727H479.231V63.7386ZM490.525 71.1932C491.968 71.1932 492.781 70.4602 493.105 69.8068H493.173V71H494.832V65.2045C494.832 62.6648 492.832 62.1591 491.446 62.1591C489.866 62.1591 488.411 62.7955 487.843 64.3864L489.44 64.75C489.69 64.1307 490.326 63.5341 491.468 63.5341C492.565 63.5341 493.127 64.108 493.127 65.0966V65.1364C493.127 65.7557 492.491 65.7443 490.923 65.9261C489.269 66.1193 487.576 66.5511 487.576 68.5341C487.576 70.25 488.866 71.1932 490.525 71.1932ZM490.894 69.8295C489.934 69.8295 489.241 69.3977 489.241 68.5568C489.241 67.6477 490.048 67.3239 491.031 67.1932C491.582 67.1193 492.889 66.9716 493.133 66.7273V67.8523C493.133 68.8864 492.309 69.8295 490.894 69.8295ZM498.436 62.2727H496.572L499.254 66.6364L496.538 71H498.402L500.362 67.7386L502.328 71H504.186L501.441 66.6364L504.163 62.2727H502.305L500.362 65.6705L498.436 62.2727ZM508.049 59.3636H506.18L506.328 67.6534H507.902L508.049 59.3636ZM507.112 71.108C507.731 71.108 508.248 70.6023 508.248 69.9716C508.248 69.3523 507.731 68.8409 507.112 68.8409C506.487 68.8409 505.975 69.3523 505.975 69.9716C505.975 70.6023 506.487 71.108 507.112 71.108Z" fill="#1E1E1E"/>
<path d="M335.21 97H334.21V98H335.21V97ZM350.21 10H530.21V8H350.21V10ZM544.21 24V82H546.21V24H544.21ZM530.21 96H335.21V98H530.21V96ZM336.21 97V24H334.21V97H336.21ZM544.21 82C544.21 89.732 537.942 96 530.21 96V98C539.047 98 546.21 90.8366 546.21 82H544.21ZM530.21 10C537.942 10 544.21 16.268 544.21 24H546.21C546.21 15.1634 539.047 8 530.21 8V10ZM350.21 8C341.374 8 334.21 15.1634 334.21 24H336.21C336.21 16.268 342.478 10 350.21 10V8Z" fill="#E0E0E0"/>
<path d="M125.21 95C125.21 86.7157 131.926 80 140.21 80H279.21C287.495 80 294.21 86.7157 294.21 95V153C294.21 161.284 287.495 168 279.21 168H125.21V95Z" fill="white"/>
<path d="M145.936 120.812H147.618V118H155.431V120.795H157.112V116.511H155.794V106.364H148.618L148.345 111.278C148.169 114.517 147.482 115.852 146.703 116.511H145.936V120.812ZM148.772 116.511C149.436 115.449 149.885 113.739 150.027 111.278L150.209 107.875H154.112V116.511H148.772ZM162.576 118.176C165.036 118.176 166.644 116.375 166.644 113.676C166.644 110.96 165.036 109.159 162.576 109.159C160.115 109.159 158.507 110.96 158.507 113.676C158.507 116.375 160.115 118.176 162.576 118.176ZM162.581 116.75C160.973 116.75 160.223 115.347 160.223 113.67C160.223 112 160.973 110.58 162.581 110.58C164.178 110.58 164.928 112 164.928 113.67C164.928 115.347 164.178 116.75 162.581 116.75ZM168.54 121.273H170.239V116.642H170.341C170.648 117.199 171.273 118.17 172.864 118.17C174.977 118.17 176.512 116.477 176.512 113.653C176.512 110.824 174.955 109.159 172.847 109.159C171.227 109.159 170.642 110.148 170.341 110.688H170.199V109.273H168.54V121.273ZM170.205 113.636C170.205 111.812 171 110.602 172.483 110.602C174.023 110.602 174.796 111.903 174.796 113.636C174.796 115.386 174 116.722 172.483 116.722C171.023 116.722 170.205 115.472 170.205 113.636ZM182.091 118.176C184.551 118.176 186.159 116.375 186.159 113.676C186.159 110.96 184.551 109.159 182.091 109.159C179.631 109.159 178.023 110.96 178.023 113.676C178.023 116.375 179.631 118.176 182.091 118.176ZM182.097 116.75C180.489 116.75 179.739 115.347 179.739 113.67C179.739 112 180.489 110.58 182.097 110.58C183.693 110.58 184.443 112 184.443 113.67C184.443 115.347 183.693 116.75 182.097 116.75ZM193.635 109.273H188.056V118H189.732V110.739H193.635V109.273ZM198.701 118.176C201.161 118.176 202.769 116.375 202.769 113.676C202.769 110.96 201.161 109.159 198.701 109.159C196.24 109.159 194.632 110.96 194.632 113.676C194.632 116.375 196.24 118.176 198.701 118.176ZM198.706 116.75C197.098 116.75 196.348 115.347 196.348 113.67C196.348 112 197.098 110.58 198.706 110.58C200.303 110.58 201.053 112 201.053 113.67C201.053 115.347 200.303 116.75 198.706 116.75ZM208.343 118H210.36L213.098 114.364H213.666V118H215.365V114.364H215.933L218.655 118H220.672L217.308 113.534L220.632 109.273H218.655L215.956 112.898H215.365V109.273H213.666V112.898H213.058L210.36 109.273H208.382L211.723 113.534L208.343 118ZM225.801 118.176C227.705 118.176 229.051 117.239 229.438 115.818L227.83 115.528C227.523 116.352 226.784 116.773 225.818 116.773C224.364 116.773 223.387 115.83 223.341 114.148H229.546V113.545C229.546 110.392 227.659 109.159 225.682 109.159C223.25 109.159 221.648 111.011 221.648 113.693C221.648 116.403 223.227 118.176 225.801 118.176ZM223.347 112.875C223.415 111.636 224.313 110.562 225.693 110.562C227.012 110.562 227.875 111.54 227.881 112.875H223.347ZM238.665 110.631C239.943 110.642 240.631 111.756 240.796 112.96H237.852V114.267H240.801C240.654 115.472 239.955 116.665 238.665 116.67C237.693 116.665 236.875 115.852 236.875 114.92H235.273C235.273 116.79 236.688 118.159 238.665 118.159C241.137 118.159 242.495 116.165 242.495 113.795V113.511C242.495 111.148 241.131 109.148 238.665 109.148C236.852 109.148 235.273 110.523 235.273 112.159H236.875C236.875 111.301 237.784 110.642 238.665 110.631ZM243.333 110.739H246.191V118H247.85V110.739H250.696V109.273H243.333V110.739ZM255.763 118.176C258.223 118.176 259.831 116.375 259.831 113.676C259.831 110.96 258.223 109.159 255.763 109.159C253.303 109.159 251.695 110.96 251.695 113.676C251.695 116.375 253.303 118.176 255.763 118.176ZM255.769 116.75C254.161 116.75 253.411 115.347 253.411 113.67C253.411 112 254.161 110.58 255.769 110.58C257.365 110.58 258.115 112 258.115 113.67C258.115 115.347 257.365 116.75 255.769 116.75ZM265.962 118H270.132C272.041 118 273.161 117.034 273.161 115.648C273.161 114.352 272.166 113.557 271.002 113.42C272.076 113.216 272.786 112.625 272.786 111.602C272.786 110.17 271.547 109.273 269.581 109.273H265.962V118ZM267.558 116.58V114.153H270.132C270.973 114.153 271.479 114.648 271.479 115.46C271.479 116.153 270.973 116.58 270.132 116.58H267.558ZM267.558 112.909V110.71H269.581C270.547 110.71 271.132 111.114 271.132 111.784C271.132 112.483 270.553 112.909 269.598 112.909H267.558ZM154.22 142H155.873V134.739H159.674V142H161.339V133.273H154.22V142ZM163.61 145.273H165.309V140.642H165.411C165.718 141.199 166.343 142.17 167.934 142.17C170.048 142.17 171.582 140.477 171.582 137.653C171.582 134.824 170.025 133.159 167.917 133.159C166.298 133.159 165.713 134.148 165.411 134.688H165.269V133.273H163.61V145.273ZM165.275 137.636C165.275 135.812 166.071 134.602 167.553 134.602C169.093 134.602 169.866 135.903 169.866 137.636C169.866 139.386 169.071 140.722 167.553 140.722C166.093 140.722 165.275 139.472 165.275 137.636ZM177.161 142.176C179.622 142.176 181.23 140.375 181.23 137.676C181.23 134.96 179.622 133.159 177.161 133.159C174.701 133.159 173.093 134.96 173.093 137.676C173.093 140.375 174.701 142.176 177.161 142.176ZM177.167 140.75C175.559 140.75 174.809 139.347 174.809 137.67C174.809 136 175.559 134.58 177.167 134.58C178.764 134.58 179.514 136 179.514 137.67C179.514 139.347 178.764 140.75 177.167 140.75ZM183.126 142H184.825V138.511H185.927L188.558 142H190.666L187.245 137.517L190.626 133.273H188.524L185.643 136.932H184.825V133.273H183.126V142ZM194.525 142.193C195.968 142.193 196.781 141.46 197.105 140.807H197.173V142H198.832V136.205C198.832 133.665 196.832 133.159 195.446 133.159C193.866 133.159 192.411 133.795 191.843 135.386L193.44 135.75C193.69 135.131 194.326 134.534 195.468 134.534C196.565 134.534 197.127 135.108 197.127 136.097V136.136C197.127 136.756 196.491 136.744 194.923 136.926C193.269 137.119 191.576 137.551 191.576 139.534C191.576 141.25 192.866 142.193 194.525 142.193ZM194.894 140.83C193.934 140.83 193.241 140.398 193.241 139.557C193.241 138.648 194.048 138.324 195.031 138.193C195.582 138.119 196.889 137.972 197.133 137.727V138.852C197.133 139.886 196.309 140.83 194.894 140.83ZM200.012 134.739H202.87V142H204.529V134.739H207.376V133.273H200.012V134.739ZM220.14 130.023C219.714 130.364 219.066 130.364 218.163 130.358C217.896 130.358 217.606 130.358 217.288 130.364C214.458 130.42 213.027 132.432 213.027 136.42V137.284C213.027 140.489 214.617 142.176 217.055 142.176C219.492 142.176 221.072 140.483 221.072 137.767C221.072 135.085 219.521 133.602 217.419 133.602C216.152 133.602 215.095 134.142 214.527 135.222H214.419C214.612 133.011 215.441 131.915 217.328 131.858C219.004 131.807 220.066 131.812 220.845 131.097L220.14 130.023ZM217.061 140.75C215.617 140.75 214.737 139.597 214.737 137.795C214.759 136.028 215.629 135.017 217.044 135.017C218.481 135.017 219.356 136.028 219.356 137.795C219.356 139.602 218.481 140.75 217.061 140.75ZM222.97 145.273H224.669V140.642H224.771C225.078 141.199 225.703 142.17 227.294 142.17C229.407 142.17 230.941 140.477 230.941 137.653C230.941 134.824 229.384 133.159 227.277 133.159C225.657 133.159 225.072 134.148 224.771 134.688H224.629V133.273H222.97V145.273ZM224.634 137.636C224.634 135.812 225.43 134.602 226.913 134.602C228.453 134.602 229.225 135.903 229.225 137.636C229.225 139.386 228.43 140.722 226.913 140.722C225.453 140.722 224.634 139.472 224.634 137.636ZM235.384 142.193C236.828 142.193 237.64 141.46 237.964 140.807H238.032V142H239.691V136.205C239.691 133.665 237.691 133.159 236.305 133.159C234.725 133.159 233.271 133.795 232.703 135.386L234.299 135.75C234.549 135.131 235.186 134.534 236.328 134.534C237.424 134.534 237.987 135.108 237.987 136.097V136.136C237.987 136.756 237.35 136.744 235.782 136.926C234.129 137.119 232.436 137.551 232.436 139.534C232.436 141.25 233.725 142.193 235.384 142.193ZM235.754 140.83C234.794 140.83 234.1 140.398 234.1 139.557C234.1 138.648 234.907 138.324 235.89 138.193C236.441 138.119 237.748 137.972 237.992 137.727V138.852C237.992 139.886 237.169 140.83 235.754 140.83ZM240.872 134.739H243.73V142H245.389V134.739H248.235V133.273H240.872V134.739ZM251.697 136.273V133.273H250.032V142H253.845C255.981 142 257.174 140.761 257.174 139.119C257.174 137.443 255.981 136.273 253.845 136.273H251.697ZM251.697 137.739H253.845C254.822 137.739 255.521 138.33 255.521 139.17C255.521 139.966 254.822 140.534 253.845 140.534H251.697V137.739ZM260.937 138.653H262.562V138.545C262.585 137.239 262.96 136.653 263.926 136.057C264.943 135.443 265.568 134.58 265.568 133.301C265.568 131.455 264.17 130.205 262.085 130.205C260.17 130.205 258.636 131.324 258.562 133.369H260.289C260.357 132.165 261.215 131.636 262.085 131.636C263.051 131.636 263.835 132.278 263.835 133.284C263.835 134.131 263.306 134.727 262.63 135.148C261.573 135.795 260.948 136.438 260.937 138.545V138.653ZM261.795 142.108C262.414 142.108 262.931 141.602 262.931 140.972C262.931 140.352 262.414 139.841 261.795 139.841C261.17 139.841 260.659 140.352 260.659 140.972C260.659 141.602 261.17 142.108 261.795 142.108Z" fill="#1E1E1E"/>
<path d="M125.21 168H124.21V169H125.21V168ZM140.21 81H279.21V79H140.21V81ZM293.21 95V153H295.21V95H293.21ZM279.21 167H125.21V169H279.21V167ZM126.21 168V95H124.21V168H126.21ZM293.21 153C293.21 160.732 286.942 167 279.21 167V169C288.047 169 295.21 161.837 295.21 153H293.21ZM279.21 81C286.942 81 293.21 87.268 293.21 95H295.21C295.21 86.1634 288.047 79 279.21 79V81ZM140.21 79C131.374 79 124.21 86.1634 124.21 95H126.21C126.21 87.268 132.478 81 140.21 81V79Z" fill="#E0E0E0"/>
<path d="M627.694 148C627.694 139.716 634.41 133 642.694 133H795.694C803.978 133 810.694 139.716 810.694 148V206C810.694 214.284 803.978 221 795.694 221H627.694V148Z" fill="white"/>
<path d="M648.869 167.307C649.09 169.511 650.533 171.159 653.34 171.159C656.147 171.159 657.942 169.062 657.942 165.801V164.591C657.942 161.33 656.124 159.205 653.244 159.205C650.505 159.205 649.09 160.875 648.863 163.125H650.653C650.834 161.614 651.545 160.716 653.244 160.716C655.113 160.716 656.158 162.227 656.164 164.58H651.874V166.068H656.158C656.084 168.119 655.187 169.67 653.34 169.67C651.596 169.67 650.852 168.841 650.653 167.307H648.869ZM659.504 163.739H662.361V171H664.021V163.739H666.867V162.273H659.504V163.739ZM671.934 171.176C674.394 171.176 676.002 169.375 676.002 166.676C676.002 163.96 674.394 162.159 671.934 162.159C669.474 162.159 667.866 163.96 667.866 166.676C667.866 169.375 669.474 171.176 671.934 171.176ZM671.94 169.75C670.332 169.75 669.582 168.347 669.582 166.67C669.582 165 670.332 163.58 671.94 163.58C673.536 163.58 674.286 165 674.286 166.67C674.286 168.347 673.536 169.75 671.94 169.75ZM682.133 171H686.303C688.212 171 689.332 170.034 689.332 168.648C689.332 167.352 688.337 166.557 687.173 166.42C688.246 166.216 688.957 165.625 688.957 164.602C688.957 163.17 687.718 162.273 685.752 162.273H682.133V171ZM683.729 169.58V167.153H686.303C687.144 167.153 687.65 167.648 687.65 168.46C687.65 169.153 687.144 169.58 686.303 169.58H683.729ZM683.729 165.909V163.71H685.752C686.718 163.71 687.303 164.114 687.303 164.784C687.303 165.483 686.724 165.909 685.769 165.909H683.729ZM694.871 171.176C696.934 171.176 698.269 169.938 698.457 168.239H696.803C696.587 169.182 695.854 169.739 694.883 169.739C693.445 169.739 692.519 168.54 692.519 166.636C692.519 164.767 693.462 163.591 694.883 163.591C695.962 163.591 696.621 164.273 696.803 165.091H698.457C698.275 163.33 696.837 162.159 694.854 162.159C692.394 162.159 690.803 164.011 690.803 166.676C690.803 169.307 692.337 171.176 694.871 171.176ZM704.035 171.176C705.938 171.176 707.285 170.239 707.671 168.818L706.063 168.528C705.756 169.352 705.018 169.773 704.052 169.773C702.597 169.773 701.62 168.83 701.575 167.148H707.779V166.545C707.779 163.392 705.893 162.159 703.915 162.159C701.484 162.159 699.881 164.011 699.881 166.693C699.881 169.403 701.461 171.176 704.035 171.176ZM701.58 165.875C701.648 164.636 702.546 163.562 703.927 163.562C705.245 163.562 706.109 164.54 706.114 165.875H701.58ZM715.563 162.273H713.898V171H715.563V167.375H719.342V171H721.001V162.273H719.342V165.903H715.563V162.273ZM725.813 171.193C727.256 171.193 728.069 170.46 728.393 169.807H728.461V171H730.12V165.205C730.12 162.665 728.12 162.159 726.734 162.159C725.154 162.159 723.7 162.795 723.131 164.386L724.728 164.75C724.978 164.131 725.614 163.534 726.756 163.534C727.853 163.534 728.415 164.108 728.415 165.097V165.136C728.415 165.756 727.779 165.744 726.211 165.926C724.557 166.119 722.864 166.551 722.864 168.534C722.864 170.25 724.154 171.193 725.813 171.193ZM726.182 169.83C725.222 169.83 724.529 169.398 724.529 168.557C724.529 167.648 725.336 167.324 726.319 167.193C726.87 167.119 728.177 166.972 728.421 166.727V167.852C728.421 168.886 727.597 169.83 726.182 169.83ZM736.617 171H738.271V163.739H742.072V171H743.736V162.273H736.617V171ZM746.008 174.273H747.707V169.642H747.809C748.116 170.199 748.741 171.17 750.332 171.17C752.445 171.17 753.979 169.477 753.979 166.653C753.979 163.824 752.423 162.159 750.315 162.159C748.695 162.159 748.11 163.148 747.809 163.688H747.667V162.273H746.008V174.273ZM747.673 166.636C747.673 164.812 748.468 163.602 749.951 163.602C751.491 163.602 752.263 164.903 752.263 166.636C752.263 168.386 751.468 169.722 749.951 169.722C748.491 169.722 747.673 168.472 747.673 166.636ZM759.559 171.176C762.019 171.176 763.627 169.375 763.627 166.676C763.627 163.96 762.019 162.159 759.559 162.159C757.099 162.159 755.491 163.96 755.491 166.676C755.491 169.375 757.099 171.176 759.559 171.176ZM759.565 169.75C757.957 169.75 757.207 168.347 757.207 166.67C757.207 165 757.957 163.58 759.565 163.58C761.161 163.58 761.911 165 761.911 166.67C761.911 168.347 761.161 169.75 759.565 169.75ZM765.523 171H767.222V167.511H768.325L770.955 171H773.063L769.643 166.517L773.023 162.273H770.921L768.04 165.932H767.222V162.273H765.523V171ZM776.923 171.193C778.366 171.193 779.178 170.46 779.502 169.807H779.57V171H781.229V165.205C781.229 162.665 779.229 162.159 777.843 162.159C776.263 162.159 774.809 162.795 774.241 164.386L775.837 164.75C776.087 164.131 776.724 163.534 777.866 163.534C778.962 163.534 779.525 164.108 779.525 165.097V165.136C779.525 165.756 778.888 165.744 777.32 165.926C775.667 166.119 773.974 166.551 773.974 168.534C773.974 170.25 775.263 171.193 776.923 171.193ZM777.292 169.83C776.332 169.83 775.638 169.398 775.638 168.557C775.638 167.648 776.445 167.324 777.428 167.193C777.979 167.119 779.286 166.972 779.53 166.727V167.852C779.53 168.886 778.707 169.83 777.292 169.83ZM782.41 163.739H785.268V171H786.927V163.739H789.773V162.273H782.41V163.739ZM670.304 192.898L667.543 186.273H665.406V195H667.071V188.653L669.673 195H670.935L673.582 188.676V195H675.236V186.273H673.122L670.304 192.898ZM681.176 195.176C683.636 195.176 685.244 193.375 685.244 190.676C685.244 187.96 683.636 186.159 681.176 186.159C678.716 186.159 677.108 187.96 677.108 190.676C677.108 193.375 678.716 195.176 681.176 195.176ZM681.182 193.75C679.574 193.75 678.824 192.347 678.824 190.67C678.824 189 679.574 187.58 681.182 187.58C682.778 187.58 683.528 189 683.528 190.67C683.528 192.347 682.778 193.75 681.182 193.75ZM686.224 195H688.241L690.98 191.364H691.548V195H693.247V191.364H693.815L696.537 195H698.554L695.19 190.534L698.514 186.273H696.537L693.838 189.898H693.247V186.273H691.548V189.898H690.94L688.241 186.273H686.264L689.605 190.534L686.224 195ZM701.946 186.273H700.281V195H701.946V191.375H705.724V195H707.383V186.273H705.724V189.903H701.946V186.273ZM713.332 195.176C715.793 195.176 717.401 193.375 717.401 190.676C717.401 187.96 715.793 186.159 713.332 186.159C710.872 186.159 709.264 187.96 709.264 190.676C709.264 193.375 710.872 195.176 713.332 195.176ZM713.338 193.75C711.73 193.75 710.98 192.347 710.98 190.67C710.98 189 711.73 187.58 713.338 187.58C714.935 187.58 715.685 189 715.685 190.67C715.685 192.347 714.935 193.75 713.338 193.75ZM723.531 195H727.702C729.611 195 730.73 194.034 730.73 192.648C730.73 191.352 729.736 190.557 728.571 190.42C729.645 190.216 730.355 189.625 730.355 188.602C730.355 187.17 729.116 186.273 727.151 186.273H723.531V195ZM725.128 193.58V191.153H727.702C728.543 191.153 729.048 191.648 729.048 192.46C729.048 193.153 728.543 193.58 727.702 193.58H725.128ZM725.128 189.909V187.71H727.151C728.116 187.71 728.702 188.114 728.702 188.784C728.702 189.483 728.122 189.909 727.168 189.909H725.128ZM732.077 192.693C732.128 194.216 733.554 195.176 735.491 195.176C737.48 195.176 738.918 194.176 738.918 192.574C738.918 191.438 738.196 190.597 737.185 190.528V190.438C738.099 190.176 738.73 189.562 738.73 188.602C738.73 187.17 737.503 186.159 735.56 186.159C733.696 186.159 732.327 187.153 732.293 188.619H734.008C734.043 187.966 734.719 187.511 735.645 187.511C736.56 187.511 737.094 187.989 737.094 188.699C737.094 189.364 736.616 189.852 735.656 189.852H734.236V191.188H735.656C736.622 191.188 737.241 191.722 737.241 192.511C737.241 193.403 736.452 193.807 735.474 193.807C734.514 193.807 733.866 193.409 733.815 192.693H732.077ZM745.876 195H747.473V186.273H743.785C741.774 186.273 740.547 187.312 740.547 188.955C740.547 190.102 741.149 190.949 742.189 191.341L740.149 195H741.888L743.791 191.585H745.876V195ZM745.876 190.21H743.672C742.746 190.21 742.206 189.722 742.212 188.977C742.206 188.227 742.791 187.722 743.785 187.722H745.876V190.21ZM748.652 187.739H751.51V195H753.169V187.739H756.016V186.273H748.652V187.739ZM759.477 189.273V186.273H757.812V195H761.625C763.761 195 764.955 193.761 764.955 192.119C764.955 190.443 763.761 189.273 761.625 189.273H759.477ZM759.477 190.739H761.625C762.602 190.739 763.301 191.33 763.301 192.17C763.301 192.966 762.602 193.534 761.625 193.534H759.477V190.739ZM768.717 191.653H770.342V191.545C770.365 190.239 770.74 189.653 771.706 189.057C772.723 188.443 773.348 187.58 773.348 186.301C773.348 184.455 771.95 183.205 769.865 183.205C767.95 183.205 766.416 184.324 766.342 186.369H768.07C768.138 185.165 768.996 184.636 769.865 184.636C770.831 184.636 771.615 185.278 771.615 186.284C771.615 187.131 771.087 187.727 770.41 188.148C769.354 188.795 768.729 189.438 768.717 191.545V191.653ZM769.575 195.108C770.195 195.108 770.712 194.602 770.712 193.972C770.712 193.352 770.195 192.841 769.575 192.841C768.95 192.841 768.439 193.352 768.439 193.972C768.439 194.602 768.95 195.108 769.575 195.108Z" fill="#1E1E1E"/>
<path d="M627.694 221H626.694V222H627.694V221ZM642.694 134H795.694V132H642.694V134ZM809.694 148V206H811.694V148H809.694ZM795.694 220H627.694V222H795.694V220ZM628.694 221V148H626.694V221H628.694ZM809.694 206C809.694 213.732 803.426 220 795.694 220V222C804.53 222 811.694 214.837 811.694 206H809.694ZM795.694 134C803.426 134 809.694 140.268 809.694 148H811.694C811.694 139.163 804.53 132 795.694 132V134ZM642.694 132C633.857 132 626.694 139.163 626.694 148H628.694C628.694 140.268 634.962 134 642.694 134V132Z" fill="#E0E0E0"/>
<path d="M475.033 100C475.033 91.7157 481.748 85 490.033 85H660.033C668.317 85 675.033 91.7157 675.033 100V134C675.033 142.284 668.317 149 660.033 149H475.033V100Z" fill="white"/>
<path d="M495.72 125.812H497.401V123H505.214V125.795H506.896V121.511H505.577V111.364H498.401L498.129 116.278C497.952 119.517 497.265 120.852 496.487 121.511H495.72V125.812ZM498.555 121.511C499.22 120.449 499.668 118.739 499.81 116.278L499.992 112.875H503.896V121.511H498.555ZM512.359 123.176C514.819 123.176 516.427 121.375 516.427 118.676C516.427 115.96 514.819 114.159 512.359 114.159C509.898 114.159 508.291 115.96 508.291 118.676C508.291 121.375 509.898 123.176 512.359 123.176ZM512.364 121.75C510.756 121.75 510.006 120.347 510.006 118.67C510.006 117 510.756 115.58 512.364 115.58C513.961 115.58 514.711 117 514.711 118.67C514.711 120.347 513.961 121.75 512.364 121.75ZM517.636 123H518.181C520.085 123 520.783 121.591 520.92 118.705L521.056 115.739H523.908V123H525.573V114.273H519.482L519.329 118.136C519.221 120.83 518.914 121.528 517.943 121.528H517.63L517.636 123ZM533.418 114.273H527.839V123H529.515V115.739H533.418V114.273ZM538.484 123.176C540.944 123.176 542.552 121.375 542.552 118.676C542.552 115.96 540.944 114.159 538.484 114.159C536.023 114.159 534.416 115.96 534.416 118.676C534.416 121.375 536.023 123.176 538.484 123.176ZM538.489 121.75C536.881 121.75 536.131 120.347 536.131 118.67C536.131 117 536.881 115.58 538.489 115.58C540.086 115.58 540.836 117 540.836 118.67C540.836 120.347 540.086 121.75 538.489 121.75ZM548.126 123H550.143L552.881 119.364H553.45V123H555.148V119.364H555.717L558.438 123H560.455L557.092 118.534L560.416 114.273H558.438L555.739 117.898H555.148V114.273H553.45V117.898H552.842L550.143 114.273H548.166L551.506 118.534L548.126 123ZM561.33 125.517H563.012V123H569.097V125.517H570.756V121.528H569.416V114.273H563.484L563.211 117.528C563.029 119.727 562.762 120.875 562.041 121.528H561.33V125.517ZM563.859 121.528C564.438 120.716 564.654 119.364 564.825 117.528L565.006 115.727H567.756V121.528H563.859ZM574.957 123.193C576.4 123.193 577.212 122.46 577.536 121.807H577.604V123H579.264V117.205C579.264 114.665 577.264 114.159 575.877 114.159C574.298 114.159 572.843 114.795 572.275 116.386L573.871 116.75C574.121 116.131 574.758 115.534 575.9 115.534C576.996 115.534 577.559 116.108 577.559 117.097V117.136C577.559 117.756 576.923 117.744 575.354 117.926C573.701 118.119 572.008 118.551 572.008 120.534C572.008 122.25 573.298 123.193 574.957 123.193ZM575.326 121.83C574.366 121.83 573.673 121.398 573.673 120.557C573.673 119.648 574.479 119.324 575.462 119.193C576.014 119.119 577.32 118.972 577.565 118.727V119.852C577.565 120.886 576.741 121.83 575.326 121.83ZM580.444 115.739H583.302V123H584.961V115.739H587.808V114.273H580.444V115.739ZM591.269 117.273V114.273H589.604V123H593.417C595.553 123 596.746 121.761 596.746 120.119C596.746 118.443 595.553 117.273 593.417 117.273H591.269ZM591.269 118.739H593.417C594.394 118.739 595.093 119.33 595.093 120.17C595.093 120.966 594.394 121.534 593.417 121.534H591.269V118.739ZM606.562 123.176C609.022 123.176 610.63 121.375 610.63 118.676C610.63 115.96 609.022 114.159 606.562 114.159C604.102 114.159 602.494 115.96 602.494 118.676C602.494 121.375 604.102 123.176 606.562 123.176ZM606.568 121.75C604.96 121.75 604.21 120.347 604.21 118.67C604.21 117 604.96 115.58 606.568 115.58C608.164 115.58 608.914 117 608.914 118.67C608.914 120.347 608.164 121.75 606.568 121.75ZM611.475 115.739H614.333V123H615.992V115.739H618.839V114.273H611.475V115.739ZM620.636 123H624.806C626.715 123 627.835 122.034 627.835 120.648C627.835 119.352 626.84 118.557 625.675 118.42C626.749 118.216 627.46 117.625 627.46 116.602C627.46 115.17 626.221 114.273 624.255 114.273H620.636V123ZM622.232 121.58V119.153H624.806C625.647 119.153 626.153 119.648 626.153 120.46C626.153 121.153 625.647 121.58 624.806 121.58H622.232ZM622.232 117.909V115.71H624.255C625.221 115.71 625.806 116.114 625.806 116.784C625.806 117.483 625.227 117.909 624.272 117.909H622.232ZM633.46 123.176C635.363 123.176 636.71 122.239 637.096 120.818L635.488 120.528C635.181 121.352 634.443 121.773 633.477 121.773C632.022 121.773 631.045 120.83 630.999 119.148H637.204V118.545C637.204 115.392 635.318 114.159 633.34 114.159C630.908 114.159 629.306 116.011 629.306 118.693C629.306 121.403 630.886 123.176 633.46 123.176ZM631.005 117.875C631.073 116.636 631.971 115.562 633.352 115.562C634.67 115.562 635.533 116.54 635.539 117.875H631.005ZM638.319 115.739H641.177V123H642.836V115.739H645.683V114.273H638.319V115.739ZM649.337 119.653H650.962V119.545C650.985 118.239 651.36 117.653 652.326 117.057C653.343 116.443 653.968 115.58 653.968 114.301C653.968 112.455 652.57 111.205 650.485 111.205C648.57 111.205 647.036 112.324 646.962 114.369H648.69C648.758 113.165 649.616 112.636 650.485 112.636C651.451 112.636 652.235 113.278 652.235 114.284C652.235 115.131 651.707 115.727 651.031 116.148C649.974 116.795 649.349 117.438 649.337 119.545V119.653ZM650.195 123.108C650.815 123.108 651.332 122.602 651.332 121.972C651.332 121.352 650.815 120.841 650.195 120.841C649.57 120.841 649.059 121.352 649.059 121.972C649.059 122.602 649.57 123.108 650.195 123.108Z" fill="#1E1E1E"/>
<path d="M475.033 149H474.033V150H475.033V149ZM490.033 86H660.033V84H490.033V86ZM674.033 100V134H676.033V100H674.033ZM660.033 148H475.033V150H660.033V148ZM476.033 149V100H474.033V149H476.033ZM674.033 134C674.033 141.732 667.765 148 660.033 148V150C668.869 150 676.033 142.837 676.033 134H674.033ZM660.033 86C667.765 86 674.033 92.268 674.033 100H676.033C676.033 91.1634 668.869 84 660.033 84V86ZM490.033 84C481.196 84 474.033 91.1634 474.033 100H476.033C476.033 92.268 482.301 86 490.033 86V84Z" fill="#E0E0E0"/>
<path d="M724.694 39C724.694 30.7157 731.41 24 739.694 24H883.694C891.978 24 898.694 30.7157 898.694 39V97C898.694 105.284 891.978 112 883.694 112H724.694V39Z" fill="#118834"/>
<path d="M747.096 62L748.164 58.9205H752.709L753.772 62H755.636L751.448 50.3636H749.42L745.232 62H747.096ZM748.675 57.4432L750.391 52.4773H750.482L752.198 57.4432H748.675ZM760.897 59.6932C760.948 61.2159 762.374 62.1761 764.312 62.1761C766.3 62.1761 767.738 61.1761 767.738 59.5739C767.738 58.4375 767.016 57.5966 766.005 57.5284V57.4375C766.92 57.1761 767.55 56.5625 767.55 55.6023C767.55 54.1705 766.323 53.1591 764.38 53.1591C762.516 53.1591 761.147 54.1534 761.113 55.6193H762.829C762.863 54.9659 763.539 54.5114 764.465 54.5114C765.38 54.5114 765.914 54.9886 765.914 55.6989C765.914 56.3636 765.437 56.8523 764.477 56.8523H763.056V58.1875H764.477C765.442 58.1875 766.062 58.7216 766.062 59.5114C766.062 60.4034 765.272 60.8068 764.295 60.8068C763.334 60.8068 762.687 60.4091 762.636 59.6932H760.897ZM772.032 62.1932C773.475 62.1932 774.288 61.4602 774.611 60.8068H774.68V62H776.339V56.2045C776.339 53.6648 774.339 53.1591 772.952 53.1591C771.373 53.1591 769.918 53.7955 769.35 55.3864L770.947 55.75C771.197 55.1307 771.833 54.5341 772.975 54.5341C774.072 54.5341 774.634 55.108 774.634 56.0966V56.1364C774.634 56.7557 773.998 56.7443 772.43 56.9261C770.776 57.1193 769.083 57.5511 769.083 59.5341C769.083 61.25 770.373 62.1932 772.032 62.1932ZM772.401 60.8295C771.441 60.8295 770.748 60.3977 770.748 59.5568C770.748 58.6477 771.555 58.3239 772.538 58.1932C773.089 58.1193 774.396 57.9716 774.64 57.7273V58.8523C774.64 59.8864 773.816 60.8295 772.401 60.8295ZM777.914 62H778.459C780.363 62 781.062 60.5909 781.198 57.7045L781.334 54.7386H784.187V62H785.852V53.2727H779.761L779.607 57.1364C779.499 59.8295 779.192 60.5284 778.221 60.5284H777.908L777.914 62ZM791.793 62.1761C794.254 62.1761 795.861 60.375 795.861 57.6761C795.861 54.9602 794.254 53.1591 791.793 53.1591C789.333 53.1591 787.725 54.9602 787.725 57.6761C787.725 60.375 789.333 62.1761 791.793 62.1761ZM791.799 60.75C790.191 60.75 789.441 59.3466 789.441 57.6705C789.441 56 790.191 54.5795 791.799 54.5795C793.396 54.5795 794.146 56 794.146 57.6705C794.146 59.3466 793.396 60.75 791.799 60.75ZM803.337 53.2727H797.758V62H799.434V54.7386H803.337V53.2727ZM816.1 50.0227C815.674 50.3636 815.026 50.3636 814.123 50.358C813.856 50.358 813.566 50.358 813.248 50.3636C810.418 50.4205 808.986 52.4318 808.986 56.4205V57.2841C808.986 60.4886 810.577 62.1761 813.015 62.1761C815.452 62.1761 817.032 60.483 817.032 57.767C817.032 55.0852 815.481 53.6023 813.379 53.6023C812.111 53.6023 811.055 54.142 810.486 55.2216H810.379C810.572 53.0114 811.401 51.9148 813.288 51.858C814.964 51.8068 816.026 51.8125 816.805 51.0966L816.1 50.0227ZM813.021 60.75C811.577 60.75 810.697 59.5966 810.697 57.7955C810.719 56.0284 811.589 55.017 813.004 55.017C814.441 55.017 815.316 56.0284 815.316 57.7955C815.316 59.6023 814.441 60.75 813.021 60.75ZM822.606 62.1761C825.066 62.1761 826.674 60.375 826.674 57.6761C826.674 54.9602 825.066 53.1591 822.606 53.1591C820.146 53.1591 818.538 54.9602 818.538 57.6761C818.538 60.375 820.146 62.1761 822.606 62.1761ZM822.611 60.75C821.004 60.75 820.254 59.3466 820.254 57.6705C820.254 56 821.004 54.5795 822.611 54.5795C824.208 54.5795 824.958 56 824.958 57.6705C824.958 59.3466 824.208 60.75 822.611 60.75ZM827.883 62H828.428C830.332 62 831.03 60.5909 831.167 57.7045L831.303 54.7386H834.155V62H835.82V53.2727H829.729L829.576 57.1364C829.468 59.8295 829.161 60.5284 828.19 60.5284H827.877L827.883 62ZM839.751 56.2727V53.2727H838.086V62H841.898C844.035 62 845.228 60.7614 845.228 59.1193C845.228 57.4432 844.035 56.2727 841.898 56.2727H839.751ZM839.751 57.7386H841.898C842.876 57.7386 843.575 58.3295 843.575 59.1705C843.575 59.9659 842.876 60.5341 841.898 60.5341H839.751V57.7386ZM847.133 53.2727V62H858.161V53.2727H856.496V60.5284H853.479V53.2727H851.815V60.5284H848.798V53.2727H847.133ZM864.106 62.1761C866.566 62.1761 868.174 60.375 868.174 57.6761C868.174 54.9602 866.566 53.1591 864.106 53.1591C861.646 53.1591 860.038 54.9602 860.038 57.6761C860.038 60.375 861.646 62.1761 864.106 62.1761ZM864.111 60.75C862.504 60.75 861.754 59.3466 861.754 57.6705C861.754 56 862.504 54.5795 864.111 54.5795C865.708 54.5795 866.458 56 866.458 57.6705C866.458 59.3466 865.708 60.75 864.111 60.75ZM871.735 59.6193V53.2727H870.07V62H871.917L875.746 55.6477V62H877.411V53.2727H875.582L871.735 59.6193ZM874.854 50.3182C874.854 50.892 874.536 51.3977 873.741 51.3977C872.934 51.3977 872.633 50.8864 872.633 50.3182H871.241C871.241 51.5966 872.212 52.4773 873.741 52.4773C875.28 52.4773 876.252 51.5966 876.252 50.3182H874.854ZM792.397 74.0227C791.971 74.3636 791.323 74.3636 790.42 74.358C790.153 74.358 789.863 74.358 789.545 74.3636C786.715 74.4205 785.283 76.4318 785.283 80.4205V81.2841C785.283 84.4886 786.874 86.1761 789.312 86.1761C791.749 86.1761 793.329 84.483 793.329 81.767C793.329 79.0852 791.778 77.6023 789.675 77.6023C788.408 77.6023 787.352 78.142 786.783 79.2216H786.675C786.869 77.0114 787.698 75.9148 789.584 75.858C791.261 75.8068 792.323 75.8125 793.102 75.0966L792.397 74.0227ZM789.317 84.75C787.874 84.75 786.994 83.5966 786.994 81.7955C787.016 80.0284 787.886 79.017 789.3 79.017C790.738 79.017 791.613 80.0284 791.613 81.7955C791.613 83.6023 790.738 84.75 789.317 84.75ZM796.3 89.2727C797.704 89.2727 798.59 88.5398 799.096 87.1648L802.704 77.2898L800.869 77.2727L798.658 84.0455H798.567L796.357 77.2727H794.539L797.732 86.1136L797.522 86.6932C797.09 87.8523 796.482 87.9489 795.55 87.6932L795.141 89.0852C795.346 89.1761 795.789 89.2727 796.3 89.2727ZM802.734 88.517H804.415V86H810.501V88.517H812.16V84.5284H810.819V77.2727H804.887L804.614 80.5284C804.432 82.7273 804.165 83.875 803.444 84.5284H802.734V88.517ZM805.262 84.5284C805.842 83.7159 806.057 82.3636 806.228 80.5284L806.41 78.7273H809.16V84.5284H805.262ZM817.582 86.1761C819.485 86.1761 820.832 85.2386 821.218 83.8182L819.61 83.5284C819.303 84.3523 818.565 84.7727 817.599 84.7727C816.144 84.7727 815.167 83.8295 815.121 82.1477H821.326V81.5455C821.326 78.392 819.44 77.1591 817.462 77.1591C815.03 77.1591 813.428 79.0114 813.428 81.6932C813.428 84.4034 815.008 86.1761 817.582 86.1761ZM815.127 80.875C815.195 79.6364 816.093 78.5625 817.474 78.5625C818.792 78.5625 819.655 79.5398 819.661 80.875H815.127ZM822.441 78.7386H825.299V86H826.958V78.7386H829.805V77.2727H822.441V78.7386ZM833.459 82.6534H835.084V82.5455C835.107 81.2386 835.482 80.6534 836.448 80.0568C837.465 79.4432 838.09 78.5795 838.09 77.3011C838.09 75.4545 836.692 74.2045 834.607 74.2045C832.692 74.2045 831.158 75.3239 831.084 77.3693H832.812C832.88 76.1648 833.738 75.6364 834.607 75.6364C835.573 75.6364 836.357 76.2784 836.357 77.2841C836.357 78.1307 835.829 78.7273 835.153 79.1477C834.096 79.7955 833.471 80.4375 833.459 82.5455V82.6534ZM834.317 86.108C834.937 86.108 835.454 85.6023 835.454 84.9716C835.454 84.3523 834.937 83.8409 834.317 83.8409C833.692 83.8409 833.181 84.3523 833.181 84.9716C833.181 85.6023 833.692 86.108 834.317 86.108Z" fill="white"/>
</svg>
