<svg width="533" height="484" viewBox="0 0 533 484" fill="none" xmlns="http://www.w3.org/2000/svg">
<path d="M0.374023 15.0977C0.374023 6.81339 7.08975 0.0976562 15.374 0.0976562H222.374C230.658 0.0976562 237.374 6.81339 237.374 15.0977V73.0977C237.374 81.3819 230.658 88.0977 222.374 88.0977H0.374023V15.0977Z" fill="#118834"/>
<path d="M53.629 38.0977H55.3847V34.0067H57.771C60.4699 34.0067 61.8051 32.3761 61.8051 30.2283C61.8051 28.0863 60.4813 26.4613 57.7767 26.4613H53.629V38.0977ZM55.3847 32.5181V27.967H57.5892C59.3279 27.967 60.0381 28.9102 60.0381 30.2283C60.0381 31.5465 59.3279 32.5181 57.6119 32.5181H55.3847ZM68.9316 38.0977H70.5281V29.3704H66.8406C64.8293 29.3704 63.602 30.4102 63.602 32.0522C63.602 33.1999 64.2043 34.0465 65.2441 34.4386L63.2043 38.0977H64.9429L66.8463 34.6829H68.9316V38.0977ZM68.9316 33.3079H66.727C65.8009 33.3079 65.2611 32.8192 65.2668 32.0749C65.2611 31.3249 65.8463 30.8192 66.8406 30.8192H68.9316V33.3079ZM71.9372 40.6147H73.6191V38.0977H79.7043V40.6147H81.3634V36.6261H80.0225V29.3704H74.0906L73.8179 32.6261C73.6361 34.8249 73.3691 35.9727 72.6475 36.6261H71.9372V40.6147ZM74.4656 36.6261C75.0452 35.8136 75.2611 34.4613 75.4316 32.6261L75.6134 30.8249H78.3634V36.6261H74.4656ZM86.7 38.2738C89.1602 38.2738 90.7682 36.4727 90.7682 33.7738C90.7682 31.0579 89.1602 29.2567 86.7 29.2567C84.2398 29.2567 82.6318 31.0579 82.6318 33.7738C82.6318 36.4727 84.2398 38.2738 86.7 38.2738ZM86.7057 36.8477C85.0977 36.8477 84.3477 35.4442 84.3477 33.7681C84.3477 32.0977 85.0977 30.6772 86.7057 30.6772C88.3023 30.6772 89.0523 32.0977 89.0523 33.7681C89.0523 35.4442 88.3023 36.8477 86.7057 36.8477ZM97.5622 35.9954L94.8009 29.3704H92.6645V38.0977H94.3293V31.7511L96.9316 38.0977H98.1929L100.841 31.7738V38.0977H102.494V29.3704H100.38L97.5622 35.9954ZM112.669 38.2738C114.731 38.2738 116.066 37.0352 116.254 35.3363H114.601C114.385 36.2795 113.652 36.8363 112.68 36.8363C111.243 36.8363 110.316 35.6374 110.316 33.734C110.316 31.8647 111.26 30.6886 112.68 30.6886C113.76 30.6886 114.419 31.3704 114.601 32.1886H116.254C116.072 30.4272 114.635 29.2567 112.652 29.2567C110.191 29.2567 108.601 31.109 108.601 33.7738C108.601 36.4045 110.135 38.2738 112.669 38.2738ZM121.747 38.2738C124.207 38.2738 125.815 36.4727 125.815 33.7738C125.815 31.0579 124.207 29.2567 121.747 29.2567C119.287 29.2567 117.679 31.0579 117.679 33.7738C117.679 36.4727 119.287 38.2738 121.747 38.2738ZM121.753 36.8477C120.145 36.8477 119.395 35.4442 119.395 33.7681C119.395 32.0977 120.145 30.6772 121.753 30.6772C123.349 30.6772 124.099 32.0977 124.099 33.7681C124.099 35.4442 123.349 36.8477 121.753 36.8477ZM136.843 35.9954L134.082 29.3704H131.946V38.0977H133.611V31.7511L136.213 38.0977H137.474L140.122 31.7738V38.0977H141.775V29.3704H139.662L136.843 35.9954ZM145.704 29.3704H144.04V38.0977H145.704V34.4727H149.483V38.0977H151.142V29.3704H149.483V33.0011H145.704V29.3704ZM157.091 38.2738C159.551 38.2738 161.159 36.4727 161.159 33.7738C161.159 31.0579 159.551 29.2567 157.091 29.2567C154.63 29.2567 153.022 31.0579 153.022 33.7738C153.022 36.4727 154.63 38.2738 157.091 38.2738ZM157.096 36.8477C155.488 36.8477 154.738 35.4442 154.738 33.7681C154.738 32.0977 155.488 30.6772 157.096 30.6772C158.693 30.6772 159.443 32.0977 159.443 33.7681C159.443 35.4442 158.693 36.8477 157.096 36.8477ZM164.72 35.717V29.3704H163.055V38.0977H164.902L168.731 31.7454V38.0977H170.396V29.3704H168.566L164.72 35.717ZM167.839 26.4158C167.839 26.9897 167.521 27.4954 166.726 27.4954C165.919 27.4954 165.618 26.984 165.618 26.4158H164.226C164.226 27.6942 165.197 28.5749 166.726 28.5749C168.265 28.5749 169.237 27.6942 169.237 26.4158H167.839ZM178.579 35.717V29.3704H176.915V38.0977H178.761L182.591 31.7454V38.0977H184.255V29.3704H182.426L178.579 35.717ZM21.8911 62.0977H23.5445V54.8363H27.3456V62.0977H29.0104V53.3704H21.8911V62.0977ZM31.2817 65.3704H32.9806V60.7397H33.0828C33.3896 61.2965 34.0146 62.2681 35.6056 62.2681C37.7192 62.2681 39.2533 60.5749 39.2533 57.7511C39.2533 54.9215 37.6965 53.2567 35.5885 53.2567C33.9692 53.2567 33.384 54.2454 33.0828 54.7852H32.9408V53.3704H31.2817V65.3704ZM32.9465 57.734C32.9465 55.9102 33.7419 54.6999 35.2249 54.6999C36.7646 54.6999 37.5374 56.0011 37.5374 57.734C37.5374 59.484 36.7419 60.8192 35.2249 60.8192C33.7646 60.8192 32.9465 59.5692 32.9465 57.734ZM44.8328 62.2738C47.2931 62.2738 48.901 60.4727 48.901 57.7738C48.901 55.0579 47.2931 53.2567 44.8328 53.2567C42.3726 53.2567 40.7646 55.0579 40.7646 57.7738C40.7646 60.4727 42.3726 62.2738 44.8328 62.2738ZM44.8385 60.8477C43.2306 60.8477 42.4806 59.4442 42.4806 57.7681C42.4806 56.0977 43.2306 54.6772 44.8385 54.6772C46.4351 54.6772 47.1851 56.0977 47.1851 57.7681C47.1851 59.4442 46.4351 60.8477 44.8385 60.8477ZM50.7973 62.0977H52.4962V58.609H53.5985L56.2291 62.0977H58.3371L54.9166 57.6147L58.2973 53.3704H56.195L53.3144 57.0295H52.4962V53.3704H50.7973V62.0977ZM62.1965 62.2908C63.6396 62.2908 64.4521 61.5579 64.776 60.9045H64.8442V62.0977H66.5033V56.3022C66.5033 53.7624 64.5033 53.2567 63.1169 53.2567C61.5374 53.2567 60.0828 53.8931 59.5146 55.484L61.1112 55.8477C61.3612 55.2283 61.9976 54.6317 63.1396 54.6317C64.2362 54.6317 64.7987 55.2056 64.7987 56.1942V56.234C64.7987 56.8533 64.1624 56.842 62.5942 57.0238C60.9408 57.217 59.2476 57.6488 59.2476 59.6317C59.2476 61.3477 60.5374 62.2908 62.1965 62.2908ZM62.5658 60.9272C61.6056 60.9272 60.9124 60.4954 60.9124 59.6545C60.9124 58.7454 61.7192 58.4215 62.7021 58.2908C63.2533 58.217 64.5601 58.0692 64.8044 57.8249V58.9499C64.8044 59.984 63.9806 60.9272 62.5658 60.9272ZM67.6837 54.8363H70.5416V62.0977H72.2007V54.8363H75.0473V53.3704H67.6837V54.8363ZM80.1141 62.2738C82.5743 62.2738 84.1823 60.4727 84.1823 57.7738C84.1823 55.0579 82.5743 53.2567 80.1141 53.2567C77.6539 53.2567 76.0459 55.0579 76.0459 57.7738C76.0459 60.4727 77.6539 62.2738 80.1141 62.2738ZM80.1198 60.8477C78.5118 60.8477 77.7618 59.4442 77.7618 57.7681C77.7618 56.0977 78.5118 54.6772 80.1198 54.6772C81.7164 54.6772 82.4664 56.0977 82.4664 57.7681C82.4664 59.4442 81.7164 60.8477 80.1198 60.8477ZM86.0786 62.0977H90.249C92.1581 62.0977 93.2774 61.1317 93.2774 59.7454C93.2774 58.4499 92.2831 57.6545 91.1183 57.5181C92.1922 57.3136 92.9024 56.7227 92.9024 55.6999C92.9024 54.2681 91.6638 53.3704 89.6979 53.3704H86.0786V62.0977ZM87.6752 60.6772V58.2511H90.249C91.0899 58.2511 91.5956 58.7454 91.5956 59.5579C91.5956 60.2511 91.0899 60.6772 90.249 60.6772H87.6752ZM87.6752 57.0067V54.8079H89.6979C90.6638 54.8079 91.249 55.2113 91.249 55.8817C91.249 56.5806 90.6695 57.0067 89.7149 57.0067H87.6752ZM101.04 53.3704H99.3754V62.0977H101.04V58.4727H104.819V62.0977H106.478V53.3704H104.819V57.0011H101.04V53.3704ZM112.512 62.2738C114.415 62.2738 115.762 61.3363 116.148 59.9158L114.54 59.6261C114.233 60.4499 113.495 60.8704 112.529 60.8704C111.074 60.8704 110.097 59.9272 110.052 58.2454H116.256V57.6431C116.256 54.4897 114.37 53.2567 112.392 53.2567C109.961 53.2567 108.358 55.109 108.358 57.7908C108.358 60.5011 109.938 62.2738 112.512 62.2738ZM110.057 56.9727C110.125 55.734 111.023 54.6602 112.404 54.6602C113.722 54.6602 114.586 55.6374 114.591 56.9727H110.057ZM117.371 54.8363H120.229V62.0977H121.888V54.8363H124.735V53.3704H117.371V54.8363ZM130.766 62.0977H134.937C136.846 62.0977 137.965 61.1317 137.965 59.7454C137.965 58.4499 136.971 57.6545 135.806 57.5181C136.88 57.3136 137.59 56.7227 137.59 55.6999C137.59 54.2681 136.351 53.3704 134.385 53.3704H130.766V62.0977ZM132.363 60.6772V58.2511H134.937C135.777 58.2511 136.283 58.7454 136.283 59.5579C136.283 60.2511 135.777 60.6772 134.937 60.6772H132.363ZM132.363 57.0067V54.8079H134.385C135.351 54.8079 135.937 55.2113 135.937 55.8817C135.937 56.5806 135.357 57.0067 134.402 57.0067H132.363ZM139.829 65.3704H141.527V60.7397H141.63C141.937 61.2965 142.562 62.2681 144.152 62.2681C146.266 62.2681 147.8 60.5749 147.8 57.7511C147.8 54.9215 146.243 53.2567 144.135 53.2567C142.516 53.2567 141.931 54.2454 141.63 54.7852H141.488V53.3704H139.829V65.3704ZM141.493 57.734C141.493 55.9102 142.289 54.6999 143.772 54.6999C145.312 54.6999 146.084 56.0011 146.084 57.734C146.084 59.484 145.289 60.8192 143.772 60.8192C142.312 60.8192 141.493 59.5692 141.493 57.734ZM153.38 62.2738C155.84 62.2738 157.448 60.4727 157.448 57.7738C157.448 55.0579 155.84 53.2567 153.38 53.2567C150.919 53.2567 149.312 55.0579 149.312 57.7738C149.312 60.4727 150.919 62.2738 153.38 62.2738ZM153.385 60.8477C151.777 60.8477 151.027 59.4442 151.027 57.7681C151.027 56.0977 151.777 54.6772 153.385 54.6772C154.982 54.6772 155.732 56.0977 155.732 57.7681C155.732 59.4442 154.982 60.8477 153.385 60.8477ZM158.492 64.6147H160.174V62.0977H166.259V64.6147H167.918V60.6261H166.577V53.3704H160.645L160.373 56.6261C160.191 58.8249 159.924 59.9727 159.202 60.6261H158.492V64.6147ZM161.02 60.6261C161.6 59.8136 161.816 58.4613 161.986 56.6261L162.168 54.8249H164.918V60.6261H161.02ZM173.34 62.2738C175.243 62.2738 176.59 61.3363 176.976 59.9158L175.368 59.6261C175.062 60.4499 174.323 60.8704 173.357 60.8704C171.902 60.8704 170.925 59.9272 170.88 58.2454H177.084V57.6431C177.084 54.4897 175.198 53.2567 173.221 53.2567C170.789 53.2567 169.187 55.109 169.187 57.7908C169.187 60.5011 170.766 62.2738 173.34 62.2738ZM170.885 56.9727C170.954 55.734 171.851 54.6602 173.232 54.6602C174.55 54.6602 175.414 55.6374 175.419 56.9727H170.885ZM189.937 50.1204C189.51 50.4613 188.863 50.4613 187.959 50.4556C187.692 50.4556 187.402 50.4556 187.084 50.4613C184.255 50.5181 182.823 52.5295 182.823 56.5181V57.3817C182.823 60.5863 184.414 62.2738 186.851 62.2738C189.289 62.2738 190.868 60.5806 190.868 57.8647C190.868 55.1829 189.317 53.6999 187.215 53.6999C185.948 53.6999 184.891 54.2397 184.323 55.3192H184.215C184.408 53.109 185.238 52.0124 187.124 51.9556C188.8 51.9045 189.863 51.9102 190.641 51.1942L189.937 50.1204ZM186.857 60.8477C185.414 60.8477 184.533 59.6942 184.533 57.8931C184.556 56.1261 185.425 55.1147 186.84 55.1147C188.277 55.1147 189.152 56.1261 189.152 57.8931C189.152 59.6999 188.277 60.8477 186.857 60.8477ZM194.431 56.3704V53.3704H192.766V62.0977H196.579C198.715 62.0977 199.908 60.859 199.908 59.217C199.908 57.5408 198.715 56.3704 196.579 56.3704H194.431ZM201.147 62.0977H202.846V53.3704H201.147V62.0977ZM194.431 57.8363H196.579C197.556 57.8363 198.255 58.4272 198.255 59.2681C198.255 60.0636 197.556 60.6317 196.579 60.6317H194.431V57.8363ZM206.262 62.2056C206.881 62.2056 207.398 61.6999 207.398 61.0692C207.398 60.4499 206.881 59.9386 206.262 59.9386C205.637 59.9386 205.125 60.4499 205.125 61.0692C205.125 61.6999 205.637 62.2056 206.262 62.2056ZM210.506 62.2056C211.125 62.2056 211.642 61.6999 211.642 61.0692C211.642 60.4499 211.125 59.9386 210.506 59.9386C209.881 59.9386 209.37 60.4499 209.37 61.0692C209.37 61.6999 209.881 62.2056 210.506 62.2056ZM214.756 62.2056C215.375 62.2056 215.892 61.6999 215.892 61.0692C215.892 60.4499 215.375 59.9386 214.756 59.9386C214.131 59.9386 213.62 60.4499 213.62 61.0692C213.62 61.6999 214.131 62.2056 214.756 62.2056Z" fill="white"/>
<path d="M256.793 152.098C256.793 143.813 263.509 137.098 271.793 137.098H481.793C490.078 137.098 496.793 143.813 496.793 152.098V210.098C496.793 218.382 490.078 225.098 481.793 225.098H256.793V152.098Z" fill="#118834"/>
<path d="M328.95 163.461H319.972V175.098H321.722V164.961H327.2V175.098H328.95V163.461ZM334.038 175.291C335.481 175.291 336.293 174.558 336.617 173.904H336.686V175.098H338.345V169.302C338.345 166.762 336.345 166.257 334.958 166.257C333.379 166.257 331.924 166.893 331.356 168.484L332.953 168.848C333.203 168.228 333.839 167.632 334.981 167.632C336.078 167.632 336.64 168.206 336.64 169.194V169.234C336.64 169.853 336.004 169.842 334.436 170.024C332.782 170.217 331.089 170.649 331.089 172.632C331.089 174.348 332.379 175.291 334.038 175.291ZM334.407 173.927C333.447 173.927 332.754 173.495 332.754 172.654C332.754 171.745 333.561 171.422 334.543 171.291C335.095 171.217 336.401 171.069 336.646 170.825V171.95C336.646 172.984 335.822 173.927 334.407 173.927ZM344.284 175.274C346.346 175.274 347.681 174.035 347.869 172.336H346.215C345.999 173.279 345.266 173.836 344.295 173.836C342.857 173.836 341.931 172.637 341.931 170.734C341.931 168.865 342.874 167.689 344.295 167.689C345.374 167.689 346.034 168.37 346.215 169.189H347.869C347.687 167.427 346.249 166.257 344.266 166.257C341.806 166.257 340.215 168.109 340.215 170.774C340.215 173.404 341.749 175.274 344.284 175.274ZM349.686 175.098H351.339V167.836H355.14V175.098H356.805V166.37H349.686V175.098ZM362.752 175.274C365.212 175.274 366.82 173.473 366.82 170.774C366.82 168.058 365.212 166.257 362.752 166.257C360.292 166.257 358.684 168.058 358.684 170.774C358.684 173.473 360.292 175.274 362.752 175.274ZM362.758 173.848C361.15 173.848 360.4 172.444 360.4 170.768C360.4 169.098 361.15 167.677 362.758 167.677C364.355 167.677 365.105 169.098 365.105 170.768C365.105 172.444 364.355 173.848 362.758 173.848ZM368.717 178.37H370.416V173.74H370.518C370.825 174.297 371.45 175.268 373.041 175.268C375.154 175.268 376.688 173.575 376.688 170.751C376.688 167.922 375.132 166.257 373.024 166.257C371.404 166.257 370.819 167.245 370.518 167.785H370.376V166.37H368.717V178.37ZM370.382 170.734C370.382 168.91 371.177 167.7 372.66 167.7C374.2 167.7 374.972 169.001 374.972 170.734C374.972 172.484 374.177 173.819 372.66 173.819C371.2 173.819 370.382 172.569 370.382 170.734ZM377.541 167.836H380.399V175.098H382.058V167.836H384.904V166.37H377.541V167.836ZM394.612 175.274C397.072 175.274 398.68 173.473 398.68 170.774C398.68 168.058 397.072 166.257 394.612 166.257C392.151 166.257 390.543 168.058 390.543 170.774C390.543 173.473 392.151 175.274 394.612 175.274ZM394.617 173.848C393.009 173.848 392.259 172.444 392.259 170.768C392.259 169.098 393.009 167.677 394.617 167.677C396.214 167.677 396.964 169.098 396.964 170.768C396.964 172.444 396.214 173.848 394.617 173.848ZM400.576 175.098H402.23V167.836H406.031V175.098H407.695V166.37H400.576V175.098ZM415.171 175.098H416.768V166.37H413.08C411.069 166.37 409.842 167.41 409.842 169.052C409.842 170.2 410.444 171.047 411.484 171.439L409.444 175.098H411.183L413.086 171.683H415.171V175.098ZM415.171 170.308H412.967C412.041 170.308 411.501 169.819 411.507 169.075C411.501 168.325 412.086 167.819 413.08 167.819H415.171V170.308ZM417.947 167.836H420.805V175.098H422.464V167.836H425.311V166.37H417.947V167.836ZM428.772 169.37V166.37H427.107V175.098H430.92C433.056 175.098 434.249 173.859 434.249 172.217C434.249 170.541 433.056 169.37 430.92 169.37H428.772ZM428.772 170.836H430.92C431.897 170.836 432.596 171.427 432.596 172.268C432.596 173.064 431.897 173.632 430.92 173.632H428.772V170.836ZM282.043 202.069H283.742V199.274C286.208 199.274 287.884 197.467 287.884 194.774C287.884 192.064 286.208 190.257 283.742 190.257V187.461H282.043V190.257C279.577 190.257 277.895 192.064 277.895 194.774C277.895 197.467 279.577 199.274 282.043 199.274V202.069ZM282.043 197.842C280.412 197.842 279.617 196.427 279.617 194.774C279.617 193.12 280.412 191.689 282.043 191.689V197.842ZM283.742 197.842V191.689C285.372 191.689 286.162 193.12 286.162 194.774C286.162 196.427 285.372 197.842 283.742 197.842ZM293.448 199.274C295.908 199.274 297.516 197.473 297.516 194.774C297.516 192.058 295.908 190.257 293.448 190.257C290.987 190.257 289.379 192.058 289.379 194.774C289.379 197.473 290.987 199.274 293.448 199.274ZM293.453 197.848C291.845 197.848 291.095 196.444 291.095 194.768C291.095 193.098 291.845 191.677 293.453 191.677C295.05 191.677 295.8 193.098 295.8 194.768C295.8 196.444 295.05 197.848 293.453 197.848ZM298.361 191.836H301.219V199.098H302.878V191.836H305.725V190.37H298.361V191.836ZM310.791 199.274C313.252 199.274 314.86 197.473 314.86 194.774C314.86 192.058 313.252 190.257 310.791 190.257C308.331 190.257 306.723 192.058 306.723 194.774C306.723 197.473 308.331 199.274 310.791 199.274ZM310.797 197.848C309.189 197.848 308.439 196.444 308.439 194.768C308.439 193.098 309.189 191.677 310.797 191.677C312.394 191.677 313.144 193.098 313.144 194.768C313.144 196.444 312.394 197.848 310.797 197.848ZM322.335 190.37H316.756V199.098H318.432V191.836H322.335V190.37ZM324.131 202.37H325.83V197.74H325.932C326.239 198.297 326.864 199.268 328.455 199.268C330.568 199.268 332.102 197.575 332.102 194.751C332.102 191.922 330.546 190.257 328.438 190.257C326.818 190.257 326.233 191.245 325.932 191.785H325.79V190.37H324.131V202.37ZM325.796 194.734C325.796 192.91 326.591 191.7 328.074 191.7C329.614 191.7 330.386 193.001 330.386 194.734C330.386 196.484 329.591 197.819 328.074 197.819C326.614 197.819 325.796 196.569 325.796 194.734ZM336.546 199.291C337.989 199.291 338.801 198.558 339.125 197.904H339.193V199.098H340.852V193.302C340.852 190.762 338.852 190.257 337.466 190.257C335.886 190.257 334.432 190.893 333.864 192.484L335.46 192.848C335.71 192.228 336.347 191.632 337.489 191.632C338.585 191.632 339.148 192.206 339.148 193.194V193.234C339.148 193.853 338.511 193.842 336.943 194.024C335.29 194.217 333.597 194.649 333.597 196.632C333.597 198.348 334.886 199.291 336.546 199.291ZM336.915 197.927C335.955 197.927 335.261 197.495 335.261 196.654C335.261 195.745 336.068 195.422 337.051 195.291C337.602 195.217 338.909 195.069 339.154 194.825V195.95C339.154 196.984 338.33 197.927 336.915 197.927ZM346.871 202.069H348.57V199.274C351.036 199.274 352.712 197.467 352.712 194.774C352.712 192.064 351.036 190.257 348.57 190.257V187.461H346.871V190.257C344.405 190.257 342.723 192.064 342.723 194.774C342.723 197.467 344.405 199.274 346.871 199.274V202.069ZM346.871 197.842C345.24 197.842 344.445 196.427 344.445 194.774C344.445 193.12 345.24 191.689 346.871 191.689V197.842ZM348.57 197.842V191.689C350.2 191.689 350.99 193.12 350.99 194.774C350.99 196.427 350.2 197.842 348.57 197.842ZM356.264 196.717V190.37H354.6V199.098H356.446L360.276 192.745V199.098H361.94V190.37H360.111L356.264 196.717ZM364.225 202.37H365.923V197.74H366.026C366.333 198.297 366.958 199.268 368.548 199.268C370.662 199.268 372.196 197.575 372.196 194.751C372.196 191.922 370.639 190.257 368.531 190.257C366.912 190.257 366.327 191.245 366.026 191.785H365.884V190.37H364.225V202.37ZM365.889 194.734C365.889 192.91 366.685 191.7 368.168 191.7C369.708 191.7 370.48 193.001 370.48 194.734C370.48 196.484 369.685 197.819 368.168 197.819C366.708 197.819 365.889 196.569 365.889 194.734ZM377.776 199.274C380.236 199.274 381.844 197.473 381.844 194.774C381.844 192.058 380.236 190.257 377.776 190.257C375.315 190.257 373.708 192.058 373.708 194.774C373.708 197.473 375.315 199.274 377.776 199.274ZM377.781 197.848C376.173 197.848 375.423 196.444 375.423 194.768C375.423 193.098 376.173 191.677 377.781 191.677C379.378 191.677 380.128 193.098 380.128 194.768C380.128 196.444 379.378 197.848 377.781 197.848ZM383.74 199.098H387.911C389.82 199.098 390.939 198.132 390.939 196.745C390.939 195.45 389.945 194.654 388.78 194.518C389.854 194.314 390.564 193.723 390.564 192.7C390.564 191.268 389.325 190.37 387.36 190.37H383.74V199.098ZM385.337 197.677V195.251H387.911C388.752 195.251 389.257 195.745 389.257 196.558C389.257 197.251 388.752 197.677 387.911 197.677H385.337ZM385.337 194.007V191.808H387.36C388.325 191.808 388.911 192.211 388.911 192.882C388.911 193.581 388.331 194.007 387.377 194.007H385.337ZM395.342 199.291C396.786 199.291 397.598 198.558 397.922 197.904H397.99V199.098H399.649V193.302C399.649 190.762 397.649 190.257 396.263 190.257C394.683 190.257 393.229 190.893 392.661 192.484L394.257 192.848C394.507 192.228 395.144 191.632 396.286 191.632C397.382 191.632 397.945 192.206 397.945 193.194V193.234C397.945 193.853 397.308 193.842 395.74 194.024C394.087 194.217 392.394 194.649 392.394 196.632C392.394 198.348 393.683 199.291 395.342 199.291ZM395.712 197.927C394.752 197.927 394.058 197.495 394.058 196.654C394.058 195.745 394.865 195.422 395.848 195.291C396.399 195.217 397.706 195.069 397.95 194.825V195.95C397.95 196.984 397.127 197.927 395.712 197.927ZM400.83 191.836H403.688V199.098H405.347V191.836H408.193V190.37H400.83V191.836ZM411.655 193.37V190.37H409.99V199.098H413.803C415.939 199.098 417.132 197.859 417.132 196.217C417.132 194.541 415.939 193.37 413.803 193.37H411.655ZM411.655 194.836H413.803C414.78 194.836 415.479 195.427 415.479 196.268C415.479 197.064 414.78 197.632 413.803 197.632H411.655V194.836ZM430.004 187.12C429.578 187.461 428.931 187.461 428.027 187.456C427.76 187.456 427.47 187.456 427.152 187.461C424.323 187.518 422.891 189.529 422.891 193.518V194.382C422.891 197.586 424.482 199.274 426.919 199.274C429.357 199.274 430.936 197.581 430.936 194.865C430.936 192.183 429.385 190.7 427.283 190.7C426.016 190.7 424.959 191.24 424.391 192.319H424.283C424.476 190.109 425.306 189.012 427.192 188.956C428.868 188.904 429.931 188.91 430.709 188.194L430.004 187.12ZM426.925 197.848C425.482 197.848 424.601 196.694 424.601 194.893C424.624 193.126 425.493 192.115 426.908 192.115C428.345 192.115 429.22 193.126 429.22 194.893C429.22 196.7 428.345 197.848 426.925 197.848ZM433.908 202.37C435.311 202.37 436.198 201.637 436.703 200.262L440.311 190.387L438.476 190.37L436.266 197.143H436.175L433.965 190.37H432.146L435.34 199.211L435.129 199.791C434.698 200.95 434.09 201.047 433.158 200.791L432.749 202.183C432.953 202.274 433.396 202.37 433.908 202.37ZM440.341 201.615H442.023V199.098H448.108V201.615H449.767V197.626H448.426V190.37H442.494L442.222 193.626C442.04 195.825 441.773 196.973 441.051 197.626H440.341V201.615ZM442.869 197.626C443.449 196.814 443.665 195.461 443.835 193.626L444.017 191.825H446.767V197.626H442.869ZM452.502 202.37C453.905 202.37 454.791 201.637 455.297 200.262L458.905 190.387L457.07 190.37L454.86 197.143H454.769L452.558 190.37H450.74L453.933 199.211L453.723 199.791C453.291 200.95 452.683 201.047 451.752 200.791L451.342 202.183C451.547 202.274 451.99 202.37 452.502 202.37ZM460.017 191.836H462.875V199.098H464.534V191.836H467.381V190.37H460.017V191.836ZM471.036 195.751H472.661V195.643C472.683 194.336 473.058 193.751 474.024 193.154C475.041 192.541 475.666 191.677 475.666 190.399C475.666 188.552 474.269 187.302 472.183 187.302C470.269 187.302 468.735 188.422 468.661 190.467H470.388C470.456 189.262 471.314 188.734 472.183 188.734C473.149 188.734 473.933 189.376 473.933 190.382C473.933 191.228 473.405 191.825 472.729 192.245C471.672 192.893 471.047 193.535 471.036 195.643V195.751ZM471.894 199.206C472.513 199.206 473.03 198.7 473.03 198.069C473.03 197.45 472.513 196.939 471.894 196.939C471.269 196.939 470.757 197.45 470.757 198.069C470.757 198.7 471.269 199.206 471.894 199.206Z" fill="white"/>
<path d="M322.293 259.098C322.293 250.813 329.009 244.098 337.293 244.098H517.293C525.578 244.098 532.293 250.813 532.293 259.098V317.098C532.293 325.382 525.578 332.098 517.293 332.098H322.293V259.098Z" fill="white"/>
<path d="M343.759 282.098H345.515V277.024H351.316V282.098H353.078V270.461H351.316V275.518H345.515V270.461H343.759V282.098ZM357.163 279.717V273.37H355.498V282.098H357.345L361.174 275.745V282.098H362.839V273.37H361.009L357.163 279.717ZM372.129 273.37H370.47V277.717C369.896 277.87 369.316 277.961 368.651 277.961C367.492 277.961 366.776 277.439 366.776 276.206V273.353H365.123V276.206C365.123 278.387 366.492 279.427 368.651 279.427C369.311 279.427 369.913 279.336 370.47 279.194V282.098H372.129V273.37ZM378.15 282.274C380.053 282.274 381.4 281.336 381.786 279.916L380.178 279.626C379.872 280.45 379.133 280.87 378.167 280.87C376.712 280.87 375.735 279.927 375.69 278.245H381.894V277.643C381.894 274.49 380.008 273.257 378.031 273.257C375.599 273.257 373.997 275.109 373.997 277.791C373.997 280.501 375.576 282.274 378.15 282.274ZM375.695 276.973C375.764 275.734 376.661 274.66 378.042 274.66C379.36 274.66 380.224 275.637 380.23 276.973H375.695ZM389.359 273.37H383.779V282.098H385.455V274.836H389.359V273.37ZM394.424 282.274C396.884 282.274 398.492 280.473 398.492 277.774C398.492 275.058 396.884 273.257 394.424 273.257C391.964 273.257 390.356 275.058 390.356 277.774C390.356 280.473 391.964 282.274 394.424 282.274ZM394.43 280.848C392.822 280.848 392.072 279.444 392.072 277.768C392.072 276.098 392.822 274.677 394.43 274.677C396.026 274.677 396.776 276.098 396.776 277.768C396.776 279.444 396.026 280.848 394.43 280.848ZM406.288 273.37H404.623V282.098H406.288V278.473H410.066V282.098H411.725V273.37H410.066V277.001H406.288V273.37ZM417.759 282.274C419.663 282.274 421.009 281.336 421.396 279.916L419.788 279.626C419.481 280.45 418.742 280.87 417.776 280.87C416.322 280.87 415.345 279.927 415.299 278.245H421.504V277.643C421.504 274.49 419.617 273.257 417.64 273.257C415.208 273.257 413.606 275.109 413.606 277.791C413.606 280.501 415.186 282.274 417.759 282.274ZM415.305 276.973C415.373 275.734 416.271 274.66 417.651 274.66C418.97 274.66 419.833 275.637 419.839 276.973H415.305ZM427.623 282.098H429.276V274.836H433.078V282.098H434.742V273.37H427.623V282.098ZM440.69 282.274C443.15 282.274 444.758 280.473 444.758 277.774C444.758 275.058 443.15 273.257 440.69 273.257C438.23 273.257 436.622 275.058 436.622 277.774C436.622 280.473 438.23 282.274 440.69 282.274ZM440.695 280.848C439.087 280.848 438.337 279.444 438.337 277.768C438.337 276.098 439.087 274.677 440.695 274.677C442.292 274.677 443.042 276.098 443.042 277.768C443.042 279.444 442.292 280.848 440.695 280.848ZM448.319 273.37H446.654V282.098H448.319V278.473H452.097V282.098H453.757V273.37H452.097V277.001H448.319V273.37ZM457.694 279.717V273.37H456.029V282.098H457.876L461.705 275.745V282.098H463.37V273.37H461.541L457.694 279.717ZM470.552 279.995L467.791 273.37H465.654V282.098H467.319V275.751L469.921 282.098H471.183L473.83 275.774V282.098H475.484V273.37H473.37L470.552 279.995ZM480.288 282.291C481.731 282.291 482.543 281.558 482.867 280.904H482.936V282.098H484.595V276.302C484.595 273.762 482.595 273.257 481.208 273.257C479.629 273.257 478.174 273.893 477.606 275.484L479.203 275.848C479.453 275.228 480.089 274.632 481.231 274.632C482.328 274.632 482.89 275.206 482.89 276.194V276.234C482.89 276.853 482.254 276.842 480.686 277.024C479.032 277.217 477.339 277.649 477.339 279.632C477.339 281.348 478.629 282.291 480.288 282.291ZM480.657 280.927C479.697 280.927 479.004 280.495 479.004 279.654C479.004 278.745 479.811 278.422 480.793 278.291C481.345 278.217 482.651 278.069 482.896 277.825V278.95C482.896 279.984 482.072 280.927 480.657 280.927ZM487.977 273.37H486.278V282.098H487.977V278.541H489.92C490.198 280.797 491.715 282.274 493.909 282.274C496.352 282.274 497.948 280.45 497.948 277.768C497.948 275.064 496.352 273.257 493.909 273.257C491.687 273.257 490.17 274.757 489.914 277.064H487.977V273.37ZM493.909 280.819C492.266 280.819 491.534 279.433 491.534 277.768C491.534 276.098 492.266 274.7 493.909 274.7C495.556 274.7 496.284 276.103 496.284 277.768C496.284 279.427 495.556 280.819 493.909 280.819ZM504.186 282.098H508.356C510.265 282.098 511.384 281.132 511.384 279.745C511.384 278.45 510.39 277.654 509.225 277.518C510.299 277.314 511.009 276.723 511.009 275.7C511.009 274.268 509.771 273.37 507.805 273.37H504.186V282.098ZM505.782 280.677V278.251H508.356C509.197 278.251 509.703 278.745 509.703 279.558C509.703 280.251 509.197 280.677 508.356 280.677H505.782ZM505.782 277.007V274.808H507.805C508.771 274.808 509.356 275.211 509.356 275.882C509.356 276.581 508.776 277.007 507.822 277.007H505.782ZM362.178 298.728C363.456 298.74 364.144 299.853 364.308 301.058H361.365V302.365H364.314C364.166 303.569 363.467 304.762 362.178 304.768C361.206 304.762 360.388 303.95 360.388 303.018H358.786C358.786 304.887 360.2 306.257 362.178 306.257C364.649 306.257 366.007 304.262 366.007 301.893V301.609C366.007 299.245 364.644 297.245 362.178 297.245C360.365 297.245 358.786 298.62 358.786 300.257H360.388C360.388 299.399 361.297 298.74 362.178 298.728ZM366.845 298.836H369.703V306.098H371.362V298.836H374.209V297.37H366.845V298.836ZM377.671 303.717V297.37H376.006V306.098H377.852L381.682 299.745V306.098H383.347V297.37H381.517L377.671 303.717ZM386.972 297.37H385.108L387.79 301.734L385.074 306.098H386.938L388.898 302.836L390.864 306.098H392.722L389.977 301.734L392.699 297.37H390.841L388.898 300.768L386.972 297.37ZM397.825 308.615H399.507V306.098H405.592V308.615H407.252V304.626H405.911V297.37H399.979L399.706 300.626C399.524 302.825 399.257 303.973 398.536 304.626H397.825V308.615ZM400.354 304.626C400.933 303.814 401.149 302.461 401.32 300.626L401.502 298.825H404.252V304.626H400.354ZM412.588 306.274C415.048 306.274 416.656 304.473 416.656 301.774C416.656 299.058 415.048 297.257 412.588 297.257C410.128 297.257 408.52 299.058 408.52 301.774C408.52 304.473 410.128 306.274 412.588 306.274ZM412.594 304.848C410.986 304.848 410.236 303.444 410.236 301.768C410.236 300.098 410.986 298.677 412.594 298.677C414.19 298.677 414.94 300.098 414.94 301.768C414.94 303.444 414.19 304.848 412.594 304.848ZM418.553 306.098H420.252V302.609H421.354L423.985 306.098H426.092L422.672 301.615L426.053 297.37H423.95L421.07 301.029H420.252V297.37H418.553V306.098ZM428.533 309.37C429.936 309.37 430.823 308.637 431.328 307.262L434.936 297.387L433.101 297.37L430.891 304.143H430.8L428.59 297.37H426.771L429.965 306.211L429.754 306.791C429.323 307.95 428.715 308.047 427.783 307.791L427.374 309.183C427.578 309.274 428.021 309.37 428.533 309.37ZM441.435 303.995L438.673 297.37H436.537V306.098H438.202V299.751L440.804 306.098H442.065L444.713 299.774V306.098H446.367V297.37H444.253L441.435 303.995ZM452.392 306.274C454.296 306.274 455.642 305.336 456.029 303.916L454.421 303.626C454.114 304.45 453.375 304.87 452.409 304.87C450.955 304.87 449.977 303.927 449.932 302.245H456.136V301.643C456.136 298.49 454.25 297.257 452.273 297.257C449.841 297.257 448.239 299.109 448.239 301.791C448.239 304.501 449.818 306.274 452.392 306.274ZM449.938 300.973C450.006 299.734 450.904 298.66 452.284 298.66C453.602 298.66 454.466 299.637 454.472 300.973H449.938ZM459.686 297.37H458.021V306.098H459.686V302.473H463.465V306.098H465.124V297.37H463.465V301.001H459.686V297.37ZM466.314 298.836H469.172V306.098H470.831V298.836H473.678V297.37H466.314V298.836ZM477.608 306.291C479.051 306.291 479.864 305.558 480.188 304.904H480.256V306.098H481.915V300.302C481.915 297.762 479.915 297.257 478.529 297.257C476.949 297.257 475.494 297.893 474.926 299.484L476.523 299.848C476.773 299.228 477.409 298.632 478.551 298.632C479.648 298.632 480.21 299.206 480.21 300.194V300.234C480.21 300.853 479.574 300.842 478.006 301.024C476.352 301.217 474.659 301.649 474.659 303.632C474.659 305.348 475.949 306.291 477.608 306.291ZM477.977 304.927C477.017 304.927 476.324 304.495 476.324 303.654C476.324 302.745 477.131 302.422 478.114 302.291C478.665 302.217 479.972 302.069 480.216 301.825V302.95C480.216 303.984 479.392 304.927 477.977 304.927ZM485.519 297.37H483.655L486.337 301.734L483.621 306.098H485.485L487.445 302.836L489.411 306.098H491.269L488.524 301.734L491.246 297.37H489.388L487.445 300.768L485.519 297.37ZM495.132 294.461H493.263L493.411 302.751H494.985L495.132 294.461ZM494.195 306.206C494.814 306.206 495.331 305.7 495.331 305.069C495.331 304.45 494.814 303.939 494.195 303.939C493.57 303.939 493.058 304.45 493.058 305.069C493.058 305.7 493.57 306.206 494.195 306.206Z" fill="#1E1E1E"/>
<path d="M322.293 332.098H321.293V333.098H322.293V332.098ZM337.293 245.098H517.293V243.098H337.293V245.098ZM531.293 259.098V317.098H533.293V259.098H531.293ZM517.293 331.098H322.293V333.098H517.293V331.098ZM323.293 332.098V259.098H321.293V332.098H323.293ZM531.293 317.098C531.293 324.83 525.025 331.098 517.293 331.098V333.098C526.13 333.098 533.293 325.934 533.293 317.098H531.293ZM517.293 245.098C525.025 245.098 531.293 251.366 531.293 259.098H533.293C533.293 250.261 526.13 243.098 517.293 243.098V245.098ZM337.293 243.098C328.457 243.098 321.293 250.261 321.293 259.098H323.293C323.293 251.366 329.561 245.098 337.293 245.098V243.098Z" fill="#E0E0E0"/>
<path d="M124.229 93.0977C124.229 84.8134 130.945 78.0977 139.229 78.0977H278.229C286.514 78.0977 293.229 84.8134 293.229 93.0977V151.098C293.229 159.382 286.514 166.098 278.229 166.098H124.229V93.0977Z" fill="white"/>
<path d="M144.955 118.91H146.637V116.098H154.45V118.893H156.131V114.609H154.813V104.461H147.637L147.364 109.376C147.188 112.615 146.501 113.95 145.722 114.609H144.955V118.91ZM147.791 114.609C148.455 113.547 148.904 111.836 149.046 109.376L149.228 105.973H153.131V114.609H147.791ZM161.595 116.274C164.055 116.274 165.663 114.473 165.663 111.774C165.663 109.058 164.055 107.257 161.595 107.257C159.134 107.257 157.526 109.058 157.526 111.774C157.526 114.473 159.134 116.274 161.595 116.274ZM161.6 114.848C159.992 114.848 159.242 113.444 159.242 111.768C159.242 110.098 159.992 108.677 161.6 108.677C163.197 108.677 163.947 110.098 163.947 111.768C163.947 113.444 163.197 114.848 161.6 114.848ZM167.559 119.37H169.258V114.74H169.36C169.667 115.297 170.292 116.268 171.883 116.268C173.997 116.268 175.531 114.575 175.531 111.751C175.531 108.922 173.974 107.257 171.866 107.257C170.247 107.257 169.661 108.245 169.36 108.785H169.218V107.37H167.559V119.37ZM169.224 111.734C169.224 109.91 170.019 108.7 171.502 108.7C173.042 108.7 173.815 110.001 173.815 111.734C173.815 113.484 173.019 114.819 171.502 114.819C170.042 114.819 169.224 113.569 169.224 111.734ZM181.11 116.274C183.57 116.274 185.178 114.473 185.178 111.774C185.178 109.058 183.57 107.257 181.11 107.257C178.65 107.257 177.042 109.058 177.042 111.774C177.042 114.473 178.65 116.274 181.11 116.274ZM181.116 114.848C179.508 114.848 178.758 113.444 178.758 111.768C178.758 110.098 179.508 108.677 181.116 108.677C182.712 108.677 183.462 110.098 183.462 111.768C183.462 113.444 182.712 114.848 181.116 114.848ZM192.654 107.37H187.075V116.098H188.751V108.836H192.654V107.37ZM197.72 116.274C200.18 116.274 201.788 114.473 201.788 111.774C201.788 109.058 200.18 107.257 197.72 107.257C195.259 107.257 193.651 109.058 193.651 111.774C193.651 114.473 195.259 116.274 197.72 116.274ZM197.725 114.848C196.117 114.848 195.367 113.444 195.367 111.768C195.367 110.098 196.117 108.677 197.725 108.677C199.322 108.677 200.072 110.098 200.072 111.768C200.072 113.444 199.322 114.848 197.725 114.848ZM207.362 116.098H209.379L212.117 112.461H212.685V116.098H214.384V112.461H214.953L217.674 116.098H219.691L216.328 111.632L219.651 107.37H217.674L214.975 110.995H214.384V107.37H212.685V110.995H212.078L209.379 107.37H207.401L210.742 111.632L207.362 116.098ZM224.82 116.274C226.724 116.274 228.07 115.336 228.457 113.916L226.849 113.626C226.542 114.45 225.803 114.87 224.837 114.87C223.383 114.87 222.406 113.927 222.36 112.245H228.565V111.643C228.565 108.49 226.678 107.257 224.701 107.257C222.269 107.257 220.667 109.109 220.667 111.791C220.667 114.501 222.247 116.274 224.82 116.274ZM222.366 110.973C222.434 109.734 223.332 108.66 224.712 108.66C226.031 108.66 226.894 109.637 226.9 110.973H222.366ZM237.684 108.728C238.962 108.74 239.65 109.853 239.815 111.058H236.872V112.365H239.82C239.673 113.569 238.974 114.762 237.684 114.768C236.712 114.762 235.894 113.95 235.894 113.018H234.292C234.292 114.887 235.707 116.257 237.684 116.257C240.156 116.257 241.514 114.262 241.514 111.893V111.609C241.514 109.245 240.15 107.245 237.684 107.245C235.872 107.245 234.292 108.62 234.292 110.257H235.894C235.894 109.399 236.803 108.74 237.684 108.728ZM242.352 108.836H245.21V116.098H246.869V108.836H249.715V107.37H242.352V108.836ZM254.782 116.274C257.242 116.274 258.85 114.473 258.85 111.774C258.85 109.058 257.242 107.257 254.782 107.257C252.322 107.257 250.714 109.058 250.714 111.774C250.714 114.473 252.322 116.274 254.782 116.274ZM254.788 114.848C253.18 114.848 252.43 113.444 252.43 111.768C252.43 110.098 253.18 108.677 254.788 108.677C256.384 108.677 257.134 110.098 257.134 111.768C257.134 113.444 256.384 114.848 254.788 114.848ZM264.981 116.098H269.151C271.06 116.098 272.18 115.132 272.18 113.745C272.18 112.45 271.185 111.654 270.021 111.518C271.095 111.314 271.805 110.723 271.805 109.7C271.805 108.268 270.566 107.37 268.6 107.37H264.981V116.098ZM266.578 114.677V112.251H269.151C269.992 112.251 270.498 112.745 270.498 113.558C270.498 114.251 269.992 114.677 269.151 114.677H266.578ZM266.578 111.007V108.808H268.6C269.566 108.808 270.151 109.211 270.151 109.882C270.151 110.581 269.572 111.007 268.617 111.007H266.578ZM153.239 140.098H154.892V132.836H158.693V140.098H160.358V131.37H153.239V140.098ZM162.629 143.37H164.328V138.74H164.43C164.737 139.297 165.362 140.268 166.953 140.268C169.067 140.268 170.601 138.575 170.601 135.751C170.601 132.922 169.044 131.257 166.936 131.257C165.317 131.257 164.732 132.245 164.43 132.785H164.288V131.37H162.629V143.37ZM164.294 135.734C164.294 133.91 165.09 132.7 166.573 132.7C168.112 132.7 168.885 134.001 168.885 135.734C168.885 137.484 168.09 138.819 166.573 138.819C165.112 138.819 164.294 137.569 164.294 135.734ZM176.18 140.274C178.641 140.274 180.249 138.473 180.249 135.774C180.249 133.058 178.641 131.257 176.18 131.257C173.72 131.257 172.112 133.058 172.112 135.774C172.112 138.473 173.72 140.274 176.18 140.274ZM176.186 138.848C174.578 138.848 173.828 137.444 173.828 135.768C173.828 134.098 174.578 132.677 176.186 132.677C177.783 132.677 178.533 134.098 178.533 135.768C178.533 137.444 177.783 138.848 176.186 138.848ZM182.145 140.098H183.844V136.609H184.946L187.577 140.098H189.685L186.264 135.615L189.645 131.37H187.543L184.662 135.029H183.844V131.37H182.145V140.098ZM193.544 140.291C194.987 140.291 195.8 139.558 196.124 138.904H196.192V140.098H197.851V134.302C197.851 131.762 195.851 131.257 194.465 131.257C192.885 131.257 191.43 131.893 190.862 133.484L192.459 133.848C192.709 133.228 193.345 132.632 194.487 132.632C195.584 132.632 196.146 133.206 196.146 134.194V134.234C196.146 134.853 195.51 134.842 193.942 135.024C192.288 135.217 190.595 135.649 190.595 137.632C190.595 139.348 191.885 140.291 193.544 140.291ZM193.913 138.927C192.953 138.927 192.26 138.495 192.26 137.654C192.26 136.745 193.067 136.422 194.05 136.291C194.601 136.217 195.908 136.069 196.152 135.825V136.95C196.152 137.984 195.328 138.927 193.913 138.927ZM199.031 132.836H201.889V140.098H203.548V132.836H206.395V131.37H199.031V132.836ZM219.159 128.12C218.733 128.461 218.085 128.461 217.182 128.456C216.915 128.456 216.625 128.456 216.307 128.461C213.477 128.518 212.046 130.529 212.046 134.518V135.382C212.046 138.586 213.636 140.274 216.074 140.274C218.511 140.274 220.091 138.581 220.091 135.865C220.091 133.183 218.54 131.7 216.438 131.7C215.171 131.7 214.114 132.24 213.546 133.319H213.438C213.631 131.109 214.46 130.012 216.347 129.956C218.023 129.904 219.085 129.91 219.864 129.194L219.159 128.12ZM216.08 138.848C214.636 138.848 213.756 137.694 213.756 135.893C213.778 134.126 214.648 133.115 216.063 133.115C217.5 133.115 218.375 134.126 218.375 135.893C218.375 137.7 217.5 138.848 216.08 138.848ZM221.989 143.37H223.688V138.74H223.79C224.097 139.297 224.722 140.268 226.313 140.268C228.426 140.268 229.96 138.575 229.96 135.751C229.96 132.922 228.403 131.257 226.296 131.257C224.676 131.257 224.091 132.245 223.79 132.785H223.648V131.37H221.989V143.37ZM223.653 135.734C223.653 133.91 224.449 132.7 225.932 132.7C227.472 132.7 228.244 134.001 228.244 135.734C228.244 137.484 227.449 138.819 225.932 138.819C224.472 138.819 223.653 137.569 223.653 135.734ZM234.403 140.291C235.847 140.291 236.659 139.558 236.983 138.904H237.051V140.098H238.71V134.302C238.71 131.762 236.71 131.257 235.324 131.257C233.744 131.257 232.29 131.893 231.722 133.484L233.318 133.848C233.568 133.228 234.205 132.632 235.347 132.632C236.443 132.632 237.006 133.206 237.006 134.194V134.234C237.006 134.853 236.369 134.842 234.801 135.024C233.148 135.217 231.455 135.649 231.455 137.632C231.455 139.348 232.744 140.291 234.403 140.291ZM234.773 138.927C233.813 138.927 233.119 138.495 233.119 137.654C233.119 136.745 233.926 136.422 234.909 136.291C235.46 136.217 236.767 136.069 237.011 135.825V136.95C237.011 137.984 236.188 138.927 234.773 138.927ZM239.891 132.836H242.749V140.098H244.408V132.836H247.254V131.37H239.891V132.836ZM250.716 134.37V131.37H249.051V140.098H252.864C255 140.098 256.193 138.859 256.193 137.217C256.193 135.541 255 134.37 252.864 134.37H250.716ZM250.716 135.836H252.864C253.841 135.836 254.54 136.427 254.54 137.268C254.54 138.064 253.841 138.632 252.864 138.632H250.716V135.836ZM259.956 136.751H261.581V136.643C261.604 135.336 261.979 134.751 262.945 134.154C263.962 133.541 264.587 132.677 264.587 131.399C264.587 129.552 263.189 128.302 261.104 128.302C259.189 128.302 257.655 129.422 257.581 131.467H259.308C259.377 130.262 260.234 129.734 261.104 129.734C262.07 129.734 262.854 130.376 262.854 131.382C262.854 132.228 262.325 132.825 261.649 133.245C260.592 133.893 259.967 134.535 259.956 136.643V136.751ZM260.814 140.206C261.433 140.206 261.95 139.7 261.95 139.069C261.95 138.45 261.433 137.939 260.814 137.939C260.189 137.939 259.678 138.45 259.678 139.069C259.678 139.7 260.189 140.206 260.814 140.206Z" fill="#1E1E1E"/>
<path d="M124.229 166.098H123.229V167.098H124.229V166.098ZM139.229 79.0977H278.229V77.0977H139.229V79.0977ZM292.229 93.0977V151.098H294.229V93.0977H292.229ZM278.229 165.098H124.229V167.098H278.229V165.098ZM125.229 166.098V93.0977H123.229V166.098H125.229ZM292.229 151.098C292.229 158.83 285.961 165.098 278.229 165.098V167.098C287.066 167.098 294.229 159.934 294.229 151.098H292.229ZM278.229 79.0977C285.961 79.0977 292.229 85.3657 292.229 93.0977H294.229C294.229 84.2611 287.066 77.0977 278.229 77.0977V79.0977ZM139.229 77.0977C130.393 77.0977 123.229 84.2611 123.229 93.0977H125.229C125.229 85.3657 131.498 79.0977 139.229 79.0977V77.0977Z" fill="#E0E0E0"/>
<path d="M154.084 334.098C154.084 325.813 160.8 319.098 169.084 319.098H322.084C330.368 319.098 337.084 325.813 337.084 334.098V392.098C337.084 400.382 330.368 407.098 322.084 407.098H154.084V334.098Z" fill="white"/>
<path d="M175.259 353.404C175.48 355.609 176.923 357.257 179.73 357.257C182.537 357.257 184.333 355.16 184.333 351.899V350.689C184.333 347.427 182.514 345.302 179.634 345.302C176.895 345.302 175.48 346.973 175.253 349.223H177.043C177.225 347.711 177.935 346.814 179.634 346.814C181.503 346.814 182.548 348.325 182.554 350.677H178.264V352.166H182.548C182.475 354.217 181.577 355.768 179.73 355.768C177.986 355.768 177.242 354.939 177.043 353.404H175.259ZM185.894 349.836H188.752V357.098H190.411V349.836H193.257V348.37H185.894V349.836ZM198.324 357.274C200.784 357.274 202.392 355.473 202.392 352.774C202.392 350.058 200.784 348.257 198.324 348.257C195.864 348.257 194.256 350.058 194.256 352.774C194.256 355.473 195.864 357.274 198.324 357.274ZM198.33 355.848C196.722 355.848 195.972 354.444 195.972 352.768C195.972 351.098 196.722 349.677 198.33 349.677C199.926 349.677 200.676 351.098 200.676 352.768C200.676 354.444 199.926 355.848 198.33 355.848ZM208.523 357.098H212.693C214.602 357.098 215.722 356.132 215.722 354.745C215.722 353.45 214.727 352.654 213.563 352.518C214.637 352.314 215.347 351.723 215.347 350.7C215.347 349.268 214.108 348.37 212.142 348.37H208.523V357.098ZM210.119 355.677V353.251H212.693C213.534 353.251 214.04 353.745 214.04 354.558C214.04 355.251 213.534 355.677 212.693 355.677H210.119ZM210.119 352.007V349.808H212.142C213.108 349.808 213.693 350.211 213.693 350.882C213.693 351.581 213.114 352.007 212.159 352.007H210.119ZM221.262 357.274C223.324 357.274 224.659 356.035 224.847 354.336H223.193C222.977 355.279 222.244 355.836 221.273 355.836C219.835 355.836 218.909 354.637 218.909 352.734C218.909 350.865 219.852 349.689 221.273 349.689C222.352 349.689 223.012 350.37 223.193 351.189H224.847C224.665 349.427 223.227 348.257 221.244 348.257C218.784 348.257 217.193 350.109 217.193 352.774C217.193 355.404 218.727 357.274 221.262 357.274ZM230.425 357.274C232.328 357.274 233.675 356.336 234.061 354.916L232.453 354.626C232.146 355.45 231.408 355.87 230.442 355.87C228.987 355.87 228.01 354.927 227.965 353.245H234.169V352.643C234.169 349.49 232.283 348.257 230.306 348.257C227.874 348.257 226.271 350.109 226.271 352.791C226.271 355.501 227.851 357.274 230.425 357.274ZM227.97 351.973C228.039 350.734 228.936 349.66 230.317 349.66C231.635 349.66 232.499 350.637 232.504 351.973H227.97ZM241.953 348.37H240.289V357.098H241.953V353.473H245.732V357.098H247.391V348.37H245.732V352.001H241.953V348.37ZM252.203 357.291C253.646 357.291 254.459 356.558 254.783 355.904H254.851V357.098H256.51V351.302C256.51 348.762 254.51 348.257 253.124 348.257C251.544 348.257 250.09 348.893 249.521 350.484L251.118 350.848C251.368 350.228 252.004 349.632 253.146 349.632C254.243 349.632 254.806 350.206 254.806 351.194V351.234C254.806 351.853 254.169 351.842 252.601 352.024C250.948 352.217 249.254 352.649 249.254 354.632C249.254 356.348 250.544 357.291 252.203 357.291ZM252.573 355.927C251.612 355.927 250.919 355.495 250.919 354.654C250.919 353.745 251.726 353.422 252.709 353.291C253.26 353.217 254.567 353.069 254.811 352.825V353.95C254.811 354.984 253.987 355.927 252.573 355.927ZM263.007 357.098H264.661V349.836H268.462V357.098H270.127V348.37H263.007V357.098ZM272.398 360.37H274.097V355.74H274.199C274.506 356.297 275.131 357.268 276.722 357.268C278.835 357.268 280.369 355.575 280.369 352.751C280.369 349.922 278.813 348.257 276.705 348.257C275.085 348.257 274.5 349.245 274.199 349.785H274.057V348.37H272.398V360.37ZM274.063 352.734C274.063 350.91 274.858 349.7 276.341 349.7C277.881 349.7 278.654 351.001 278.654 352.734C278.654 354.484 277.858 355.819 276.341 355.819C274.881 355.819 274.063 354.569 274.063 352.734ZM285.949 357.274C288.409 357.274 290.017 355.473 290.017 352.774C290.017 350.058 288.409 348.257 285.949 348.257C283.489 348.257 281.881 350.058 281.881 352.774C281.881 355.473 283.489 357.274 285.949 357.274ZM285.955 355.848C284.347 355.848 283.597 354.444 283.597 352.768C283.597 351.098 284.347 349.677 285.955 349.677C287.551 349.677 288.301 351.098 288.301 352.768C288.301 354.444 287.551 355.848 285.955 355.848ZM291.914 357.098H293.612V353.609H294.715L297.345 357.098H299.453L296.033 352.615L299.414 348.37H297.311L294.431 352.029H293.612V348.37H291.914V357.098ZM303.313 357.291C304.756 357.291 305.568 356.558 305.892 355.904H305.96V357.098H307.619V351.302C307.619 348.762 305.619 348.257 304.233 348.257C302.654 348.257 301.199 348.893 300.631 350.484L302.227 350.848C302.477 350.228 303.114 349.632 304.256 349.632C305.352 349.632 305.915 350.206 305.915 351.194V351.234C305.915 351.853 305.279 351.842 303.71 352.024C302.057 352.217 300.364 352.649 300.364 354.632C300.364 356.348 301.654 357.291 303.313 357.291ZM303.682 355.927C302.722 355.927 302.029 355.495 302.029 354.654C302.029 353.745 302.835 353.422 303.818 353.291C304.369 353.217 305.676 353.069 305.921 352.825V353.95C305.921 354.984 305.097 355.927 303.682 355.927ZM308.8 349.836H311.658V357.098H313.317V349.836H316.164V348.37H308.8V349.836ZM196.694 378.995L193.933 372.37H191.796V381.098H193.461V374.751L196.063 381.098H197.325L199.972 374.774V381.098H201.626V372.37H199.512L196.694 378.995ZM207.566 381.274C210.026 381.274 211.634 379.473 211.634 376.774C211.634 374.058 210.026 372.257 207.566 372.257C205.106 372.257 203.498 374.058 203.498 376.774C203.498 379.473 205.106 381.274 207.566 381.274ZM207.572 379.848C205.964 379.848 205.214 378.444 205.214 376.768C205.214 375.098 205.964 373.677 207.572 373.677C209.169 373.677 209.919 375.098 209.919 376.768C209.919 378.444 209.169 379.848 207.572 379.848ZM212.615 381.098H214.632L217.37 377.461H217.938V381.098H219.637V377.461H220.205L222.927 381.098H224.944L221.58 376.632L224.904 372.37H222.927L220.228 375.995H219.637V372.37H217.938V375.995H217.33L214.632 372.37H212.654L215.995 376.632L212.615 381.098ZM228.336 372.37H226.671V381.098H228.336V377.473H232.115V381.098H233.774V372.37H232.115V376.001H228.336V372.37ZM239.722 381.274C242.183 381.274 243.791 379.473 243.791 376.774C243.791 374.058 242.183 372.257 239.722 372.257C237.262 372.257 235.654 374.058 235.654 376.774C235.654 379.473 237.262 381.274 239.722 381.274ZM239.728 379.848C238.12 379.848 237.37 378.444 237.37 376.768C237.37 375.098 238.12 373.677 239.728 373.677C241.325 373.677 242.075 375.098 242.075 376.768C242.075 378.444 241.325 379.848 239.728 379.848ZM249.921 381.098H254.092C256.001 381.098 257.12 380.132 257.12 378.745C257.12 377.45 256.126 376.654 254.961 376.518C256.035 376.314 256.745 375.723 256.745 374.7C256.745 373.268 255.507 372.37 253.541 372.37H249.921V381.098ZM251.518 379.677V377.251H254.092C254.933 377.251 255.438 377.745 255.438 378.558C255.438 379.251 254.933 379.677 254.092 379.677H251.518ZM251.518 376.007V373.808H253.541C254.507 373.808 255.092 374.211 255.092 374.882C255.092 375.581 254.512 376.007 253.558 376.007H251.518ZM258.467 378.791C258.518 380.314 259.944 381.274 261.882 381.274C263.87 381.274 265.308 380.274 265.308 378.672C265.308 377.535 264.586 376.694 263.575 376.626V376.535C264.49 376.274 265.12 375.66 265.12 374.7C265.12 373.268 263.893 372.257 261.95 372.257C260.086 372.257 258.717 373.251 258.683 374.717H260.399C260.433 374.064 261.109 373.609 262.035 373.609C262.95 373.609 263.484 374.086 263.484 374.797C263.484 375.461 263.007 375.95 262.046 375.95H260.626V377.285H262.046C263.012 377.285 263.632 377.819 263.632 378.609C263.632 379.501 262.842 379.904 261.865 379.904C260.904 379.904 260.257 379.507 260.205 378.791H258.467ZM272.267 381.098H273.863V372.37H270.176C268.164 372.37 266.937 373.41 266.937 375.052C266.937 376.2 267.539 377.047 268.579 377.439L266.539 381.098H268.278L270.181 377.683H272.267V381.098ZM272.267 376.308H270.062C269.136 376.308 268.596 375.819 268.602 375.075C268.596 374.325 269.181 373.819 270.176 373.819H272.267V376.308ZM275.042 373.836H277.9V381.098H279.559V373.836H282.406V372.37H275.042V373.836ZM285.867 375.37V372.37H284.203V381.098H288.015C290.151 381.098 291.345 379.859 291.345 378.217C291.345 376.541 290.151 375.37 288.015 375.37H285.867ZM285.867 376.836H288.015C288.992 376.836 289.691 377.427 289.691 378.268C289.691 379.064 288.992 379.632 288.015 379.632H285.867V376.836ZM295.107 377.751H296.732V377.643C296.755 376.336 297.13 375.751 298.096 375.154C299.113 374.541 299.738 373.677 299.738 372.399C299.738 370.552 298.34 369.302 296.255 369.302C294.34 369.302 292.806 370.422 292.732 372.467H294.46C294.528 371.262 295.386 370.734 296.255 370.734C297.221 370.734 298.005 371.376 298.005 372.382C298.005 373.228 297.477 373.825 296.801 374.245C295.744 374.893 295.119 375.535 295.107 377.643V377.751ZM295.965 381.206C296.585 381.206 297.102 380.7 297.102 380.069C297.102 379.45 296.585 378.939 295.965 378.939C295.34 378.939 294.829 379.45 294.829 380.069C294.829 380.7 295.34 381.206 295.965 381.206Z" fill="#1E1E1E"/>
<path d="M154.084 407.098H153.084V408.098H154.084V407.098ZM169.084 320.098H322.084V318.098H169.084V320.098ZM336.084 334.098V392.098H338.084V334.098H336.084ZM322.084 406.098H154.084V408.098H322.084V406.098ZM155.084 407.098V334.098H153.084V407.098H155.084ZM336.084 392.098C336.084 399.83 329.816 406.098 322.084 406.098V408.098C330.921 408.098 338.084 400.934 338.084 392.098H336.084ZM322.084 320.098C329.816 320.098 336.084 326.366 336.084 334.098H338.084C338.084 325.261 330.921 318.098 322.084 318.098V320.098ZM169.084 318.098C160.247 318.098 153.084 325.261 153.084 334.098H155.084C155.084 326.366 161.352 320.098 169.084 320.098V318.098Z" fill="#E0E0E0"/>
<path d="M18.084 279.098C18.084 270.813 24.7997 264.098 33.084 264.098H203.084C211.368 264.098 218.084 270.813 218.084 279.098V313.098C218.084 321.382 211.368 328.098 203.084 328.098H18.084V279.098Z" fill="white"/>
<path d="M38.7708 304.91H40.4526V302.098H48.2651V304.893H49.9469V300.609H48.6287V290.461H41.4526L41.1799 295.376C41.0037 298.615 40.3162 299.95 39.5378 300.609H38.7708V304.91ZM41.606 300.609C42.2708 299.547 42.7196 297.836 42.8617 295.376L43.0435 291.973H46.9469V300.609H41.606ZM55.41 302.274C57.8702 302.274 59.4782 300.473 59.4782 297.774C59.4782 295.058 57.8702 293.257 55.41 293.257C52.9498 293.257 51.3418 295.058 51.3418 297.774C51.3418 300.473 52.9498 302.274 55.41 302.274ZM55.4157 300.848C53.8077 300.848 53.0577 299.444 53.0577 297.768C53.0577 296.098 53.8077 294.677 55.4157 294.677C57.0123 294.677 57.7623 296.098 57.7623 297.768C57.7623 299.444 57.0123 300.848 55.4157 300.848ZM60.687 302.098H61.2324C63.1358 302.098 63.8347 300.689 63.9711 297.802L64.1074 294.836H66.9597V302.098H68.6245V293.37H62.5336L62.3801 297.234C62.2722 299.927 61.9654 300.626 60.9938 300.626H60.6813L60.687 302.098ZM76.4696 293.37H70.8901V302.098H72.5662V294.836H76.4696V293.37ZM81.535 302.274C83.9952 302.274 85.6032 300.473 85.6032 297.774C85.6032 295.058 83.9952 293.257 81.535 293.257C79.0748 293.257 77.4668 295.058 77.4668 297.774C77.4668 300.473 79.0748 302.274 81.535 302.274ZM81.5407 300.848C79.9327 300.848 79.1827 299.444 79.1827 297.768C79.1827 296.098 79.9327 294.677 81.5407 294.677C83.1373 294.677 83.8873 296.098 83.8873 297.768C83.8873 299.444 83.1373 300.848 81.5407 300.848ZM91.177 302.098H93.1941L95.9327 298.461H96.5009V302.098H98.1998V298.461H98.7679L101.49 302.098H103.507L100.143 297.632L103.467 293.37H101.49L98.7907 296.995H98.1998V293.37H96.5009V296.995H95.8929L93.1941 293.37H91.2168L94.5577 297.632L91.177 302.098ZM104.382 304.615H106.063V302.098H112.149V304.615H113.808V300.626H112.467V293.37H106.535L106.262 296.626C106.08 298.825 105.813 299.973 105.092 300.626H104.382V304.615ZM106.91 300.626C107.49 299.814 107.705 298.461 107.876 296.626L108.058 294.825H110.808V300.626H106.91ZM118.008 302.291C119.451 302.291 120.264 301.558 120.588 300.904H120.656V302.098H122.315V296.302C122.315 293.762 120.315 293.257 118.928 293.257C117.349 293.257 115.894 293.893 115.326 295.484L116.923 295.848C117.173 295.228 117.809 294.632 118.951 294.632C120.048 294.632 120.61 295.206 120.61 296.194V296.234C120.61 296.853 119.974 296.842 118.406 297.024C116.752 297.217 115.059 297.649 115.059 299.632C115.059 301.348 116.349 302.291 118.008 302.291ZM118.377 300.927C117.417 300.927 116.724 300.495 116.724 299.654C116.724 298.745 117.531 298.422 118.514 298.291C119.065 298.217 120.372 298.069 120.616 297.825V298.95C120.616 299.984 119.792 300.927 118.377 300.927ZM123.495 294.836H126.353V302.098H128.012V294.836H130.859V293.37H123.495V294.836ZM134.32 296.37V293.37H132.656V302.098H136.468C138.605 302.098 139.798 300.859 139.798 299.217C139.798 297.541 138.605 296.37 136.468 296.37H134.32ZM134.32 297.836H136.468C137.445 297.836 138.144 298.427 138.144 299.268C138.144 300.064 137.445 300.632 136.468 300.632H134.32V297.836ZM149.613 302.274C152.073 302.274 153.681 300.473 153.681 297.774C153.681 295.058 152.073 293.257 149.613 293.257C147.153 293.257 145.545 295.058 145.545 297.774C145.545 300.473 147.153 302.274 149.613 302.274ZM149.619 300.848C148.011 300.848 147.261 299.444 147.261 297.768C147.261 296.098 148.011 294.677 149.619 294.677C151.215 294.677 151.965 296.098 151.965 297.768C151.965 299.444 151.215 300.848 149.619 300.848ZM154.526 294.836H157.384V302.098H159.044V294.836H161.89V293.37H154.526V294.836ZM163.687 302.098H167.857C169.767 302.098 170.886 301.132 170.886 299.745C170.886 298.45 169.892 297.654 168.727 297.518C169.801 297.314 170.511 296.723 170.511 295.7C170.511 294.268 169.272 293.37 167.306 293.37H163.687V302.098ZM165.284 300.677V298.251H167.857C168.698 298.251 169.204 298.745 169.204 299.558C169.204 300.251 168.698 300.677 167.857 300.677H165.284ZM165.284 297.007V294.808H167.306C168.272 294.808 168.857 295.211 168.857 295.882C168.857 296.581 168.278 297.007 167.323 297.007H165.284ZM176.511 302.274C178.414 302.274 179.761 301.336 180.147 299.916L178.539 299.626C178.232 300.45 177.494 300.87 176.528 300.87C175.073 300.87 174.096 299.927 174.051 298.245H180.255V297.643C180.255 294.49 178.369 293.257 176.392 293.257C173.96 293.257 172.357 295.109 172.357 297.791C172.357 300.501 173.937 302.274 176.511 302.274ZM174.056 296.973C174.124 295.734 175.022 294.66 176.403 294.66C177.721 294.66 178.585 295.637 178.59 296.973H174.056ZM181.37 294.836H184.228V302.098H185.887V294.836H188.734V293.37H181.37V294.836ZM192.389 298.751H194.014V298.643C194.036 297.336 194.411 296.751 195.377 296.154C196.394 295.541 197.019 294.677 197.019 293.399C197.019 291.552 195.622 290.302 193.536 290.302C191.622 290.302 190.088 291.422 190.014 293.467H191.741C191.809 292.262 192.667 291.734 193.536 291.734C194.502 291.734 195.286 292.376 195.286 293.382C195.286 294.228 194.758 294.825 194.082 295.245C193.025 295.893 192.4 296.535 192.389 298.643V298.751ZM193.247 302.206C193.866 302.206 194.383 301.7 194.383 301.069C194.383 300.45 193.866 299.939 193.247 299.939C192.622 299.939 192.11 300.45 192.11 301.069C192.11 301.7 192.622 302.206 193.247 302.206Z" fill="#1E1E1E"/>
<path d="M18.084 328.098H17.084V329.098H18.084V328.098ZM33.084 265.098H203.084V263.098H33.084V265.098ZM217.084 279.098V313.098H219.084V279.098H217.084ZM203.084 327.098H18.084V329.098H203.084V327.098ZM19.084 328.098V279.098H17.084V328.098H19.084ZM217.084 313.098C217.084 320.83 210.816 327.098 203.084 327.098V329.098C211.921 329.098 219.084 321.934 219.084 313.098H217.084ZM203.084 265.098C210.816 265.098 217.084 271.366 217.084 279.098H219.084C219.084 270.261 211.921 263.098 203.084 263.098V265.098ZM33.084 263.098C24.2474 263.098 17.084 270.261 17.084 279.098H19.084C19.084 271.366 25.352 265.098 33.084 265.098V263.098Z" fill="#E0E0E0"/>
<path d="M270.584 410.098C270.584 401.813 277.3 395.098 285.584 395.098H429.584C437.868 395.098 444.584 401.813 444.584 410.098V468.098C444.584 476.382 437.868 483.098 429.584 483.098H270.584V410.098Z" fill="#118834"/>
<path d="M292.986 433.098L294.054 430.018H298.6L299.662 433.098H301.526L297.338 421.461H295.31L291.122 433.098H292.986ZM294.566 428.541L296.281 423.575H296.372L298.088 428.541H294.566ZM306.787 430.791C306.838 432.314 308.264 433.274 310.202 433.274C312.191 433.274 313.628 432.274 313.628 430.672C313.628 429.535 312.906 428.694 311.895 428.626V428.535C312.81 428.274 313.441 427.66 313.441 426.7C313.441 425.268 312.213 424.257 310.27 424.257C308.406 424.257 307.037 425.251 307.003 426.717H308.719C308.753 426.064 309.429 425.609 310.355 425.609C311.27 425.609 311.804 426.086 311.804 426.797C311.804 427.461 311.327 427.95 310.367 427.95H308.946V429.285H310.367C311.333 429.285 311.952 429.819 311.952 430.609C311.952 431.501 311.162 431.904 310.185 431.904C309.225 431.904 308.577 431.507 308.526 430.791H306.787ZM317.922 433.291C319.365 433.291 320.178 432.558 320.502 431.904H320.57V433.098H322.229V427.302C322.229 424.762 320.229 424.257 318.843 424.257C317.263 424.257 315.808 424.893 315.24 426.484L316.837 426.848C317.087 426.228 317.723 425.632 318.865 425.632C319.962 425.632 320.524 426.206 320.524 427.194V427.234C320.524 427.853 319.888 427.842 318.32 428.024C316.666 428.217 314.973 428.649 314.973 430.632C314.973 432.348 316.263 433.291 317.922 433.291ZM318.291 431.927C317.331 431.927 316.638 431.495 316.638 430.654C316.638 429.745 317.445 429.422 318.428 429.291C318.979 429.217 320.286 429.069 320.53 428.825V429.95C320.53 430.984 319.706 431.927 318.291 431.927ZM323.804 433.098H324.35C326.253 433.098 326.952 431.689 327.088 428.802L327.225 425.836H330.077V433.098H331.742V424.37H325.651L325.497 428.234C325.389 430.927 325.083 431.626 324.111 431.626H323.798L323.804 433.098ZM337.683 433.274C340.144 433.274 341.752 431.473 341.752 428.774C341.752 426.058 340.144 424.257 337.683 424.257C335.223 424.257 333.615 426.058 333.615 428.774C333.615 431.473 335.223 433.274 337.683 433.274ZM337.689 431.848C336.081 431.848 335.331 430.444 335.331 428.768C335.331 427.098 336.081 425.677 337.689 425.677C339.286 425.677 340.036 427.098 340.036 428.768C340.036 430.444 339.286 431.848 337.689 431.848ZM349.227 424.37H343.648V433.098H345.324V425.836H349.227V424.37ZM361.99 421.12C361.564 421.461 360.916 421.461 360.013 421.456C359.746 421.456 359.456 421.456 359.138 421.461C356.308 421.518 354.877 423.529 354.877 427.518V428.382C354.877 431.586 356.468 433.274 358.905 433.274C361.343 433.274 362.922 431.581 362.922 428.865C362.922 426.183 361.371 424.7 359.269 424.7C358.002 424.7 356.945 425.24 356.377 426.319H356.269C356.462 424.109 357.291 423.012 359.178 422.956C360.854 422.904 361.916 422.91 362.695 422.194L361.99 421.12ZM358.911 431.848C357.468 431.848 356.587 430.694 356.587 428.893C356.61 427.126 357.479 426.115 358.894 426.115C360.331 426.115 361.206 427.126 361.206 428.893C361.206 430.7 360.331 431.848 358.911 431.848ZM368.496 433.274C370.956 433.274 372.564 431.473 372.564 428.774C372.564 426.058 370.956 424.257 368.496 424.257C366.036 424.257 364.428 426.058 364.428 428.774C364.428 431.473 366.036 433.274 368.496 433.274ZM368.502 431.848C366.894 431.848 366.144 430.444 366.144 428.768C366.144 427.098 366.894 425.677 368.502 425.677C370.098 425.677 370.848 427.098 370.848 428.768C370.848 430.444 370.098 431.848 368.502 431.848ZM373.773 433.098H374.318C376.222 433.098 376.921 431.689 377.057 428.802L377.193 425.836H380.046V433.098H381.71V424.37H375.619L375.466 428.234C375.358 430.927 375.051 431.626 374.08 431.626H373.767L373.773 433.098ZM385.641 427.37V424.37H383.976V433.098H387.789C389.925 433.098 391.118 431.859 391.118 430.217C391.118 428.541 389.925 427.37 387.789 427.37H385.641ZM385.641 428.836H387.789C388.766 428.836 389.465 429.427 389.465 430.268C389.465 431.064 388.766 431.632 387.789 431.632H385.641V428.836ZM393.023 424.37V433.098H404.051V424.37H402.387V431.626H399.369V424.37H397.705V431.626H394.688V424.37H393.023ZM409.996 433.274C412.456 433.274 414.064 431.473 414.064 428.774C414.064 426.058 412.456 424.257 409.996 424.257C407.536 424.257 405.928 426.058 405.928 428.774C405.928 431.473 407.536 433.274 409.996 433.274ZM410.002 431.848C408.394 431.848 407.644 430.444 407.644 428.768C407.644 427.098 408.394 425.677 410.002 425.677C411.598 425.677 412.348 427.098 412.348 428.768C412.348 430.444 411.598 431.848 410.002 431.848ZM417.625 430.717V424.37H415.96V433.098H417.807L421.637 426.745V433.098H423.301V424.37H421.472L417.625 430.717ZM420.744 421.416C420.744 421.99 420.426 422.495 419.631 422.495C418.824 422.495 418.523 421.984 418.523 421.416H417.131C417.131 422.694 418.102 423.575 419.631 423.575C421.171 423.575 422.142 422.694 422.142 421.416H420.744ZM338.287 445.12C337.861 445.461 337.213 445.461 336.31 445.456C336.043 445.456 335.753 445.456 335.435 445.461C332.605 445.518 331.173 447.529 331.173 451.518V452.382C331.173 455.586 332.764 457.274 335.202 457.274C337.639 457.274 339.219 455.581 339.219 452.865C339.219 450.183 337.668 448.7 335.566 448.7C334.298 448.7 333.242 449.24 332.673 450.319H332.566C332.759 448.109 333.588 447.012 335.475 446.956C337.151 446.904 338.213 446.91 338.992 446.194L338.287 445.12ZM335.208 455.848C333.764 455.848 332.884 454.694 332.884 452.893C332.906 451.126 333.776 450.115 335.191 450.115C336.628 450.115 337.503 451.126 337.503 452.893C337.503 454.7 336.628 455.848 335.208 455.848ZM342.191 460.37C343.594 460.37 344.48 459.637 344.986 458.262L348.594 448.387L346.759 448.37L344.548 455.143H344.458L342.247 448.37H340.429L343.622 457.211L343.412 457.791C342.98 458.95 342.372 459.047 341.441 458.791L341.031 460.183C341.236 460.274 341.679 460.37 342.191 460.37ZM348.624 459.615H350.306V457.098H356.391V459.615H358.05V455.626H356.709V448.37H350.777L350.504 451.626C350.323 453.825 350.056 454.973 349.334 455.626H348.624V459.615ZM351.152 455.626C351.732 454.814 351.948 453.461 352.118 451.626L352.3 449.825H355.05V455.626H351.152ZM363.472 457.274C365.375 457.274 366.722 456.336 367.108 454.916L365.5 454.626C365.193 455.45 364.455 455.87 363.489 455.87C362.034 455.87 361.057 454.927 361.012 453.245H367.216V452.643C367.216 449.49 365.33 448.257 363.352 448.257C360.921 448.257 359.318 450.109 359.318 452.791C359.318 455.501 360.898 457.274 363.472 457.274ZM361.017 451.973C361.085 450.734 361.983 449.66 363.364 449.66C364.682 449.66 365.546 450.637 365.551 451.973H361.017ZM368.331 449.836H371.189V457.098H372.848V449.836H375.695V448.37H368.331V449.836ZM379.35 453.751H380.975V453.643C380.997 452.336 381.372 451.751 382.338 451.154C383.355 450.541 383.98 449.677 383.98 448.399C383.98 446.552 382.583 445.302 380.497 445.302C378.583 445.302 377.048 446.422 376.975 448.467H378.702C378.77 447.262 379.628 446.734 380.497 446.734C381.463 446.734 382.247 447.376 382.247 448.382C382.247 449.228 381.719 449.825 381.043 450.245C379.986 450.893 379.361 451.535 379.35 453.643V453.751ZM380.208 457.206C380.827 457.206 381.344 456.7 381.344 456.069C381.344 455.45 380.827 454.939 380.208 454.939C379.583 454.939 379.071 455.45 379.071 456.069C379.071 456.7 379.583 457.206 380.208 457.206Z" fill="white"/>
</svg>
