<svg width="280" height="221" viewBox="0 0 280 221" fill="none" xmlns="http://www.w3.org/2000/svg">
<path d="M227.684 173.522H227.525" stroke="#CCDDE2" stroke-width="0.8" stroke-miterlimit="10"/>
<path d="M96.4624 103.67V125.653V151.527V173.522H75.7349V151.527V142.676V125.653" stroke="#CCDDE2" stroke-width="0.8" stroke-miterlimit="10"/>
<path d="M210.532 68.2093V68.1827C210.298 67.5918 204.549 53.6711 186.947 45.1922C186.776 45.1065 186.616 45.0179 186.445 44.944C177.841 40.574 168.272 38.4491 158.627 38.7665H158.515C156.177 38.8528 153.848 39.0966 151.543 39.4963H151.519C150.361 39.6794 149.229 39.9128 148.098 40.1846C147.889 40.2341 147.669 40.2207 147.467 40.1461C147.266 40.0714 147.09 39.9389 146.964 39.7651L142.373 33.3513L142.03 32.8727C141.999 32.8269 141.974 32.7773 141.956 32.7249C141.708 31.9745 142.104 29.6347 142.104 29.032C142.104 26.6922 141.684 22.5828 140.083 19.4305C140.183 19.2592 140.895 17.8913 140.355 15.4688C140.331 15.3565 140.304 15.2324 140.269 15.1113C140.133 14.5672 139.951 14.0356 139.725 13.5219C139.678 13.386 139.616 13.253 139.554 13.1053C139.247 12.455 138.897 11.8254 138.508 11.2205C138.411 11.0491 138.299 10.8896 138.189 10.7153C138.08 10.541 137.956 10.3726 137.82 10.1983C137.584 9.85556 137.303 9.48627 137.007 9.11698C136.786 8.84518 136.55 8.57338 136.316 8.32818C136.173 8.16099 136.017 8.00494 135.849 7.86139C135.644 7.65142 135.426 7.45411 135.196 7.27053C135.021 7.10724 134.837 6.95434 134.644 6.81261C134.579 6.75657 134.509 6.70709 134.434 6.66489C134.248 6.50349 134.051 6.35541 133.843 6.22174C133.634 6.07403 133.424 5.92631 133.214 5.817L133.105 5.74315C132.907 5.61907 132.697 5.50976 132.487 5.39749C132.338 5.30418 132.182 5.22221 132.021 5.15228C131.861 5.05479 131.69 4.98093 131.515 4.89526L131.185 4.74754C130.975 4.6471 130.765 4.56142 130.543 4.47575C130.477 4.43888 130.407 4.41011 130.334 4.39007C130.072 4.27756 129.805 4.17895 129.533 4.09464C127.421 3.38756 125.222 2.97306 122.998 2.86268C121.131 2.75074 119.258 2.87882 117.423 3.24379C117.237 3.2822 117.066 3.31765 116.906 3.36788C116.747 3.4181 116.51 3.45355 116.315 3.51559C107.845 5.87905 103.76 15.7376 105.151 23.9358C101.94 22.8398 98.4802 22.1633 95.1329 22.8162C85.3837 24.7601 80.2757 38.0545 77.3332 46.4507C65.8852 79.2053 81.2358 103.023 82.6864 105.165C79.9089 105.093 77.1459 105.587 74.565 106.615C66.0447 110.137 62.8097 118.678 63.312 128.477C63.312 128.477 62.9309 159.654 80.2875 210.197H65.77C64.7044 210.193 63.681 210.613 62.925 211.364C62.169 212.115 61.7423 213.136 61.7388 214.201C61.7353 215.267 62.1552 216.29 62.9062 217.046C63.6572 217.802 64.6778 218.229 65.7434 218.233L70.7184 218.271L70.7539 218.233H107.219L105.742 210.158L95.8331 155.492L129.583 173.401C130.991 174.071 132.232 175.044 133.22 176.251C134.207 177.457 134.915 178.867 135.294 180.379V180.417C135.428 180.918 135.519 181.429 135.566 181.945L139.111 218.244H181.653C185.234 196.542 188.153 176.639 188.829 165.658C189.109 161.751 190.928 158.116 193.887 155.551C205.642 145.237 218.358 128.891 220.426 114.539C222.491 100.125 218.343 82.0178 210.532 68.2093ZM125.447 53.9192C125.447 53.9192 101.582 78.1801 98.7756 68.7883C95.969 59.3965 100.926 53.2397 100.926 53.2397C100.926 53.2397 115.722 45.4876 124.227 46.1021C125.778 46.2144 126.8 46.5453 127.438 47.012L128.325 49.0062C128.251 50.0284 127.648 51.1363 127.01 52.0344C126.538 52.7015 126.015 53.3316 125.447 53.9192Z" fill="white"/>
<path d="M128.221 94.5057C129.547 77.6129 111.972 68.7854 111.972 68.7854L127.952 51.1747C126.599 53.9015 132.088 58.398 137.512 58.8086C142.936 59.2193 149.72 52.962 151.155 47.9367C152.591 42.9114 151.705 40.0546 151.705 40.0546L158.742 39.3485C199.665 40.5036 210.714 68.7854 210.714 68.7854C186.985 60.6078 182.648 81.1728 182.648 81.1728C186.858 87.7107 188.826 97.844 188.826 97.844C192.764 115.032 176.362 138.318 176.362 138.318C167.841 129.52 124.581 123.99 123.63 125.408C123.63 125.408 131.095 114.814 128.221 94.5057Z" fill="#2E2E2E"/>
<path d="M140.263 19.9977C139.105 17.132 136.186 15.0256 134.059 13.8084C133.252 13.3359 132.413 12.9203 131.548 12.5646C131.229 18.0922 124.25 21.2178 120.682 22.4468C119.438 22.8782 118.614 23.0879 118.614 23.0879C118.614 23.0879 118.244 22.6832 117.603 22.0303C116.717 21.144 115.337 19.7761 113.739 18.361C113.848 18.621 115.574 22.7689 115.683 27.224C115.706 27.7823 115.698 28.3416 115.659 28.8991L109.597 28.7868C110.188 26.252 108.016 24.4794 108.016 24.4794C106.625 16.2812 110.711 6.4108 119.178 4.05916C119.376 3.99712 119.574 3.96166 119.769 3.91144C120.887 3.63644 122.028 3.46729 123.178 3.40625H123.193C127.943 3.65441 133.666 5.27929 137.199 9.67236C139.563 12.6267 140.449 14.9901 140.671 16.7007C140.951 18.8544 140.263 19.9977 140.263 19.9977Z" fill="#23272B"/>
<path d="M80.4527 210.749H105.931L107.408 218.823L65.9234 218.782C65.9234 218.782 58.4046 214.675 65.9559 210.749H80.4527Z" fill="#23272B"/>
<path d="M105.316 24.4794C103.925 16.2812 108.013 6.41079 116.48 4.05915C116.678 3.99711 116.873 3.96166 117.071 3.91143C117.269 3.86121 117.405 3.82576 117.588 3.78735" stroke="black" stroke-width="0.8" stroke-miterlimit="10"/>
<path d="M117.072 3.91159C121.539 2.72986 131.843 3.02529 137.185 9.67251C142.526 16.3197 140.26 19.9979 140.26 19.9979C138.34 15.2237 131.539 12.5559 131.539 12.5559C131.108 20.0008 118.599 23.0822 118.599 23.0822C118.599 23.0822 116.469 20.7926 113.725 18.3553C113.834 18.6152 115.559 22.7631 115.669 27.2182C115.69 27.7766 115.682 28.3357 115.645 28.8933" stroke="black" stroke-width="0.8" stroke-miterlimit="10"/>
<path d="M173.765 68.7854C182.693 78.9483 189.745 91.9295 189.453 105.791C189.157 120.64 179.39 132.427 172.533 144.865" stroke="black" stroke-width="0.8" stroke-miterlimit="10"/>
<path d="M172.533 136.212C172.533 136.212 167.277 149.988 189.133 163.448" stroke="black" stroke-width="0.8" stroke-miterlimit="10"/>
<path d="M138.662 17.6726C141.616 20.751 142.281 26.6212 142.281 29.5992C142.281 30.2521 141.826 32.9228 142.207 33.4398L147.138 40.3263C147.263 40.5017 147.438 40.6353 147.64 40.7101C147.843 40.7849 148.063 40.7973 148.272 40.7458C167.906 36.0751 190.206 42.8936 204.144 59.2901C216.035 73.2493 223.197 97.1054 220.588 115.127C218.52 129.479 205.816 145.825 194.052 156.142C192.587 157.409 191.385 158.953 190.517 160.685C189.649 162.417 189.13 164.304 188.991 166.236C188.303 177.218 185.399 197.121 181.815 218.823" stroke="black" stroke-width="0.8" stroke-miterlimit="10"/>
<path d="M152.29 40.1226C152.29 40.1226 151.043 56.1941 140.889 58.0405C130.735 59.887 126.969 52.0876 126.969 52.0876C126.611 52.383 126.265 52.6784 125.923 53.0004C120.053 58.2729 114.717 64.1113 109.993 70.4309C107.419 73.8768 105.04 77.464 102.867 81.1758" stroke="black" stroke-width="0.8" stroke-miterlimit="10"/>
<path d="M107.396 218.823L96.0103 156.074L129.749 173.983C131.398 174.769 132.815 175.969 133.864 177.466C134.912 178.963 135.555 180.705 135.731 182.524L139.276 218.823" stroke="black" stroke-width="0.8" stroke-miterlimit="10"/>
<path d="M70.8836 218.823L65.9115 218.782C64.865 218.75 63.8725 218.31 63.1452 217.557C62.418 216.804 62.0134 215.797 62.0176 214.75C62.0218 213.703 62.4346 212.699 63.1679 211.952C63.9013 211.205 64.8973 210.773 65.944 210.749H80.4526C63.1108 160.21 63.4801 129.03 63.4801 129.03C62.9749 119.221 66.2128 110.678 74.7301 107.168C81.788 104.249 90.2285 106.16 96.9762 109.047C102.589 111.449 107.836 114.604 112.888 118.016C115.367 119.691 117.804 121.428 120.233 123.174C120.88 123.638 122.821 125.579 123.63 125.417C123.63 125.417 130.72 113.475 128.57 97.3004" stroke="black" stroke-width="0.8" stroke-miterlimit="10"/>
<path d="M131.633 91.0371C129.143 97.191 116.879 113.892 110.312 116.308" stroke="black" stroke-width="0.8" stroke-miterlimit="10"/>
<path d="M108.271 94.5057L102.867 81.1728C100.073 75.0308 97.7829 68.1384 98.4004 61.2962C98.6574 58.4896 99.3723 55.6328 100.935 53.2457C102.203 51.2869 104.235 50.1938 106.179 49.0358C107.163 48.4449 108.652 47.5586 108.8 46.3148C109.06 44.0873 105.798 43.2985 104.185 43.3369C101.857 43.3723 100.073 44.5186 97.7475 43.8539C96.693 43.5816 95.7406 43.0084 95.0062 42.2042C94.2718 41.4001 93.7872 40.3997 93.6114 39.3249C93.3928 37.9482 93.5789 36.5449 93.7975 35.1711C94.1402 33.0381 94.6838 29.9568 96.9734 29.0586C97.0543 29.0147 97.1408 28.9819 97.2305 28.9611C97.2468 28.9557 97.2644 28.9557 97.2807 28.9611C97.3225 28.9394 97.3697 28.9302 97.4166 28.9346C98.3263 28.7593 99.2604 28.7513 100.173 28.9109" stroke="black" stroke-width="0.8" stroke-miterlimit="10"/>
<path d="M82.964 105.865C82.964 105.865 65.4981 81.3442 77.4985 46.9914C80.441 38.61 85.5638 25.3155 95.313 23.3598C99.1153 22.6094 103.08 23.5931 106.637 24.961C107.718 25.3776 109.712 26.3879 109.591 27.7912C109.535 28.2288 109.309 28.6267 108.962 28.8991" stroke="black" stroke-width="0.8" stroke-miterlimit="10"/>
<path d="M22.5186 218.823H199.766" stroke="black" stroke-width="0.8" stroke-miterlimit="10"/>
<path d="M120.543 28.8931H97.5376C96.7952 28.8931 96.1934 29.4949 96.1934 30.2373V41.6676C96.1934 42.4099 96.7952 43.0118 97.5376 43.0118H120.543C121.285 43.0118 121.887 42.4099 121.887 41.6676V30.2373C121.887 29.4949 121.285 28.8931 120.543 28.8931Z" fill="white"/>
<path d="M120.543 28.8931H97.5376C96.7952 28.8931 96.1934 29.4949 96.1934 30.2373V41.6676C96.1934 42.4099 96.7952 43.0118 97.5376 43.0118H120.543C121.285 43.0118 121.887 42.4099 121.887 41.6676V30.2373C121.887 29.4949 121.285 28.8931 120.543 28.8931Z" stroke="black" stroke-width="0.8" stroke-miterlimit="10"/>
<path d="M142.089 31.6143C142.089 31.6143 142.065 32.0338 141.956 32.7103C141.598 35.0235 140.316 40.3531 135.962 42.4093C131.799 44.3681 127.53 43.4315 125.571 42.817L127.441 47.0122L128.328 49.0063L128.366 49.0802C128.521 49.43 128.563 49.819 128.488 50.1939C128.413 50.5689 128.224 50.9115 127.947 51.1748L127.013 52.0345L126.963 52.0847" stroke="black" stroke-width="0.8" stroke-miterlimit="10"/>
<path d="M133.403 28.0246C136.417 28.0246 138.86 25.5816 138.86 22.568C138.86 19.5543 136.417 17.1113 133.403 17.1113C130.389 17.1113 127.946 19.5543 127.946 22.568C127.946 25.5816 130.389 28.0246 133.403 28.0246Z" stroke="black" stroke-width="0.8" stroke-miterlimit="10"/>
<path d="M114.794 28.8991C114.995 28.2958 115.295 27.7298 115.68 27.224C116.195 26.5516 116.86 26.0084 117.621 25.6372C118.382 25.2661 119.22 25.0773 120.067 25.0857C120.913 25.0942 121.747 25.2996 122.501 25.6859C123.254 26.0721 123.908 26.6286 124.409 27.3111C124.911 27.9936 125.247 28.7835 125.39 29.6183C125.533 30.453 125.481 31.3097 125.236 32.1204C124.991 32.9312 124.56 33.6738 123.979 34.2894C123.397 34.9051 122.68 35.3769 121.884 35.6675" stroke="black" stroke-width="0.8" stroke-miterlimit="10"/>
<path d="M124.602 27.6375C124.602 27.6375 125.329 24.8486 128.57 25.0968" stroke="black" stroke-width="0.8" stroke-miterlimit="10"/>
<path d="M132.582 26.6922C133.497 26.6922 134.239 25.9502 134.239 25.0348C134.239 24.1195 133.497 23.3774 132.582 23.3774C131.666 23.3774 130.924 24.1195 130.924 25.0348C130.924 25.9502 131.666 26.6922 132.582 26.6922Z" fill="black"/>
<path d="M126.629 37.502C126.629 37.502 129.583 38.7281 131.536 37.3455" stroke="black" stroke-width="0.8" stroke-miterlimit="10"/>
<path d="M117.58 34.7042C118.33 34.7042 118.939 34.0957 118.939 33.3452C118.939 32.5946 118.33 31.9862 117.58 31.9862C116.829 31.9862 116.221 32.5946 116.221 33.3452C116.221 34.0957 116.829 34.7042 117.58 34.7042Z" fill="black"/>
<path d="M135.731 182.524C135.356 180.583 132.685 164.405 133.403 156.074" stroke="black" stroke-width="0.8" stroke-miterlimit="10"/>
<path d="M241.821 109.632C250.47 109.632 257.481 102.62 257.481 93.9709C257.481 85.3217 250.47 78.3101 241.821 78.3101C233.171 78.3101 226.16 85.3217 226.16 93.9709C226.16 102.62 233.171 109.632 241.821 109.632Z" fill="#23272B"/>
<path d="M235.877 89.6753C236.008 89.1359 236.221 88.6198 236.509 88.145C236.997 87.317 237.771 86.6955 238.684 86.3969C239.598 86.0984 240.589 86.1432 241.472 86.523C242.049 86.7725 242.559 87.1524 242.964 87.6328C243.368 88.1132 243.656 88.6809 243.803 89.2912C244.566 88.8587 245.448 88.6853 246.318 88.7971C247.188 88.9089 247.998 89.2999 248.626 89.9114C249.254 90.5228 249.668 91.3217 249.803 92.188C249.939 93.0543 249.79 93.9411 249.378 94.7154C248.512 96.3432 246.793 97.6076 245.183 98.4467C244.339 98.8844 243.454 99.2349 242.539 99.4925C242.075 99.6255 239.446 100.444 239.127 100.083C237.023 97.7317 235.017 93.1171 235.877 89.6753Z" fill="white"/>
<path d="M73.5928 190.867C89.8634 190.867 103.053 177.677 103.053 161.406C103.053 145.136 89.8634 131.946 73.5928 131.946C57.3222 131.946 44.1323 145.136 44.1323 161.406C44.1323 177.677 57.3222 190.867 73.5928 190.867Z" fill="#23272B"/>
<path d="M62.4077 153.32C62.6519 152.307 63.0505 151.338 63.5895 150.446C65.56 147.231 69.4538 145.89 72.9281 147.394C74.012 147.864 74.9722 148.578 75.7329 149.482C76.4937 150.386 77.0343 151.454 77.3123 152.602C78.7467 151.786 80.4073 151.458 82.0442 151.667C83.6812 151.877 85.2059 152.612 86.3888 153.763C87.5718 154.913 88.349 156.417 88.6035 158.048C88.8581 159.678 88.5761 161.347 87.8001 162.804C86.1723 165.87 82.9403 168.248 79.9062 169.826C78.3197 170.649 76.6538 171.308 74.934 171.794C74.0478 172.042 69.114 173.581 68.5143 172.907C64.5644 168.479 60.7888 159.799 62.4077 153.32Z" fill="white"/>
<path d="M167.289 29.93C172.463 29.93 176.657 25.7358 176.657 20.5619C176.657 15.388 172.463 11.1937 167.289 11.1937C162.115 11.1937 157.921 15.388 157.921 20.5619C157.921 25.7358 162.115 29.93 167.289 29.93Z" fill="#23272B"/>
<path d="M163.732 17.9917C163.809 17.6686 163.937 17.3596 164.11 17.0758C164.402 16.5843 164.862 16.2153 165.405 16.0372C165.949 15.859 166.538 15.8837 167.064 16.1068C167.409 16.2557 167.715 16.4826 167.957 16.7697C168.199 17.0568 168.37 17.3963 168.459 17.7612C168.915 17.5005 169.445 17.3955 169.966 17.462C170.488 17.5285 170.974 17.763 171.35 18.13C171.727 18.497 171.974 18.9765 172.054 19.4963C172.134 20.016 172.043 20.5477 171.794 21.011C171.277 21.9859 170.249 22.7422 169.283 23.2445C168.779 23.5063 168.249 23.7161 167.702 23.8708C167.425 23.9505 165.85 24.438 165.661 24.2253C164.417 22.8102 163.218 20.0508 163.732 17.9917Z" fill="white"/>
</svg>
