<svg width="280" height="221" viewBox="0 0 280 221" fill="none" xmlns="http://www.w3.org/2000/svg">
<path d="M217.66 212.03L217.65 212.04" stroke="#CCDDE2" strokeWidth="0.8" stroke-miterlimit="10"/>
<path d="M130.053 55.5962C130.053 55.5962 137.064 51.0768 134.102 46.2709C131.14 41.4649 130.053 55.5962 130.053 55.5962Z" fill="#353642"/>
<path d="M202.491 84.6498C198.567 86.6618 194.34 86.5186 190.291 84.9799C186.616 83.5752 183.336 81.2672 180.386 78.7039L160.452 63.6008C156.148 60.9925 152.284 57.7178 149.006 53.8986C144.312 48.395 136.74 47.1927 134.949 46.9809L133.663 44.511C136.061 43.5361 138.569 42.2778 141.138 41.9383C146.274 41.2406 151.666 43.4178 155.407 46.8439C157.481 48.7532 159.294 50.949 161.359 52.8708C166.523 57.6829 173.873 59.4116 180.67 60.8879C184.096 61.6323 187.871 61.8691 191.353 62.2273C194.814 62.571 198.187 63.5199 201.32 65.0305C203.379 65.9867 204.702 67.8523 206.303 69.6713C207.53 71.3586 208.267 73.3513 208.434 75.4303C208.674 79.4919 205.964 82.8557 202.491 84.6498Z" fill="#353642"/>
<path d="M130.054 55.5961C129.107 56.1458 127.99 56.3224 126.92 56.0913H126.892C126.581 56.001 126.269 55.9262 126.001 55.8702C125.882 55.8438 125.765 55.8074 125.652 55.7612C122.519 54.6212 120.691 55.0635 121.292 58.4086C121.99 62.3487 116.844 62.8626 113.455 62.2552C107.475 59.5642 105.837 49.0646 110.581 42.5955C110.699 42.4304 110.836 42.2559 110.973 42.0815C111.11 41.9071 111.26 41.742 111.406 41.5769C111.76 41.1925 112.138 40.8305 112.537 40.4931C112.674 40.3716 112.811 40.2532 112.957 40.1442C113.103 40.0352 113.309 39.8763 113.483 39.7486C113.653 39.6146 113.831 39.4918 114.016 39.3811C115.62 38.3252 117.422 37.6072 119.312 37.2709C121.202 36.9346 123.141 36.9871 125.011 37.4251L125.107 37.4531C125.758 37.6971 126.393 37.9821 127.007 38.3065C127.184 38.395 127.355 38.4928 127.521 38.5993C127.594 38.6351 127.665 38.6746 127.733 38.7177C127.898 38.8205 128.063 38.9201 128.228 39.0292C128.558 39.2409 128.889 39.4683 129.203 39.7175C130.348 40.5948 131.363 41.631 132.215 42.7948C132.361 42.9867 132.496 43.1864 132.62 43.3928C132.72 43.5304 132.812 43.6739 132.894 43.8226C133.022 44.0251 133.143 44.2275 133.252 44.4456C133.361 44.6636 133.52 44.9501 133.638 45.2087C133.732 45.4111 133.822 45.6136 133.906 45.8316C133.969 45.9873 134.034 46.1431 134.09 46.2894C134.276 46.7779 134.429 47.2785 134.548 47.7876C134.586 47.9107 134.614 48.0368 134.632 48.1645C134.675 48.3116 134.708 48.4614 134.732 48.613C134.76 48.7594 134.788 48.9245 134.816 49.074L130.054 55.5961Z" fill="#353642"/>
<path d="M132.579 43.1437C134.974 42.1657 137.482 40.9105 140.054 40.5648C145.184 39.8733 150.585 42.0474 154.316 45.4735C156.4 47.3859 158.207 49.5786 160.275 51.5066C165.442 56.3063 172.139 58.9444 178.953 60.4301C182.375 61.149 185.833 61.6772 189.313 62.0124C192.926 62.3893 196.193 62.4983 199.538 64.0587C203.899 66.0771 208.1 70.4064 208.421 75.4211C208.68 79.4888 205.97 82.8496 202.503 84.6343C198.576 86.6463 194.343 86.5186 190.288 84.9613C186.612 83.5566 183.333 81.2517 180.38 78.679" stroke="black" strokeWidth="0.8" stroke-miterlimit="10"/>
<path d="M108.605 42.0162C108.727 41.8511 108.864 41.6767 109.001 41.5022C109.138 41.3278 109.288 41.1627 109.434 40.9977C109.915 40.4802 110.436 40.0011 110.991 39.5649C111.166 39.4248 111.34 39.2971 111.515 39.1694L111.627 39.0853C111.773 38.9856 111.91 38.8828 112.057 38.8018C116.09 36.1388 120.868 35.8896 125.01 37.4158C125.191 37.4725 125.369 37.539 125.543 37.6151C126.042 37.8151 126.53 38.0429 127.004 38.2973C127.182 38.385 127.354 38.4828 127.521 38.59C127.593 38.6258 127.664 38.6653 127.733 38.7084C127.907 38.8112 128.072 38.9108 128.228 39.0199C128.564 39.2323 128.888 39.4621 129.2 39.7082C130.347 40.5846 131.362 41.6209 132.215 42.7855C132.36 42.9774 132.495 43.1771 132.62 43.3835C132.72 43.5211 132.811 43.6646 132.894 43.8133C133.024 44.0158 133.143 44.2182 133.252 44.4363C133.361 44.6543 133.52 44.9408 133.638 45.1993C133.732 45.4018 133.822 45.6042 133.906 45.8223C133.968 45.978 134.034 46.1337 134.09 46.2801C134.276 46.7686 134.429 47.2691 134.548 47.7783C134.586 47.9014 134.614 48.0275 134.632 48.1552C134.673 48.3027 134.707 48.4524 134.731 48.6037C134.759 48.7501 134.787 48.9151 134.815 49.0646C134.843 49.2141 134.859 49.3948 134.878 49.5692" stroke="black" strokeWidth="0.8" stroke-miterlimit="10"/>
<path d="M152.824 212.46H176.773L177.084 218.824H145.704C145.704 218.824 140.157 215.039 146.492 212.46H152.824Z" fill="#353642"/>
<path d="M123.512 94.3457C123.512 94.3457 140.204 82.9273 160.452 103.74C160.452 103.74 157.721 120.194 148.996 127.121C148.996 127.121 200.242 119.587 205.631 138.53C205.631 138.53 207.412 105.515 179.433 77.7414C151.454 49.9679 135.27 59.4427 130.047 74.0038C124.823 88.5648 125.353 82.6719 123.512 94.3457Z" fill="#2E2E2E"/>
<path d="M234.117 211.94V184.241L243.417 184.553V218.814H227.701C227.701 218.814 225.577 215.622 228.878 214.588C232.18 213.553 234.117 215.154 234.117 211.94Z" fill="#353642"/>
<path d="M155.123 60.8755C184.965 74.7981 205.64 105.073 205.64 140.172C205.666 158.106 200.153 175.611 189.855 190.293C188.147 192.729 186.319 195.077 184.376 197.329" stroke="black" strokeWidth="0.8" strokeLinecap="round" stroke-linejoin="round"/>
<path d="M173.322 125.813C173.322 125.813 115.442 122.652 115.701 152.182C115.801 157.908 118.02 163.393 121.93 167.578L154.821 203.397C156.743 205.483 157.817 207.162 158.393 208.477C158.581 208.911 158.658 209.385 158.617 209.856C158.575 210.327 158.417 210.781 158.157 211.176C157.896 211.57 157.541 211.894 157.124 212.117C156.707 212.34 156.241 212.456 155.768 212.454H146.495C145.65 212.457 144.841 212.794 144.244 213.392C143.646 213.989 143.309 214.799 143.306 215.643C143.306 216.062 143.389 216.476 143.55 216.862C143.71 217.248 143.945 217.598 144.242 217.893C144.538 218.189 144.889 218.422 145.276 218.581C145.663 218.74 146.077 218.822 146.495 218.82H177.084C176.801 196.037 168.018 180.071 160.648 170.652C158.349 167.694 155.805 164.935 153.042 162.404" stroke="black" strokeWidth="0.8" strokeLinecap="round" stroke-linejoin="round"/>
<path d="M189.855 190.293C189.855 190.293 212.816 182.597 243.427 184.556V218.817H229.143C228.58 218.817 228.039 218.593 227.641 218.195C227.243 217.797 227.019 217.256 227.019 216.693V216.693C227.019 216.174 227.209 215.673 227.553 215.284C227.898 214.896 228.372 214.647 228.888 214.584L232.155 214.17C232.7 214.102 233.201 213.837 233.564 213.425C233.927 213.013 234.127 212.483 234.127 211.934C234.126 211.606 234.055 211.283 233.917 210.986C233.78 210.689 233.579 210.425 233.329 210.214C233.079 210.002 232.786 209.847 232.47 209.76C232.155 209.673 231.824 209.656 231.501 209.71L177.084 218.823" stroke="black" strokeWidth="0.8" strokeLinecap="round" stroke-linejoin="round"/>
<path d="M160.642 170.664C162.396 167.111 163.95 164.208 164.943 162.417" stroke="black" strokeWidth="0.8" strokeLinecap="round" stroke-linejoin="round"/>
<path d="M149.831 212.46C148.62 208.701 148.95 203.711 150.143 198.313" stroke="black" strokeWidth="0.8" strokeLinecap="round" stroke-linejoin="round"/>
<path d="M47.2276 216.815C47.23 217.108 47.1695 217.399 47.0503 217.668C46.931 217.937 46.7557 218.177 46.5361 218.372L47.2182 216.618C47.2257 216.684 47.2288 216.749 47.2276 216.815Z" fill="white"/>
<path d="M47.2276 216.815C47.23 217.108 47.1695 217.399 47.0503 217.668C46.931 217.937 46.7557 218.177 46.5361 218.372L47.2182 216.618C47.2257 216.684 47.2288 216.749 47.2276 216.815Z" fill="white"/>
<path d="M64.7753 169.992C64.7753 169.992 64.3455 173.823 66.8403 173.153C69.3352 172.483 69.3663 170.58 69.7712 172.219C70.1761 173.857 72.4966 175.022 74.0539 173.094C75.6112 171.166 74.6955 173.876 75.577 174.393C76.4584 174.91 78.7602 175.122 79.6852 173.346C80.6103 171.571 81.3173 171.452 81.8904 172.982C82.4635 174.511 87.7367 170.823 87.7335 170.412C87.7304 170.001 91.0849 168.434 91.0849 168.434L89.6615 163.186C89.6615 163.186 87.6339 161.962 87.1355 161.847C86.6372 161.732 85.681 161.769 85.1826 161.501C84.6843 161.233 79.2211 159.828 79.2211 159.828C79.2211 159.828 64.9248 163.485 64.7753 169.992Z" fill="white"/>
<path d="M70.2858 169.68C70.2235 169.845 70.1581 170.02 70.0927 170.185C70.0874 170.214 70.078 170.242 70.0647 170.269C69.7918 170.882 69.6907 171.559 69.7719 172.225C69.8996 172.913 70.4166 173.941 71.133 174.116C73.226 174.642 74.2477 173.181 74.936 171.518C75.3565 170.506 75.6711 169.422 76.0386 168.659C76.5064 167.691 77.1617 166.826 77.9666 166.114" stroke="black" strokeWidth="0.8" strokeLinecap="round" stroke-linejoin="round"/>
<path d="M70.3884 169.369C70.3604 169.472 70.323 169.562 70.2857 169.68C70.2308 169.852 70.1664 170.02 70.0925 170.185C70.0873 170.214 70.0778 170.242 70.0645 170.269C69.4603 171.674 68.42 172.941 66.8408 173.162C65.0592 173.399 63.938 170.562 65.5732 167.659C65.571 167.653 65.571 167.646 65.5732 167.64" stroke="black" strokeWidth="0.8" strokeLinecap="round" stroke-linejoin="round"/>
<path d="M74.9234 171.512C74.9234 171.512 74.4188 175.249 77.2843 174.938C80.6108 174.58 79.6079 170.73 83.8718 167.541" stroke="black" strokeWidth="0.8" strokeLinecap="round" stroke-linejoin="round"/>
<path d="M80.9722 171.29C81.4487 172.421 82.4423 173.109 83.6819 172.963C85.4448 172.742 86.4384 171.216 87.6313 170.094C87.6687 170.07 87.6967 170.032 87.7341 170.004C88.4265 169.374 89.2507 168.906 90.1467 168.634C91.0428 168.363 91.9881 168.294 92.9138 168.434C92.9138 168.434 103.488 171.262 118.289 162.417" stroke="black" strokeWidth="0.8" strokeLinecap="round" stroke-linejoin="round"/>
<path d="M150.463 126.906C157.933 116.019 161.924 103.123 161.91 89.9197" stroke="black" strokeWidth="0.8" strokeLinecap="round" stroke-linejoin="round"/>
<path d="M70.3887 169.369C70.3887 169.369 71.4632 166.974 72.9863 165.843" stroke="black" strokeWidth="0.8" strokeLinecap="round" stroke-linejoin="round"/>
<path d="M134.809 49.0553L155.12 60.891C128.334 52.715 122.251 95.3798 120.859 114.267C120.859 114.267 119.613 141.193 93.0479 153.577L89.1732 155.347C85.801 156.869 82.297 158.082 78.7048 158.969C67.2397 161.841 65.5796 167.649 65.5796 167.649" stroke="black" strokeWidth="0.8" strokeLinecap="round" stroke-linejoin="round"/>
<path d="M132.383 69.9267L129.929 66.2607" stroke="black" strokeWidth="0.8" strokeLinecap="round" stroke-linejoin="round"/>
<path d="M113.439 62.2458L118.136 66.7839C118.2 66.8459 118.276 66.8938 118.359 66.9241C118.442 66.9545 118.531 66.9667 118.62 66.9599C118.708 66.9531 118.794 66.9275 118.872 66.8848C118.95 66.8421 119.018 66.7832 119.071 66.7122L119.622 65.9741C119.706 65.9741 130.692 71.8919 131.931 61.6135" stroke="black" strokeWidth="0.8" strokeLinecap="round" stroke-linejoin="round"/>
<path d="M134.542 46.9216C134.542 46.9216 143.636 47.6131 148.997 53.8891C152.275 57.7074 156.14 60.9803 160.446 63.5851" stroke="black" strokeWidth="0.8" stroke-miterlimit="10"/>
<path d="M112.047 38.8019C103.366 44.1809 104.36 58.5489 111.536 61.7103C114.274 62.9188 122.126 63.2147 121.276 58.3963C120.678 55.0573 122.521 54.6151 125.636 55.7519C127.577 56.4527 129.704 56.3468 131.243 54.8549C131.547 54.5598 131.818 54.233 132.052 53.88" stroke="black" strokeWidth="0.8" stroke-miterlimit="10"/>
<path d="M278 218.817C276.505 218.817 8.84277 218.817 8.84277 218.817" stroke="black" strokeWidth="0.8" strokeLinecap="round" stroke-linejoin="round"/>
<path d="M205.624 140.53C205.624 146.332 203.319 151.897 199.216 156C195.114 160.103 189.549 162.408 183.747 162.408H144.692" stroke="black" strokeWidth="0.8" strokeLinecap="round" stroke-linejoin="round"/>
<path d="M146.084 193.897C146.084 193.897 143.135 204.2 144.692 207.271C146.25 210.342 148.788 207.916 149.053 205.387" stroke="black" strokeWidth="0.8" strokeLinecap="round" stroke-linejoin="round"/>
<path d="M72.8717 184.601L67.3825 215.288C67.2298 216.149 66.7786 216.929 66.1082 217.491C65.4378 218.052 64.591 218.36 63.7164 218.359H35.0694C34.1861 218.36 33.3314 218.047 32.6577 217.475C31.9841 216.904 31.5353 216.112 31.3915 215.241L26.3315 184.601H72.8717Z" fill="#23272B"/>
<path d="M78.097 181.179C78.0218 182.112 77.5978 182.982 76.9096 183.617C76.2214 184.251 75.3196 184.602 74.3837 184.601H24.9021C23.9756 184.601 23.0824 184.255 22.3967 183.632C21.711 183.009 21.2818 182.153 21.1928 181.231C21.144 180.714 21.2036 180.193 21.3678 179.7C21.532 179.208 21.7971 178.755 22.1463 178.371C22.4954 177.987 22.9209 177.681 23.3954 177.47C23.87 177.26 24.3831 177.152 24.9021 177.151H74.3837C74.8985 177.151 75.4077 177.258 75.8792 177.464C76.3508 177.671 76.7743 177.973 77.1232 178.351C77.4721 178.73 77.7388 179.177 77.9064 179.663C78.074 180.15 78.1389 180.666 78.097 181.179Z" fill="#23272B"/>
<path opacity="0.75" d="M60.9485 107.595C60.346 110.351 59.3734 113.017 57.2234 115.435C56.9793 115.703 56.7351 115.966 56.4555 116.222C55.0253 117.548 53.5128 118.781 51.9271 119.916C51.2971 120.381 50.6828 120.845 50.0922 121.334C49.7417 120.767 49.8717 119.853 49.407 119.101C49.0455 118.464 48.7207 117.806 48.4344 117.132C48.4344 117.097 48.2454 116.215 48.2099 116.191C47.0785 114.608 45.8461 113.099 44.5203 111.674C42.3269 109.41 39.1019 106.898 38.8342 106.618L38.8105 106.595C38.8105 106.595 39.4682 87.2998 50.3363 81.1963C59.6845 75.9236 60.8225 100.546 60.9485 107.595Z" fill="#E4E5E6"/>
<path opacity="0.75" d="M94.0294 84.5867C94.0294 84.6103 94.0294 84.634 94.0057 84.6576C93.8443 85.2837 93.6828 85.9137 93.5411 86.5398C93.4938 86.7367 93.4505 86.9336 93.4151 87.1068C93.2615 87.7605 93.1237 88.4102 93.0213 89.0757C93.0188 89.0813 93.0175 89.0873 93.0175 89.0935C93.0175 89.0996 93.0188 89.1056 93.0213 89.1112C92.9032 89.7373 92.8008 90.3516 92.7063 90.9816C92.659 91.2257 92.6236 91.4699 92.6 91.7101C92.5094 92.3401 92.4267 92.9544 92.3558 93.5805C91.962 97.1481 92.9032 101.133 91.8715 104.606C91.1863 106.87 89.3159 108.764 87.2486 110.611C86.9335 110.887 86.6067 111.166 86.2956 111.458L85.3191 112.304C84.8426 112.734 84.3661 113.163 83.9133 113.596C83.7637 113.734 83.6101 113.872 83.4723 114.025C83.3345 114.179 83.1809 114.317 83.0312 114.466C81.6255 115.931 80.5111 117.486 80.1724 119.274C80.0487 119.933 80.0327 120.607 80.1252 121.271C80.1373 121.413 80.161 121.554 80.1961 121.692C80.2126 121.833 80.2403 121.973 80.2788 122.109C80.3024 122.2 80.326 122.294 80.3457 122.385C80.4402 122.735 80.5465 123.082 80.6725 123.432C81.0574 124.41 81.4911 125.369 81.972 126.303C82.0665 126.488 82.161 126.661 82.2398 126.846C82.7044 127.752 83.1573 128.67 83.5195 129.603C83.5983 129.812 83.6692 130.02 83.7519 130.233C83.8345 130.446 83.8542 130.579 83.9133 130.753L83.9842 131.032C84.0393 131.253 84.0866 131.473 84.1338 131.694C84.1811 131.914 84.1929 132.056 84.2165 132.229C84.2165 132.277 84.2165 132.332 84.2165 132.391C84.2836 132.999 84.2557 133.614 84.1338 134.214C83.807 135.935 82.7635 137.396 81.3774 138.778C80.1882 139.909 78.9268 140.961 77.6011 141.928C76.9278 142.44 76.2544 142.948 75.6047 143.472C74.9549 143.995 74.3288 144.519 73.7342 145.047C73.5964 145.188 73.4429 145.326 73.305 145.464C72.6249 146.118 72.0212 146.847 71.5055 147.638C68.9499 151.599 70.147 156.139 68.82 160.368C68.6306 160.981 68.3868 161.575 68.0915 162.144C67.9932 162.353 67.88 162.554 67.7528 162.747C67.6605 162.939 67.5512 163.122 67.426 163.294C67.2718 163.556 67.1021 163.808 66.918 164.05C66.7408 164.294 66.5558 164.538 66.3589 164.771C66.2363 164.933 66.1048 165.088 65.9651 165.235C65.8351 165.397 65.6973 165.547 65.5477 165.7C65.5048 165.747 65.4573 165.789 65.4059 165.826C65.2092 166.046 65.0002 166.256 64.7798 166.452C64.4097 166.803 63.9923 167.149 63.5985 167.476C63.4016 167.637 63.2047 167.791 62.9842 167.953C62.9252 168 62.8661 168.035 62.7991 168.09C62.7322 168.145 62.681 168.173 62.6101 168.22C62.4487 168.334 62.2872 168.453 62.114 168.555C62.0431 168.614 61.9604 168.661 61.8935 168.709L61.5666 168.917C61.4485 168.996 61.3225 169.067 61.1965 169.138C60.9405 169.299 60.6728 169.461 60.4089 169.614C60.2121 169.717 60.0152 169.835 59.7947 169.937C59.6894 169.999 59.5802 170.055 59.4678 170.103L59.2119 170.24C59.0386 170.335 58.8654 170.414 58.6803 170.496C58.4125 170.622 58.1566 170.74 57.8927 170.855C57.6289 170.969 57.3454 171.075 57.0816 171.181L56.4161 171.426C56.2074 171.504 55.9987 171.575 55.79 171.646L55.6758 171.682C55.282 171.819 54.8607 171.945 54.4551 172.075C54.3403 172.113 54.2232 172.143 54.1046 172.166C53.9904 172.213 53.8605 172.237 53.7463 172.272C53.5021 172.075 53.2462 171.878 52.9902 171.646C52.9614 171.625 52.935 171.602 52.9115 171.575C52.9115 171.575 52.9115 171.575 52.8879 171.575C52.8642 171.575 52.8642 171.575 52.8524 171.552C52.7225 171.437 52.6083 171.319 52.4587 171.205C51.9861 170.764 51.4978 170.264 51.0096 169.717L50.7182 169.394C50.6827 169.358 50.6473 169.311 50.6119 169.276C50.5666 169.214 50.5165 169.156 50.4622 169.102C50.0448 168.626 49.6392 168.114 49.2415 167.59C49.0683 167.393 48.9186 167.196 48.7769 166.988C48.695 166.893 48.6213 166.792 48.5564 166.685C48.3831 166.452 48.2216 166.22 48.0602 165.988C47.9893 165.897 47.9302 165.814 47.8712 165.724L47.5955 165.33C47.5719 165.306 47.5601 165.271 47.5365 165.251L46.8828 164.338C48.6802 161.344 50.142 158.162 51.2419 154.848C51.3206 154.604 51.3797 154.359 51.4388 154.115C51.5478 153.641 51.6254 153.159 51.6711 152.674V152.615C51.7495 151.549 51.7059 150.478 51.5412 149.422C51.3915 148.449 51.1828 147.453 50.9387 146.472C50.8087 145.972 50.6827 145.484 50.5449 144.988L50.1511 143.499C49.8237 142.277 49.5713 141.035 49.3951 139.782C49.3754 139.632 49.3636 139.479 49.3518 139.329L49.3163 138.994C49.3163 138.829 49.2927 138.668 49.2809 138.494C49.2691 138.321 49.2809 138.203 49.2809 138.065V138.006C49.2809 137.656 49.2573 137.309 49.2573 136.97C49.2573 136.632 49.2573 136.297 49.2809 135.962C49.2809 135.809 49.2809 135.647 49.3045 135.498C49.3045 135.23 49.3281 134.962 49.3518 134.71C49.3754 134.458 49.3872 134.175 49.4069 133.923C49.4266 133.671 49.4542 133.387 49.4896 133.135C49.525 132.883 49.5487 132.6 49.5723 132.347C49.651 131.56 49.7574 130.745 49.8519 129.942C49.8519 129.894 49.8519 129.835 49.8519 129.792C49.907 129.315 49.9542 128.827 50.0133 128.351V128.327C50.0606 127.839 50.1039 127.362 50.1393 126.874C50.1341 126.836 50.1341 126.798 50.1393 126.76C50.1629 126.319 50.1984 125.878 50.2102 125.437C50.2102 125.354 50.2102 125.271 50.2102 125.193V125.134C50.2102 124.83 50.2102 124.539 50.2102 124.24C50.7772 123.763 51.36 123.322 51.9625 122.881C53.5477 121.744 55.0614 120.511 56.4948 119.188C56.7705 118.932 57.0146 118.664 57.2588 118.4C59.4088 115.986 60.3853 113.324 60.9878 110.56C61.9289 106.319 61.9998 101.873 64.1144 97.8175C64.2876 97.4828 64.4727 97.156 64.6814 96.8331C64.9156 96.4458 65.1719 96.0724 65.4492 95.7148C65.9768 95.0208 66.5504 94.363 67.1661 93.7459C68.2761 92.6554 69.4864 91.6718 70.7809 90.8083C71.5921 90.261 72.4624 89.7491 73.3562 89.2608C74.2501 88.7725 75.1912 88.3315 76.156 87.9259C77.1207 87.5203 78.1445 87.1383 79.1762 86.7879C79.5267 86.6737 79.8732 86.5556 80.2236 86.4532C80.2236 86.4532 80.2236 86.4532 80.2473 86.4532C81.2908 86.15 82.3697 85.8704 83.4644 85.6263C83.8227 85.5593 84.1929 85.4766 84.567 85.4058C87.6813 84.7854 90.8547 84.5107 94.0294 84.5867Z" fill="#CBCCCF"/>
<path d="M49.2879 137.994C49.1265 133.824 50.0755 129.524 50.2409 125.37C50.4259 129.481 49.4258 133.777 49.2879 137.994Z" fill="#3FBDF1"/>
<path d="M51.2414 156.817C50.2694 159.748 49.0125 162.577 47.4887 165.263L46.8823 164.338C48.6797 161.344 50.1416 158.162 51.2414 154.848C51.4675 154.13 51.6115 153.389 51.6706 152.639C51.7966 154.046 51.6508 155.464 51.2414 156.817Z" fill="#3FBDF1"/>
<path d="M51.6706 152.603C51.6126 153.357 51.4686 154.103 51.2414 154.824C50.1391 158.145 48.6774 161.335 46.8823 164.338C46.268 165.381 45.6301 166.381 44.9804 167.311C44.6299 167.799 44.2834 168.275 43.9448 168.728C43.7243 169.028 43.4919 169.307 43.2596 169.587C43.0273 169.866 42.795 170.13 42.5744 170.374C42.4721 170.516 42.3421 170.642 42.2279 170.768C42.0074 170.989 41.7869 171.209 41.5743 171.406C41.3419 171.323 41.1096 171.256 40.8773 171.162C40.7779 171.137 40.6815 171.101 40.5898 171.055C40.2748 170.953 39.9598 170.823 39.6605 170.697L39.5069 170.626C39.3219 170.559 39.1368 170.477 38.9517 170.394C38.7928 170.329 38.6377 170.256 38.4871 170.173C38.0933 170 37.6995 169.803 37.3491 169.606C36.9986 169.409 36.6166 169.213 36.2544 168.988C34.8524 168.16 33.544 167.183 32.3521 166.074C32.0646 165.806 31.7732 165.527 31.5055 165.251C30.7725 164.499 30.1046 163.686 29.509 162.822C29.4275 162.72 29.3538 162.612 29.2885 162.499C28.6623 161.572 28.1345 160.582 27.7134 159.545C27.5953 159.27 27.4929 158.99 27.3984 158.711C27.2585 158.343 27.1414 157.967 27.0479 157.584C25.7721 152.694 26.9219 147.421 24.4845 142.834C23.6666 141.386 22.65 140.061 21.4642 138.896C21.3107 138.735 21.161 138.581 20.9996 138.431C19.4639 136.907 17.7588 135.458 16.2743 133.934C14.3369 131.966 12.754 129.823 12.3366 127.24C12.3129 127.114 12.3011 126.976 12.2893 126.846C11.7459 121.842 15.6836 117.16 16.1955 112.304C16.2825 111.518 16.2666 110.724 16.1483 109.942C15.1009 103.322 6.51658 99.4083 4.91392 92.9386C4.61221 91.6476 4.45635 90.3267 4.44927 89.0009C4.39414 87.225 4.49652 85.4136 4.52015 83.6219C4.56781 82.4678 4.54414 81.3119 4.44927 80.1607C4.09489 76.1993 3.44333 72.2702 2.50009 68.4065C2.35046 67.7568 2.17326 67.0952 2 66.4376C10.5488 65.847 19.2118 68.6782 25.1815 73.498C25.969 74.1412 26.7014 74.804 27.3787 75.4866C29.153 77.2577 30.5865 79.3399 31.6078 81.6294C34.9628 89.375 32.9427 98.4121 38.1917 105.465C39.1257 106.675 40.164 107.802 41.2947 108.831C41.7475 109.261 42.2004 109.678 42.665 110.111C43.5943 110.958 44.5236 111.804 45.3821 112.675C46.4532 113.723 47.4041 114.888 48.2172 116.148C48.355 116.38 48.4929 116.624 48.611 116.868C48.7055 117.045 48.7961 117.231 48.8788 117.416C48.9615 117.601 49.0756 117.833 49.1583 118.054C49.241 118.274 49.308 118.447 49.3789 118.624C49.3789 118.648 49.3789 118.672 49.4025 118.691C49.4694 118.904 49.5403 119.113 49.5994 119.321C49.6584 119.53 49.7254 119.774 49.7844 120.007C49.8435 120.239 49.875 120.4 49.9104 120.585C49.9459 120.771 50.0168 121.086 50.0522 121.33C50.2365 122.661 50.2985 124.007 50.2373 125.35C50.0995 129.508 49.1229 133.804 49.2844 137.986C49.2844 138.589 49.3434 139.168 49.4104 139.762C49.9616 144.066 52.029 148.39 51.6706 152.603Z" stroke="black" strokeWidth="0.8" strokeLinecap="round" stroke-linejoin="round"/>
<path d="M9.70996 73.8564C28.5481 97.0418 37.4119 145.917 40.8771 171.158C41.1725 173.343 41.4402 175.352 41.6647 177.147" stroke="black" strokeWidth="0.8" strokeLinecap="round" stroke-linejoin="round"/>
<path d="M91.8474 104.59C90.1738 110.15 81.2391 113.545 80.1483 119.258C79.1836 124.322 85.1099 129.052 84.1215 134.194C83.0898 139.707 74.5961 142.767 71.4853 147.657C68.9297 151.619 70.1268 156.159 68.7998 160.388C67.3034 165.196 62.2749 169.48 55.6202 171.725C55.2264 171.863 54.8051 171.989 54.3995 172.119C54.1671 172.19 53.923 172.256 53.6907 172.316C51.6942 170.772 49.4379 168.157 47.5006 165.267L46.8823 164.338C46.268 165.381 45.6301 166.381 44.9804 167.311C44.6299 167.799 44.2834 168.275 43.9448 168.728C43.7243 169.028 43.4919 169.307 43.2596 169.587C43.0273 169.866 42.795 170.13 42.5744 170.374C42.4721 170.516 42.3421 170.642 42.2279 170.768C42.0074 171 41.7869 171.221 41.5743 171.418C41.3419 171.335 41.1096 171.268 40.8773 171.174L40.5898 171.067C40.2732 170.962 39.9629 170.838 39.6605 170.697L39.507 170.626C39.312 170.555 39.1225 170.469 38.9399 170.37C38.7903 170.315 38.6367 170.244 38.4871 170.173C38.0933 170 37.6995 169.803 37.3491 169.606C36.9986 169.409 36.6166 169.213 36.2544 168.988C34.8524 168.16 33.544 167.183 32.3521 166.074C32.0646 165.806 31.7732 165.527 31.5055 165.251C30.7725 164.499 30.1046 163.686 29.509 162.822C29.4275 162.72 29.3538 162.612 29.2885 162.499C28.6623 161.572 28.1345 160.582 27.7134 159.545C27.5953 159.27 27.4929 158.99 27.3984 158.711C27.2585 158.343 27.1414 157.967 27.0479 157.584C25.7721 152.694 26.9219 147.421 24.4845 142.834C23.6666 141.386 22.65 140.061 21.4642 138.896C21.3107 138.735 21.161 138.581 20.9996 138.431C19.4639 136.919 17.7588 135.47 16.2743 133.934C14.3369 131.966 12.754 129.823 12.3366 127.24C12.3129 127.114 12.3011 126.976 12.2893 126.846C11.7459 121.842 15.6836 117.16 16.1955 112.304C16.2825 111.518 16.2666 110.724 16.1483 109.942C15.1009 103.322 6.51658 99.4083 4.91392 92.9386C4.61221 91.6476 4.45635 90.3267 4.44927 89.0009C4.39414 87.225 4.49652 85.4136 4.52015 83.6219C4.56781 82.4678 4.54414 81.3119 4.44927 80.1607C4.09489 76.1993 3.44333 72.2702 2.50009 68.4065C2.35046 67.7568 2.17326 67.0952 2 66.4376C10.5488 65.847 19.2119 68.6782 25.1815 73.498C25.9512 74.1184 26.6848 74.7824 27.3787 75.4866C29.153 77.2577 30.5865 79.3399 31.6079 81.6294C34.9628 89.375 32.9427 98.4121 38.1917 105.465C39.1257 106.675 40.164 107.802 41.2947 108.831C41.7475 109.261 42.2004 109.69 42.665 110.111C43.5943 110.958 44.5236 111.804 45.3821 112.675C46.4532 113.723 47.4041 114.888 48.2172 116.148C48.355 116.38 48.4929 116.624 48.611 116.868C48.7055 117.045 48.7961 117.231 48.8788 117.416C48.9615 117.601 49.0757 117.833 49.1583 118.054C49.241 118.274 49.308 118.447 49.3789 118.624C49.3789 118.648 49.3789 118.672 49.4025 118.691C49.4694 118.904 49.5403 119.113 49.5994 119.321C49.6584 119.53 49.7254 119.774 49.7844 120.007C49.8435 120.239 49.875 120.4 49.9105 120.585C49.9459 120.771 50.0168 121.086 50.0522 121.33C52.466 119.388 55.2658 117.577 57.2189 115.423C62.6648 109.324 60.5738 101.531 64.0706 94.8405C68.3233 86.6737 81.7116 80.9718 94.8715 81.7279C93.6262 85.5802 92.7739 89.5487 92.3278 93.5726C91.9379 97.1323 92.879 101.117 91.8474 104.59Z" stroke="black" strokeWidth="0.8" strokeLinecap="round" stroke-linejoin="round"/>
<path d="M38.1802 105.473C38.1802 105.473 39.4757 85.3231 50.3438 79.1999C61.212 73.0768 60.9757 107.418 60.9757 107.418" stroke="black" strokeWidth="0.8" strokeLinecap="round" stroke-linejoin="round"/>
<path d="M50.0329 121.35C50.0329 121.35 47.812 109.824 51.7064 98.5106" stroke="black" strokeWidth="0.8" strokeLinecap="round" stroke-linejoin="round"/>
<path d="M86.8424 88.1228C67.2206 108.138 57.9906 150.339 54.3994 172.111C54.108 173.95 53.8402 175.631 53.6118 177.147" stroke="black" strokeWidth="0.8" strokeLinecap="round" stroke-linejoin="round"/>
</svg>
