<svg width="280" height="221" viewBox="0 0 280 221" fill="none" xmlns="http://www.w3.org/2000/svg">
<path d="M87.9163 118.46C70.5932 116.491 66.8351 78.5791 67.1215 59.8692C67.9944 58.1935 72.8342 52.4246 85.2103 42.7553C100.68 30.6686 121.278 86.2041 121.31 88.6806C121.342 91.1571 109.57 120.92 87.9163 118.46Z" fill="white" stroke="black" strokeWidth="0.8"/>
<path d="M77.8662 31.8488C91.4499 27.7708 102.67 28.3719 106.291 35.4314C106.291 60.5092 68.8014 61.8383 65.2483 57.6587C61.6952 53.479 53.3167 39.2188 77.8662 31.8488Z" fill="white" stroke="black" strokeWidth="0.8"/>
<ellipse cx="70.672" cy="47.8963" rx="9.76228" ry="11.3893" fill="white" stroke="black" strokeWidth="0.8"/>
<path d="M179.026 99.0319L173.713 99.0319L173.588 83.1492C175.542 83.1492 179.352 83.1515 180.59 83.1492L181.85 83.1492C183.325 83.1492 184.816 83.983 185.169 85.3455C185.465 86.5018 185.194 87.7249 185.194 88.8869L185.194 94.1337C185.194 96.8385 181.961 99.0319 179.026 99.0319Z" fill="white" stroke="black" strokeWidth="0.8" stroke-miterlimit="10"/>
<rect width="5.20781" height="158.521" transform="matrix(-0.998308 -0.0581391 -0.0683776 0.99766 184.131 60.6732)" fill="white" stroke="black" strokeWidth="0.8" stroke-miterlimit="10"/>
<path d="M177 86.1524C177 84.1042 182.334 84.0188 185 84.2322C185.834 85.1525 187 87.209 185 88.0727C182.334 88.2861 177 88.2007 177 86.1524Z" fill="white" stroke="black"/>
<path d="M177 90.1524C177 88.1042 182.334 88.0188 185 88.2322C185.834 89.1525 187 91.209 185 92.0727C182.334 92.2861 177 92.2007 177 90.1524Z" fill="white" stroke="black"/>
<path d="M177.758 93.8194C177.758 92.1122 182.204 92.0411 184.426 92.2189C185.121 92.986 186.093 94.7 184.426 95.42C182.204 95.5978 177.758 95.5267 177.758 93.8194Z" fill="white" stroke="black"/>
<path d="M178 96.9864C178 95.4502 182.101 95.3862 184.151 95.5462C184.792 96.2365 185.689 97.7788 184.151 98.4267C182.101 98.5867 178 98.5226 178 96.9864Z" fill="white" stroke="black"/>
<path d="M174.787 99.1259V83.1429C145.494 82.0024 131.959 59.4738 128.686 47.8803C125.431 49.3665 119.999 56.0874 123.485 73.0725C124.373 77.3995 127.028 81.1102 130.8 84.2718C134.572 87.4343 139.442 90.03 144.713 92.1242C155.062 96.2366 166.887 98.3884 174.787 99.1259Z" fill="#2E2E2E" stroke="black" strokeWidth="0.8"/>
<path d="M100.954 118.772C111.372 123.094 125.264 121.773 130.907 120.573C141.977 42.5402 124.396 42.5403 117.884 39.5391C116.002 38.6719 109.423 31.3188 106.291 31.626C104.526 32.7107 104.526 38.1342 103.349 39.7613C99.6191 40.5604 96.7952 41.706 94.4419 42.5403C92.2713 66.1501 90.5348 114.45 100.954 118.772Z" fill="white"/>
<path d="M117.881 178.999L119.466 183.026" stroke="#CCDDE2" strokeWidth="0.8" stroke-miterlimit="10"/>
<path d="M63.2905 116.113H77.7882C77.7882 116.113 80.111 99.3412 84.9961 85.0272C84.9961 85.7041 85.2545 128.896 85.3112 131.58V131.688C85.3118 131.603 85.3202 131.518 85.3364 131.435C85.3514 131.358 85.3746 131.283 85.4058 131.211C85.4058 131.211 85.4058 131.211 85.4058 131.197C85.4363 131.117 85.4787 131.042 85.5318 130.973C85.5782 130.901 85.6332 130.834 85.6957 130.773C85.7237 130.738 85.7578 130.709 85.7966 130.685C85.8606 130.628 85.9314 130.577 86.0077 130.534C86.2329 130.418 86.4871 130.358 86.7452 130.36H99.3519C101.284 130.362 103.193 129.973 104.944 129.22C106.695 128.467 108.245 127.368 109.484 126.002C109.851 125.595 110.188 125.166 110.493 124.718C110.911 124.121 111.266 123.489 111.555 122.83C111.935 121.99 112.208 121.113 112.368 120.215C112.907 117.231 113.465 113.751 113.979 109.931C114.08 109.167 114.184 108.388 114.294 107.606C114.341 107.208 114.388 106.813 114.442 106.415C114.537 105.608 114.631 104.803 114.723 103.981C114.814 103.159 114.902 102.331 114.99 101.485C115.079 100.64 115.154 99.8002 115.233 98.949C115.271 98.5161 115.302 98.0774 115.34 97.6591C115.413 96.802 115.482 95.9305 115.545 95.0589C116.175 86.1864 116.311 76.8026 115.366 68.3543C115.28 67.5757 115.186 66.8058 115.076 66.0301C114.811 64.1185 114.483 62.2679 114.089 60.4957C113.935 59.781 113.774 59.0896 113.582 58.404C113.222 57.0269 112.825 55.7167 112.371 54.4558C111.557 52.1042 110.444 49.8496 109.056 47.739C108.542 46.9766 107.959 46.2555 107.313 45.5833C104.42 42.5764 100.461 40.9205 96.1151 42.0738L94.637 42.4631C68.6074 53.1862 62.3923 88.926 63.2905 116.113Z" fill="#2E2E2E"/>
<path d="M59.9122 195.024L66.1462 216.279C66.2786 216.73 66.5844 217.123 67.0068 217.382C67.4293 217.642 67.9396 217.751 68.443 217.69C68.9464 217.629 69.4087 217.402 69.7438 217.05C70.079 216.699 70.2644 216.247 70.2654 215.779C70.2731 215.696 70.2731 215.612 70.2654 215.529L68.9039 205.756L73.8804 202.072L65.79 190.565L59.9122 195.024Z" fill="#3FBDF1"/>
<path d="M134.635 208.199L137.131 218.736H160.195C160.624 218.734 161.034 218.576 161.338 218.296C161.641 218.017 161.812 217.638 161.815 217.243C161.815 216.911 161.696 216.589 161.477 216.326C161.257 216.064 160.949 215.875 160.602 215.79L149.47 213.094L148.679 208.193L134.635 208.199Z" fill="#3FBDF1"/>
<path d="M130.153 120.436V120.465L130.67 122.484C131.758 122.406 133.236 122.194 134.805 121.929C140.084 121.058 140.478 119.283 140.311 114.347C140.091 107.824 139.583 98.1733 138.42 87.9528C136.283 68.8192 131.849 47.6809 122.731 41.2662C121.214 40.5359 119.596 40.0002 117.922 39.6742C117.626 39.6161 117.314 39.558 117.008 39.5144C121.2 40.8043 140.696 53.1514 130.153 120.436Z" fill="#2E2E2E"/>
<path d="M106.311 28.832L105.397 32.141L107.376 32.8121C107.621 32.8929 107.891 32.8815 108.127 32.7803C108.363 32.6792 108.546 32.4965 108.637 32.2717L109.898 29.1806C110.327 28.1431 110.497 27.0297 110.396 25.9232C110.294 24.8167 109.924 23.7455 109.311 22.7891C109.308 22.7787 109.303 22.7688 109.296 22.7601C109.059 22.3898 108.977 21.9529 109.064 21.5308C109.152 21.1088 109.403 20.7305 109.77 20.4666C110.138 20.2026 110.598 20.071 111.063 20.0964C111.528 20.1218 111.968 20.3023 112.299 20.6044C112.929 21.1855 113.383 21.6648 113.626 22.4638C113.838 23.2092 113.909 23.9825 113.837 24.7501C113.761 25.982 113.32 27.7657 113.588 28.9976C113.979 30.8191 116.535 31.8301 118.287 32.1933C118.967 32.3363 119.661 32.4113 120.358 32.417C124.181 32.446 124.603 26.5194 124.55 23.8873C123.579 24.2853 122.586 25.6304 120.241 25.6304C117.209 25.6304 116.081 21.4731 116.081 21.4731L114.852 16.6911C114.773 16.3849 114.771 16.0661 114.845 15.7589C114.92 15.4518 115.069 15.1641 115.281 14.9177C115.493 14.6713 115.764 14.4725 116.072 14.3364C116.379 14.2002 116.717 14.1302 117.058 14.1316H121.849C122.036 14.0467 122.216 13.9497 122.388 13.8411C126.053 11.6593 122.765 8.84729 122.765 8.84729C121.804 10.8083 116.954 8.34447 112.378 9.22184C107.802 10.0992 102.059 11.8685 102.271 18.8293C102.482 25.7902 106.311 28.832 106.311 28.832Z" fill="#353642"/>
<path d="M85.0022 85.0215C85.0022 85.6984 85.2606 128.89 85.3174 131.574" stroke="black" strokeWidth="0.8" stroke-miterlimit="10"/>
<path d="M63.2088 116.113V121.011C63.2088 123.716 65.5883 126.696 68.5225 126.696H74.2144C75.4751 126.696 76.8019 126.946 78.0563 126.673C79.5344 126.348 80.439 124.974 80.439 123.614V122.452C80.4365 121.311 79.944 120.218 79.0693 119.411C78.1946 118.604 77.0088 118.15 75.7713 118.146C75.701 118.146 75.6313 118.134 75.5663 118.109C75.5013 118.084 75.4422 118.048 75.3925 118.002C75.3427 117.956 75.3033 117.901 75.2763 117.842C75.2494 117.782 75.2356 117.717 75.2356 117.653V116.113" fill="white"/>
<path d="M63.2088 116.113V121.011C63.2088 123.716 65.5883 126.696 68.5225 126.696H74.2144C75.4751 126.696 76.8019 126.946 78.0563 126.673C79.5344 126.348 80.439 124.974 80.439 123.614V122.452C80.4365 121.311 79.944 120.218 79.0693 119.411C78.1946 118.604 77.0088 118.15 75.7713 118.146C75.701 118.146 75.6313 118.134 75.5663 118.109C75.5013 118.084 75.4422 118.048 75.3925 118.002C75.3427 117.956 75.3033 117.901 75.2763 117.842C75.2494 117.782 75.2356 117.717 75.2356 117.653V116.113H63.2088Z" stroke="black" strokeWidth="0.8" stroke-miterlimit="10"/>
<path d="M77.4136 126.763C77.4136 126.763 74.971 127.202 74.6811 125.142" stroke="black" strokeWidth="0.8" stroke-miterlimit="10"/>
<path d="M72.3042 126.659C72.3042 126.659 69.8585 127.1 69.5686 125.041" stroke="black" strokeWidth="0.8" stroke-miterlimit="10"/>
<path d="M130.809 122.481L130.286 120.433" stroke="black" strokeWidth="0.8" stroke-miterlimit="10"/>
<path d="M134.635 208.199H125.748C125.748 208.199 123.582 193.673 116.715 173.813" stroke="black" strokeWidth="0.8" stroke-miterlimit="10"/>
<path d="M59.9216 195.024L66.1525 216.279C66.2872 216.729 66.5939 217.119 67.0161 217.377C67.4382 217.635 67.9474 217.743 68.4496 217.682C68.9518 217.622 69.4132 217.395 69.7486 217.046C70.0841 216.696 70.271 216.246 70.2749 215.779C70.2825 215.696 70.2825 215.612 70.2749 215.529L68.9133 205.756L73.8804 202.072L65.7806 190.565L59.9216 195.024Z" fill="#353642" stroke="black" strokeWidth="0.8" stroke-miterlimit="10"/>
<path d="M96.8877 134.326L99.5855 150.13C100.262 154.096 99.8057 158.156 98.2622 161.91C96.7187 165.664 94.1409 168.982 90.7829 171.539L65.7871 190.553" stroke="black" strokeWidth="0.8" stroke-miterlimit="10"/>
<path d="M73.8801 202.072L78.5319 208.812C78.5319 208.812 100.89 195.097 116.714 173.813C112.204 160.76 105.652 145.403 96.3483 130.36" stroke="black" strokeWidth="0.8" stroke-miterlimit="10"/>
<path d="M134.635 208.199L137.131 218.736H160.195C160.587 218.734 160.966 218.601 161.26 218.362C161.554 218.122 161.744 217.793 161.795 217.434C161.846 217.075 161.754 216.711 161.536 216.41C161.318 216.109 160.99 215.891 160.611 215.796L149.476 213.1L148.685 208.199H134.635Z" fill="#353642" stroke="black" strokeWidth="0.8" stroke-miterlimit="10"/>
<path d="M103.244 39.9675C102.399 40.1273 101.564 40.3074 100.723 40.5021C98.6356 40.9923 96.5976 41.6454 94.6307 42.4544C68.6105 53.1775 62.3954 88.9173 63.2936 116.104H77.7913C77.7913 116.104 83.7795 72.898 96.736 65.9981" stroke="black" strokeWidth="0.8" stroke-miterlimit="10"/>
<path d="M130.295 120.436C140.837 53.1486 121.338 40.8044 117.14 39.5087C117.14 39.5087 117.14 39.5087 117.115 39.5087L116.872 39.436" stroke="black" strokeWidth="0.8" stroke-miterlimit="10"/>
<path d="M116.897 39.3196C119.066 39.324 121.168 40.0072 122.86 41.2573C122.86 41.2573 122.86 41.2573 122.876 41.2573C131.988 47.672 136.428 68.8103 138.568 87.9439C139.728 98.1644 140.232 107.813 140.459 114.338C140.629 119.277 140.229 121.02 134.956 121.917C133.381 122.182 131.906 122.394 130.815 122.472L148.685 208.199" stroke="black" strokeWidth="0.8" stroke-miterlimit="10"/>
<path d="M85.3337 131.447C85.3202 131.519 85.3128 131.591 85.3116 131.664C85.294 131.921 85.3634 132.177 85.5101 132.396C85.6569 132.615 85.8739 132.787 86.131 132.888C88.5547 133.925 92.1192 134.79 96.8877 134.34L96.2164 130.375H86.7614C86.5033 130.372 86.249 130.433 86.0239 130.549C85.9475 130.592 85.8767 130.642 85.8127 130.7C85.7739 130.723 85.7398 130.753 85.7118 130.787C85.6493 130.848 85.5944 130.915 85.548 130.988C85.4949 131.056 85.4524 131.132 85.4219 131.211C85.4219 131.211 85.4219 131.211 85.4219 131.226C85.3845 131.296 85.3549 131.37 85.3337 131.447Z" fill="black" stroke="black" strokeWidth="0.8" stroke-miterlimit="10"/>
<path d="M85.3078 131.595C85.309 131.546 85.3175 131.497 85.333 131.45C85.3479 131.373 85.3712 131.298 85.4023 131.226" stroke="black" strokeWidth="0.8" stroke-miterlimit="10"/>
<path d="M85.4088 131.197C85.4407 131.118 85.483 131.043 85.5349 130.973C85.5757 130.898 85.6312 130.83 85.6987 130.773" stroke="black" strokeWidth="0.8" stroke-miterlimit="10"/>
<path d="M85.7993 130.686C85.8635 130.628 85.9346 130.577 86.0112 130.534" stroke="black" strokeWidth="0.8" stroke-miterlimit="10"/>
<path d="M96.2158 130.36H99.3675C101.3 130.362 103.209 129.973 104.96 129.22C106.711 128.467 108.261 127.369 109.5 126.002C109.867 125.595 110.204 125.166 110.509 124.718C111.456 123.346 112.092 121.811 112.378 120.206C112.917 117.223 113.478 113.742 113.994 109.922C114.095 109.158 114.199 108.379 114.31 107.598C114.357 107.2 114.404 106.805 114.458 106.407C114.552 105.599 114.647 104.794 114.738 103.972C114.83 103.15 114.918 102.322 115.006 101.477C115.094 100.631 115.17 99.7916 115.249 98.9404C115.287 98.5075 115.318 98.0689 115.356 97.6505C115.428 96.7935 115.498 95.9219 115.561 95.0503C116.191 86.1779 116.327 76.7941 115.381 68.3457C115.296 67.5671 115.201 66.7973 115.091 66.0216C114.826 64.11 114.499 62.2593 114.105 60.4872C113.95 59.7725 113.79 59.0811 113.597 58.3954C113.238 57.0184 112.841 55.7081 112.387 54.4473C111.571 52.0948 110.455 49.8401 109.062 47.7304C108.551 46.9682 107.971 46.2471 107.329 45.5748C104.435 42.5679 100.477 40.9119 96.1307 42.0653L94.6526 42.4546H94.6211" stroke="black" strokeWidth="0.8" stroke-miterlimit="10"/>
<path d="M112.63 118.704C112.63 118.704 121.455 123.295 130.279 120.462" stroke="black" strokeWidth="0.8" stroke-miterlimit="10"/>
<path d="M119.365 19.6226C119.418 19.1064 119.665 18.6236 120.064 18.2583C120.463 17.893 120.989 17.6685 121.549 17.6238" stroke="black" strokeWidth="0.8" stroke-miterlimit="10"/>
<path d="M121.287 21.0054C120.934 21.0054 120.648 20.5735 120.648 20.0408C120.648 19.5081 120.934 19.0763 121.287 19.0763C121.641 19.0763 121.927 19.5081 121.927 20.0408C121.927 20.5735 121.641 21.0054 121.287 21.0054Z" fill="black"/>
<path d="M124.59 23.896C123.62 24.294 122.627 25.6391 120.282 25.6391C117.247 25.6391 116.122 21.4818 116.122 21.4818L114.861 16.6824C114.782 16.3761 114.779 16.0572 114.853 15.7497C114.927 15.4423 115.076 15.1544 115.289 14.9079C115.501 14.6613 115.772 14.4625 116.08 14.3265C116.388 14.1905 116.726 14.1209 117.067 14.1229H121.867C122.055 14.0374 122.236 13.9403 122.409 13.8324" stroke="black" strokeWidth="0.8" stroke-miterlimit="10"/>
<path d="M124.483 26.6008C124.483 26.6008 124.168 27.4404 121.924 27.8007" stroke="black" strokeWidth="0.8" stroke-miterlimit="10"/>
<path d="M118.319 32.2019C118.999 32.3448 119.695 32.4198 120.392 32.4256C124.386 32.4547 124.663 26.0342 124.575 23.5502C124.575 23.4863 124.575 23.4195 124.575 23.3556H125.482C125.589 23.3529 125.692 23.3255 125.784 23.276C125.875 23.2265 125.952 23.1565 126.006 23.0725C126.061 22.9884 126.091 22.8931 126.095 22.7953C126.099 22.6975 126.075 22.6005 126.028 22.5131L123.925 18.8787C123.585 18.2903 123.339 17.659 123.197 17.0048C123.007 15.9361 122.744 14.8794 122.41 13.8411C126.075 11.6593 118.749 8.97522 118.749 8.97522C117.784 10.9362 116.973 8.34443 112.4 9.2218C107.827 10.0992 102.081 11.8684 102.289 18.8293C102.497 25.7902 106.342 28.8319 106.342 28.8319L105.428 32.1409L107.404 32.812C107.649 32.892 107.919 32.8803 108.154 32.7792C108.39 32.6782 108.574 32.4959 108.665 32.2717L109.926 29.1776C110.355 28.1403 110.526 27.0271 110.425 25.9206C110.324 24.8142 109.954 23.7429 109.343 22.7862L109.324 22.7542C109.083 22.3843 108.997 21.9461 109.083 21.522C109.169 21.098 109.42 20.7175 109.789 20.4523C110.158 20.1872 110.62 20.0557 111.087 20.0826C111.554 20.1095 111.994 20.2931 112.324 20.5986C112.955 21.1796 113.412 21.659 113.654 22.4579C113.864 23.2035 113.936 23.9766 113.865 24.7443C113.787 25.9761 113.348 27.7599 113.613 28.9917C114.004 30.8133 116.563 31.8243 118.312 32.1874L116.853 39.4504C116.853 39.4504 119.299 43.8082 116.431 45.8215C113.563 47.8348 103.232 39.9617 103.232 39.9617L105.406 32.1351" stroke="black" strokeWidth="0.8" stroke-miterlimit="10"/>
<path d="M124.575 23.3558H123.204" stroke="black" strokeWidth="0.8" stroke-miterlimit="10"/>
<path d="M160.195 218.736H233.376" stroke="black" strokeWidth="0.8" stroke-miterlimit="10"/>
<path d="M36.8328 218.736H137.131" stroke="black" strokeWidth="0.8" stroke-miterlimit="10"/>
<path d="M84.0262 97.7133C118.837 61.9974 101.432 43.0152 96.8772 41.3882C95.7005 41.3882 94.5237 41.3882 92.1704 43.0152C105.923 49.5234 96.8772 81.522 84.0262 92.9113C84.0262 94.512 83.9366 95.6951 84.0262 97.7133Z" fill="white" stroke="black" strokeWidth="0.8"/>
<path d="M108.116 3.4084C115.93 1.4876 121.652 4.50853 122.195 9.38968C124.365 9.18959 127.832 7.70047 133.042 7.22027C138.251 6.74008 137.381 10.2761 134.669 11.0168C122.948 14.2181 102.574 18.371 101.585 18.0673C99.632 17.467 98.3486 5.80939 108.116 3.4084Z" fill="white"/>
<path d="M122.195 9.38968C121.652 4.50853 115.93 1.4876 108.116 3.4084C98.3486 5.80939 99.632 17.467 101.585 18.0673C102.574 18.371 122.948 14.2181 134.669 11.0168C137.381 10.2761 138.251 6.74008 133.042 7.22027C127.832 7.70047 124.365 9.18959 122.195 9.38968ZM122.195 9.38968C122.195 9.75124 122.131 10.3107 121.967 10.9504" stroke="black" strokeWidth="0.8"/>
<path d="M208.068 72.7606C192.59 67.5205 184.29 50.7248 189.53 35.2464C194.77 19.768 211.566 11.4682 227.044 16.7083C242.523 21.9484 250.822 38.744 245.582 54.2224C240.342 69.7009 223.547 78.0006 208.068 72.7606Z" fill="#23272B"/>
<path d="M222.461 31.189C228.692 33.2985 232.014 40.1773 229.869 46.5149C226.771 55.7991 213.256 59.7914 212.722 59.9567C212.722 59.9567 204.087 48.1193 207.263 38.87C209.411 32.5253 216.229 29.0794 222.461 31.189ZM216.617 48.4496C219.739 49.5065 223.14 47.7879 224.216 44.609C225.292 41.4302 223.635 37.9994 220.513 36.9425C217.391 35.8856 213.99 37.6042 212.914 40.783C211.838 43.9619 213.495 47.3926 216.617 48.4496Z" fill="white"/>
<path d="M53.0854 169.39C44.8871 173.065 35.2613 169.399 31.5855 161.201C27.9098 153.002 31.576 143.377 39.7743 139.701C47.9726 136.025 57.5985 139.691 61.2742 147.89C64.95 156.088 61.2837 165.714 53.0854 169.39Z" fill="#23272B"/>
<path d="M42.8638 146.186C46.6259 144.499 51.0844 146.243 52.7999 150.07C55.334 155.655 50.8261 163.25 50.6509 163.554C50.6509 163.554 41.6382 161.796 39.1554 156.192C37.438 152.362 39.1016 147.873 42.8638 146.186ZM47.5361 156.607C49.421 155.762 50.2507 153.523 49.3902 151.604C48.5297 149.684 46.3061 148.814 44.4212 149.659C42.5363 150.505 41.7066 152.744 42.567 154.663C43.4275 156.582 45.6512 157.452 47.5361 156.607Z" fill="white"/>
<path d="M195.16 188.044C189.908 186.745 186.703 181.434 188.002 176.181C189.302 170.929 194.613 167.724 199.865 169.023C205.118 170.323 208.322 175.634 207.023 180.886C205.724 186.139 200.413 189.343 195.16 188.044Z" fill="#23272B"/>
<path d="M199.118 172.459C201.869 173.14 203.544 175.972 202.852 178.77C201.858 182.867 196.2 185.069 195.977 185.16C195.977 185.16 191.843 180.39 192.872 176.305C193.565 173.504 196.367 171.778 199.118 172.459ZM197.233 180.079C198.612 180.42 200.009 179.56 200.356 178.156C200.704 176.753 199.868 175.34 198.49 174.999C197.112 174.658 195.714 175.519 195.367 176.922C195.02 178.326 195.855 179.738 197.233 180.079Z" fill="white"/>
</svg>
