<svg width="260" height="221" viewBox="0 0 260 221" fill="none" xmlns="http://www.w3.org/2000/svg">
<path d="M241.873 184.305H235.308H65.4335C62.4815 184.303 59.6509 183.13 57.5635 181.043C55.4761 178.955 54.3028 176.125 54.3013 173.173H196.187C197.751 173.175 199.3 172.869 200.746 172.271C202.191 171.674 203.505 170.797 204.611 169.692C205.718 168.586 206.595 167.273 207.193 165.827C207.791 164.382 208.098 162.833 208.097 161.269H247.362C248.032 161.268 248.695 161.399 249.314 161.655C249.933 161.911 250.495 162.286 250.969 162.76C251.443 163.233 251.819 163.795 252.076 164.414C252.332 165.033 252.464 165.696 252.464 166.366V173.714C252.461 176.522 251.344 179.214 249.359 181.2C247.373 183.185 244.681 184.302 241.873 184.305Z" stroke="black" strokeWidth="0.8" stroke-miterlimit="10"/>
<path d="M24.0437 36.6948H160.533C164.929 36.6891 169.2 38.1629 172.656 40.879C176.113 43.5952 178.555 47.3956 179.59 51.6684L201.319 141.659C201.905 144.087 201.933 146.617 201.4 149.058C200.867 151.498 199.787 153.786 198.242 155.749C196.697 157.711 194.726 159.298 192.479 160.389C190.232 161.48 187.766 162.046 185.268 162.046H49.1301C44.7423 162.05 40.4802 160.58 37.0277 157.872C33.5751 155.165 31.1322 151.375 30.0907 147.113L8.01053 57.1394C7.4143 54.7087 7.37845 52.1743 7.90569 49.7277C8.43293 47.2811 9.50946 44.9864 11.0539 43.017C12.5983 41.0476 14.5703 39.4551 16.8207 38.3598C19.071 37.2646 21.5409 36.6952 24.0437 36.6948Z" fill="#23272B"/>
<path d="M24.0437 36.6948H160.533C164.929 36.6891 169.2 38.1629 172.656 40.879C176.113 43.5952 178.555 47.3956 179.59 51.6684L201.319 141.659C201.905 144.087 201.933 146.617 201.4 149.058C200.867 151.498 199.787 153.786 198.242 155.749C196.697 157.711 194.726 159.298 192.479 160.389C190.232 161.48 187.766 162.046 185.268 162.046H49.1301C44.7423 162.05 40.4802 160.58 37.0277 157.872C33.5751 155.165 31.1322 151.375 30.0907 147.113L8.01053 57.1394C7.4143 54.7087 7.37845 52.1743 7.90569 49.7277C8.43293 47.2811 9.50946 44.9864 11.0539 43.017C12.5983 41.0476 14.5703 39.4551 16.8207 38.3598C19.071 37.2646 21.5409 36.6952 24.0437 36.6948V36.6948Z" stroke="black" strokeWidth="0.8" stroke-miterlimit="10"/>
<path d="M87.9688 96.6354L79.8313 58.7006C79.6623 57.8983 79.2228 57.1785 78.5865 56.6616C77.9501 56.1448 77.1554 55.8622 76.3356 55.8613H36.0683C35.5267 55.8627 34.9924 55.9873 34.506 56.2257C34.0197 56.4641 33.5939 56.81 33.261 57.2373C32.928 57.6645 32.6967 58.162 32.5844 58.6919C32.4721 59.2217 32.4819 59.7702 32.6129 60.2958L42.029 98.6741C42.1458 99.2091 42.3953 99.7062 42.7546 100.12C43.077 100.529 43.488 100.861 43.9568 101.089C44.4255 101.318 44.9399 101.437 45.4613 101.438H45.5362L84.5077 100.978C85.0338 100.97 85.5518 100.846 86.0247 100.615C86.4976 100.384 86.9136 100.052 87.2432 99.6416C87.5789 99.2253 87.8181 98.7398 87.9436 98.22C88.069 97.7001 88.0777 97.159 87.9688 96.6354ZM35.3024 59.6162C35.2732 59.5026 35.2704 59.3838 35.2944 59.269C35.3184 59.1542 35.3684 59.0464 35.4406 58.954C35.5145 58.8576 35.6095 58.7795 35.7184 58.7256C35.8272 58.6716 35.9469 58.6434 36.0683 58.643H76.3356C76.517 58.642 76.6931 58.7041 76.8339 58.8186C76.9746 58.9331 77.0713 59.0929 77.1073 59.2707L83.304 88.1638C62.6118 68.1857 60.2678 91.1067 60.2678 91.1067C48.5885 85.0251 45.2137 91.6826 44.2347 96.0652L35.3024 59.6162Z" fill="#D8D9DB"/>
<path d="M46.9301 73.3858C49.1761 72.689 50.2416 69.7115 49.3201 66.7341C48.3987 63.7567 45.8244 61.9138 43.5611 62.6106C41.2978 63.3075 40.2496 66.2849 41.1768 69.2566C42.104 72.2282 44.6898 74.0827 46.9301 73.3858Z" fill="#D8D9DB"/>
<path d="M56.7892 72.706H70.0005C71.6418 72.706 73.2889 72.706 74.9302 72.706H75.1663C75.6285 72.7184 76.0879 72.632 76.514 72.4526C76.8083 72.3067 77.0586 72.0851 77.2392 71.8106C77.4198 71.5361 77.5242 71.2186 77.5417 70.8906C77.5593 70.5625 77.4894 70.2356 77.3392 69.9434C77.189 69.6512 76.9638 69.4042 76.6867 69.2276C76.3765 69.0865 76.0938 68.8916 75.8517 68.6517C75.6913 68.3988 75.5818 68.1171 75.5292 67.8224C75.2241 66.9886 74.6348 66.2891 73.8648 65.847C73.3046 65.4702 72.6742 65.2102 72.0112 65.0825C71.3482 64.9549 70.6663 64.9622 70.0062 65.1041C69.355 65.2683 68.7588 65.6022 68.2785 66.0716C67.8696 66.4748 67.789 67.0161 67.4723 67.4653C67.2649 67.759 67.1325 67.6669 66.8503 67.5056C66.5681 67.3444 66.4126 67.2234 66.1822 67.1083C65.7277 66.8651 65.2562 66.6553 64.7713 66.4805C63.7835 66.1146 62.73 65.9596 61.6787 66.0256C59.83 66.1695 57.9871 67.2695 57.3421 69.0087C56.7609 69.0164 56.2015 69.2311 55.7645 69.6143C55.3274 69.9975 55.0414 70.5241 54.9579 71.0993C54.9196 71.321 54.9341 71.5486 55.0001 71.7637C55.0662 71.9788 55.1819 72.1754 55.338 72.3375C55.7579 72.6389 56.2763 72.7705 56.7892 72.706Z" fill="#D8D9DB"/>
<path d="M151.503 71.8888L150.443 67.5292C149.733 64.5984 148.057 61.9918 145.686 60.1283C143.315 58.2649 140.386 57.2529 137.37 57.2551H122.817C121.157 57.2534 119.518 57.6347 118.029 58.3695C116.54 59.1044 115.241 60.1728 114.232 61.4918C113.224 62.8108 112.533 64.3447 112.214 65.9742C111.895 67.6037 111.957 69.2848 112.393 70.8868L113.597 75.3155C114.366 78.1649 116.053 80.6813 118.396 82.4751C120.74 84.269 123.609 85.2402 126.561 85.2383H141.027C142.661 85.2369 144.274 84.8644 145.743 84.149C147.212 83.4336 148.499 82.394 149.508 81.1085C150.517 79.823 151.221 78.3252 151.566 76.7281C151.912 75.1311 151.89 73.4764 151.503 71.8888ZM135.499 72.9658L130.529 76.0238C130.337 76.1455 130.12 76.2211 129.894 76.2448C129.669 76.2685 129.441 76.2396 129.228 76.1604C129.016 76.0812 128.824 75.9538 128.669 75.7882C128.514 75.6226 128.4 75.4234 128.334 75.2061L126.463 69.09C126.384 68.8185 126.384 68.5303 126.463 68.259C126.542 67.9876 126.696 67.7443 126.908 67.5572C127.12 67.3701 127.38 67.2471 127.659 67.2024C127.938 67.1577 128.224 67.1932 128.484 67.3047L135.378 70.3512C135.624 70.4621 135.835 70.6386 135.988 70.8614C136.141 71.0842 136.23 71.3448 136.245 71.6147C136.26 71.8846 136.2 72.1533 136.073 72.3916C135.945 72.6299 135.754 72.8285 135.522 72.9658H135.499Z" fill="white"/>
<path d="M148.255 111.05H122.794C121.628 111.048 120.488 110.707 119.513 110.069C118.538 109.431 117.769 108.523 117.3 107.456C117.154 107.128 117.076 106.773 117.069 106.414C117.075 105.719 117.355 105.055 117.848 104.566C118.341 104.076 119.007 103.801 119.701 103.799H146.769C145.496 105.953 146.141 108.931 148.255 111.05Z" fill="#D8D9DB"/>
<path d="M164.748 108.435C164.747 109.128 164.471 109.792 163.981 110.282C163.491 110.772 162.827 111.048 162.134 111.05H148.254C146.141 108.931 145.496 105.953 146.769 103.799H158.989C160.153 103.8 161.291 104.138 162.267 104.773C163.242 105.408 164.012 106.312 164.483 107.376C164.643 107.707 164.733 108.068 164.748 108.435Z" fill="#23272B"/>
<path d="M158.35 111.05C158.278 111.188 158.195 111.321 158.102 111.447C156.283 113.929 152.343 114.16 149.285 111.925C148.92 111.66 148.575 111.367 148.254 111.05C146.141 108.93 145.496 105.953 146.769 103.799C146.84 103.662 146.923 103.531 147.016 103.407C148.819 100.908 152.775 100.689 155.816 102.906C156.185 103.178 156.533 103.477 156.858 103.799C158.989 105.918 159.606 108.896 158.35 111.05Z" fill="white"/>
<path d="M171.124 124.445C171.118 125.14 170.838 125.804 170.345 126.293C169.852 126.783 169.186 127.058 168.492 127.06H67.5817C68.8718 124.894 68.2268 121.929 66.1074 119.815H165.399C166.564 119.815 167.703 120.154 168.678 120.791C169.653 121.428 170.421 122.336 170.887 123.403C171.037 123.73 171.117 124.085 171.124 124.445Z" fill="#23272B"/>
<path d="M67.5816 127.031H55.0096C53.8458 127.031 52.707 126.694 51.7317 126.059C50.7563 125.424 49.9864 124.519 49.5155 123.455C49.3674 123.121 49.289 122.76 49.2852 122.395C49.2844 122.052 49.3516 121.712 49.4827 121.395C49.6139 121.077 49.8066 120.789 50.0496 120.547C50.2926 120.304 50.5812 120.112 50.8987 119.982C51.2163 119.851 51.5565 119.785 51.8998 119.786H66.1073C68.2267 121.9 68.8717 124.866 67.5816 127.031Z" fill="#D8D9DB"/>
<path d="M67.5821 127.031C67.5229 127.173 67.4455 127.307 67.3517 127.429C65.5491 129.928 61.5927 130.141 58.5461 127.924C58.1792 127.652 57.8327 127.354 57.5095 127.031C55.4075 124.912 54.7624 121.952 56.0179 119.787C56.0878 119.647 56.1707 119.514 56.2656 119.389C58.0854 116.907 62.0246 116.677 65.0827 118.905C65.4476 119.171 65.7905 119.466 66.1078 119.787C68.2271 121.9 68.8721 124.866 67.5821 127.031Z" fill="white"/>
<path d="M76.4851 142.874H60.5095C59.346 142.873 58.2079 142.535 57.2328 141.9C56.2577 141.265 55.4875 140.361 55.0154 139.298C54.857 138.976 54.7669 138.625 54.7505 138.267C54.752 137.571 55.0292 136.904 55.5213 136.412C56.0135 135.92 56.6806 135.642 57.3766 135.641H74.982C73.7553 137.818 74.3831 140.778 76.4851 142.874Z" fill="#23272B"/>
<path d="M176.601 140.3C176.592 140.991 176.309 141.65 175.814 142.133C175.32 142.615 174.654 142.882 173.963 142.874H76.4856C74.3835 140.755 73.7385 137.795 74.994 135.629H170.876C172.041 135.629 173.18 135.968 174.155 136.606C175.13 137.243 175.898 138.15 176.365 139.217C176.517 139.558 176.597 139.927 176.601 140.3Z" fill="#D8D9DB"/>
<path d="M86.5754 142.874C86.5055 143.014 86.4226 143.147 86.3278 143.272C84.5252 145.771 80.5687 145.984 77.528 143.767C77.1592 143.495 76.8108 143.197 76.4856 142.874C74.3835 140.755 73.7385 137.795 74.994 135.629C75.066 135.491 75.1488 135.358 75.2416 135.232C77.0615 132.75 81.0007 132.531 84.0587 134.748C84.4249 135.012 84.7678 135.307 85.0838 135.629C87.2032 137.766 87.8482 140.743 86.5754 142.874Z" fill="white"/>
<g opacity="0.21">
<path opacity="0.21" d="M89.3623 98.0234L81.242 60.0886C81.0739 59.2864 80.6345 58.5667 79.9977 58.0506C79.361 57.5345 78.5659 57.2536 77.7463 57.2551H37.4733C36.928 57.2549 36.39 57.3799 35.9007 57.6205C35.4114 57.8612 34.984 58.211 34.6514 58.643C34.3215 59.0661 34.0929 59.5591 33.9831 60.0842C33.8733 60.6093 33.8852 61.1525 34.0179 61.6723L43.4339 100.056C43.5488 100.591 43.7964 101.088 44.1538 101.502C44.4774 101.911 44.8896 102.242 45.3594 102.47C45.8292 102.697 46.3444 102.815 46.8663 102.815H46.9585L85.9241 102.348C86.4492 102.342 86.9663 102.22 87.4383 101.99C87.9103 101.76 88.3255 101.428 88.6539 101.018C88.985 100.602 89.2201 100.117 89.3425 99.5999C89.465 99.0822 89.4717 98.5439 89.3623 98.0234ZM36.6901 61.01C36.6608 60.896 36.6585 60.7768 36.6835 60.6618C36.7085 60.5468 36.7601 60.4393 36.8341 60.3477C36.9062 60.2508 37 60.1722 37.108 60.1182C37.2161 60.0642 37.3353 60.0363 37.456 60.0367H77.7233C77.9046 60.0353 78.0809 60.0963 78.2225 60.2096C78.3641 60.3229 78.4624 60.4815 78.5007 60.6587L84.6975 89.5518C63.9995 69.5679 61.6613 92.4947 61.6613 92.4947C49.9877 86.4132 46.6071 93.0706 45.6339 97.4533L36.6901 61.01Z" fill="#D8D9DB"/>
<path opacity="0.21" d="M48.3234 74.7736C50.5637 74.0768 51.6348 71.0994 50.7076 68.1277C49.7804 65.156 47.2177 63.3016 44.9486 63.9984C42.6795 64.6953 41.6371 67.6727 42.5586 70.6502C43.48 73.6276 46.1119 75.4935 48.3234 74.7736Z" fill="#D8D9DB"/>
<path opacity="0.21" d="M58.206 74.0999H71.4115C73.0586 74.0999 74.6999 74.0999 76.347 74.0999H76.5773C77.0395 74.1128 77.4991 74.0264 77.925 73.8465C78.2208 73.7018 78.4725 73.4807 78.6543 73.2062C78.836 72.9316 78.9411 72.6135 78.9588 72.2847C78.9764 71.9559 78.9058 71.6283 78.7545 71.3359C78.6031 71.0435 78.3764 70.7968 78.0977 70.6214C77.7903 70.4754 77.5083 70.281 77.2627 70.0455C77.1072 69.7881 76.9981 69.5055 76.9402 69.2105C76.635 68.38 76.048 67.6829 75.2816 67.2408C74.7209 66.8626 74.0895 66.6018 73.4254 66.4741C72.7613 66.3465 72.0782 66.3546 71.4172 66.4979C70.7767 66.6636 70.1921 66.9977 69.7241 67.4654C69.3094 67.8686 69.2346 68.4042 68.9178 68.8591C68.7105 69.1528 68.578 69.0607 68.2958 68.8937C68.0137 68.7267 67.8582 68.6172 67.6278 68.4963C67.1732 68.255 66.7016 68.0472 66.2168 67.8743C65.2293 67.507 64.1759 67.35 63.1242 67.4136C61.2756 67.5576 59.4327 68.6633 58.7819 70.3968C58.2009 70.4061 57.6421 70.6222 57.2062 71.0064C56.7702 71.3907 56.4856 71.9178 56.4034 72.4931C56.3663 72.7144 56.3807 72.9412 56.4456 73.156C56.5106 73.3708 56.6242 73.5677 56.7778 73.7313C57.1937 74.0226 57.701 74.1536 58.206 74.0999Z" fill="#D8D9DB"/>
<path opacity="0.21" d="M152.919 73.2763L151.86 68.9225C151.148 65.9907 149.471 63.3831 147.099 61.5187C144.728 59.6544 141.798 58.6414 138.781 58.6426H124.205C122.546 58.6415 120.91 59.0227 119.422 59.7566C117.935 60.4904 116.637 61.5572 115.629 62.8741C114.62 64.1909 113.929 65.7224 113.609 67.3497C113.288 68.9769 113.347 70.6562 113.781 72.257L114.984 76.6914C115.754 79.5413 117.442 82.0579 119.787 83.8517C122.131 85.6454 125.002 86.6164 127.954 86.6143H142.42C144.055 86.6148 145.668 86.2443 147.138 85.5307C148.609 84.8171 149.898 83.7791 150.909 82.4949C151.92 81.2106 152.626 79.7136 152.974 78.1168C153.322 76.5199 153.304 74.8649 152.919 73.2763ZM136.909 74.3417L131.922 77.4171C131.731 77.5388 131.514 77.6144 131.289 77.6381C131.064 77.6618 130.836 77.6329 130.624 77.5536C130.412 77.4744 130.221 77.3469 130.066 77.1813C129.912 77.0157 129.798 76.8164 129.733 76.5993L127.89 70.4774C127.813 70.2063 127.815 69.919 127.894 69.6486C127.973 69.3782 128.128 69.1359 128.339 68.9496C128.551 68.7634 128.811 68.6409 129.089 68.5964C129.367 68.5518 129.653 68.587 129.912 68.6979L136.754 71.7386C136.996 71.851 137.204 72.027 137.355 72.248C137.506 72.469 137.594 72.7267 137.61 72.9937C137.626 73.2608 137.569 73.5271 137.445 73.7645C137.322 74.0018 137.137 74.2013 136.909 74.3417Z" fill="#D8D9DB"/>
<path opacity="0.21" d="M149.648 112.438H124.187C123.023 112.436 121.883 112.096 120.908 111.459C119.933 110.822 119.163 109.916 118.693 108.85C118.514 108.452 118.438 108.016 118.472 107.581C118.506 107.146 118.65 106.727 118.889 106.362C119.129 105.997 119.456 105.699 119.842 105.495C120.227 105.29 120.658 105.187 121.095 105.193H148.162C146.895 107.341 147.529 110.324 149.648 112.438Z" fill="#D8D9DB"/>
<path opacity="0.21" d="M166.108 109.823C166.108 110.516 165.833 111.18 165.344 111.67C164.855 112.16 164.191 112.436 163.499 112.438H149.648C147.529 110.324 146.884 107.341 148.157 105.193H160.383C161.547 105.192 162.686 105.53 163.662 106.165C164.637 106.8 165.407 107.705 165.877 108.769C166.025 109.101 166.103 109.46 166.108 109.823Z" fill="#23272B"/>
<path opacity="0.21" d="M159.738 112.438C159.67 112.579 159.587 112.712 159.49 112.835C157.671 115.317 153.731 115.548 150.673 113.319C150.309 113.052 149.967 112.757 149.648 112.438C147.529 110.324 146.884 107.341 148.157 105.193C148.229 105.053 148.313 104.92 148.41 104.796C150.213 102.296 154.169 102.083 157.21 104.3C157.579 104.572 157.927 104.87 158.252 105.193C160.354 107.312 160.999 110.272 159.738 112.438Z" fill="white"/>
<path opacity="0.21" d="M172.511 125.811C172.505 126.505 172.225 127.168 171.732 127.657C171.24 128.145 170.574 128.419 169.88 128.419H68.9753C70.2653 126.254 69.6203 123.294 67.501 121.175H166.787C167.953 121.174 169.094 121.514 170.07 122.153C171.045 122.791 171.814 123.7 172.281 124.768C172.429 125.096 172.507 125.451 172.511 125.811Z" fill="#23272B"/>
<path opacity="0.21" d="M68.9756 128.419H56.3978C55.235 128.419 54.0973 128.081 53.1222 127.447C52.1472 126.814 51.3766 125.911 50.9037 124.849C50.7589 124.514 50.6806 124.154 50.6733 123.789C50.6733 123.096 50.9488 122.431 51.4391 121.94C51.9295 121.45 52.5945 121.175 53.288 121.175H67.5013C69.6206 123.294 70.2656 126.254 68.9756 128.419Z" fill="#D8D9DB"/>
<path opacity="0.21" d="M68.9754 128.419C68.9163 128.563 68.8368 128.697 68.7393 128.817C66.9367 131.316 62.9802 131.535 59.9394 129.318C59.5704 129.044 59.222 128.744 58.897 128.419C56.795 126.306 56.15 123.34 57.4112 121.175C57.479 121.034 57.562 120.9 57.6589 120.777C59.4787 118.295 63.4179 118.065 66.476 120.299C66.8383 120.566 67.1809 120.858 67.5011 121.175C69.6204 123.294 70.2654 126.254 68.9754 128.419Z" fill="white"/>
<path opacity="0.21" d="M77.873 144.285H61.8744C60.7119 144.283 59.5748 143.945 58.6 143.312C57.6252 142.678 56.8544 141.776 56.3803 140.715C56.2356 140.386 56.1573 140.032 56.1499 139.672C56.1529 138.975 56.4312 138.308 56.9241 137.815C57.417 137.322 58.0847 137.044 58.7818 137.041H76.3872C75.126 139.206 75.771 142.172 77.873 144.285Z" fill="#23272B"/>
<path opacity="0.21" d="M177.994 141.688C177.993 142.03 177.925 142.369 177.793 142.685C177.661 143.001 177.468 143.288 177.225 143.529C176.982 143.77 176.694 143.961 176.377 144.091C176.061 144.221 175.721 144.287 175.379 144.285H77.8726C75.7706 142.172 75.1256 139.206 76.3868 137.041H172.263C173.429 137.04 174.57 137.38 175.546 138.018C176.522 138.657 177.29 139.566 177.757 140.634C177.907 140.966 177.987 141.324 177.994 141.688Z" fill="#D8D9DB"/>
<path opacity="0.21" d="M87.9682 144.285C87.8962 144.425 87.8114 144.558 87.7148 144.683C85.9123 147.182 81.9558 147.401 78.915 145.184C78.546 144.91 78.1976 144.61 77.8726 144.285C75.7706 142.172 75.1256 139.206 76.3868 137.04C76.4546 136.899 76.5376 136.766 76.6344 136.643C78.4543 134.161 82.3935 133.948 85.4515 136.165C85.8139 136.432 86.1565 136.724 86.4766 137.04C88.596 139.16 89.241 142.137 87.9682 144.285Z" fill="white"/>
</g>
</svg>
