<svg width="260" height="221" viewBox="0 0 260 221" fill="none" xmlns="http://www.w3.org/2000/svg">
<path d="M216.881 30.6189C158.616 42.2718 116.469 62.6147 110.546 66.0208M110.546 66.0208C105.449 68.9519 99.442 89.7773 95.6651 102.865C94.8099 105.829 91.5071 107.284 88.7323 105.937C68.0584 95.9004 37.8488 81.3888 34.394 77.6454C33.0635 76.2037 80.742 69.4337 110.546 66.0208Z" stroke="#23272B" stroke-width="2"/>
<path d="M240.978 112.464C228.686 139.916 191.645 156.9 191.645 156.9C76.7203 215.514 26.7925 214.118 6.9209 207.627C5.95306 206.553 5.29917 205.234 5.03113 203.815C4.7631 202.396 4.8913 200.932 5.40162 199.583C12.6489 180.224 42.6709 140.517 161.406 88.1425C161.406 88.1425 191.621 73.2808 219 76.4096C219.02 76.4092 219.04 76.4111 219.06 76.4153C220.895 76.7242 222.714 77.1244 224.51 77.6145C228.041 78.5856 231.321 80.3096 234.127 82.6677C236.932 85.0259 239.196 87.9622 240.761 91.2744C242.326 94.5866 243.156 98.1961 243.193 101.854C243.231 105.512 242.475 109.132 240.978 112.464Z" fill="#23272B"/>
<path d="M187.266 129.475C180.658 144.239 160.718 153.385 160.718 153.385C141.342 163.265 121.204 172.483 100.116 178.173C89.5281 181.031 73.7472 185.415 62.9498 181.302C61.6575 180.811 60.4859 179.749 60.2621 178.383C60.0943 177.337 60.4905 176.287 60.9173 175.318C67.1484 161.125 80.6939 151.662 93.213 143.404C109.477 132.681 127.041 124.946 144.459 116.376C144.459 116.376 160.717 108.379 175.484 110.069C176.474 110.234 177.456 110.451 178.424 110.719C186.331 112.923 190.601 122.023 187.266 129.475Z" fill="white"/>
<path d="M83.7448 123.972C103.696 112.575 128.336 100.275 158.753 87.1941C158.753 87.1941 195.497 69.56 224.53 77.6056C228.057 78.5786 231.335 80.3034 234.138 82.6613C236.94 85.0192 239.201 87.9543 240.765 91.2646C242.328 94.5749 243.157 98.182 243.195 101.838C243.233 105.493 242.479 109.111 240.984 112.442C228.692 139.893 191.651 156.877 191.651 156.877C175.965 164.883 161.491 171.761 148.146 177.665" stroke="black" stroke-width="0.8" stroke-miterlimit="10"/>
<path d="M114.501 191.447C52.2943 214.625 21.146 212.396 6.56993 207.524C5.55274 207.186 4.61423 206.644 3.81156 205.933C3.00888 205.221 2.35883 204.354 1.90096 203.384C1.44309 202.415 1.18698 201.363 1.14824 200.293C1.10949 199.222 1.28891 198.156 1.67557 197.159C6.18313 185.488 19.0831 166.454 54.9927 141.87" stroke="black" stroke-width="0.8" stroke-miterlimit="10"/>
</svg>
