<svg width="260" height="221" viewBox="0 0 260 221" fill="none" xmlns="http://www.w3.org/2000/svg">
<path fillRule="evenodd" clip-rule="evenodd" d="M129.197 141.052C122.441 141.052 116.964 146.529 116.964 153.285V156.385C116.964 163.141 122.441 168.618 129.197 168.618C135.953 168.618 141.43 163.141 141.43 156.385V153.285C141.43 146.529 135.953 141.052 129.197 141.052ZM122.704 154.012C122.704 150.426 125.611 147.518 129.198 147.518C132.784 147.518 135.692 150.426 135.692 154.012V155.658C135.692 159.245 132.784 162.152 129.198 162.152C125.611 162.152 122.704 159.245 122.704 155.658V154.012ZM126.319 154.47C126.319 152.881 127.608 151.592 129.198 151.592C130.787 151.592 132.076 152.881 132.076 154.47V155.2C132.076 156.789 130.787 158.078 129.198 158.078C127.608 158.078 126.319 156.789 126.319 155.2V154.47Z" fill="#2E2E2E"/>
<rect x="124.704" y="118.667" width="8.98638" height="23.6414" stroke="black" strokeWidth="0.8"/>
<rect x="0.4" y="-0.4" width="6.87896" height="7.85198" rx="3.43948" transform="matrix(1 0 0 -1 125.357 51.0511)" stroke="black" strokeWidth="0.8"/>
<rect x="0.4" y="-0.4" width="1.72263" height="21.9857" transform="matrix(1 0 0 -1 127.936 73.837)" stroke="black" strokeWidth="0.8"/>
<path d="M58.5504 87.2586H108.912V98.2244L108.043 97.9762C91.9452 93.3795 75.2902 91.0297 58.5504 90.9928V87.2586Z" stroke="black" strokeWidth="0.8"/>
<path d="M199.383 87.3658H149.943V98.1171L150.788 97.876C166.593 93.3627 182.946 91.0551 199.383 91.0183V87.3658Z" stroke="black" strokeWidth="0.8"/>
<path d="M180.04 175.491C180.04 171.917 182.937 169.019 186.511 169.019C190.085 169.019 192.983 171.917 192.983 175.491V177.401H180.04V175.491Z" stroke="black" strokeWidth="0.8"/>
<path d="M65.587 175.491C65.587 171.917 68.4845 169.019 72.0587 169.019C75.6328 169.019 78.5303 171.917 78.5303 175.491V177.401H65.587V175.491Z" stroke="black" strokeWidth="0.8"/>
<path d="M185.279 146.567C188.278 153.809 189.847 161.562 189.898 169.397H182.492C182.44 162.534 181.064 155.745 178.436 149.402C175.758 142.936 171.832 137.06 166.883 132.111C161.934 127.162 156.059 123.237 149.593 120.558C143.126 117.88 136.196 116.501 129.197 116.501C122.198 116.501 115.268 117.88 108.802 120.558C102.335 123.237 96.4602 127.162 91.5112 132.111C86.5622 137.06 82.6364 142.936 79.958 149.402C77.3307 155.745 75.9541 162.534 75.9026 169.397H68.496C68.5477 161.562 70.1159 153.809 73.1154 146.567C76.166 139.203 80.6373 132.511 86.274 126.874C91.9108 121.237 98.6026 116.766 105.967 113.716C113.332 110.665 121.226 109.095 129.197 109.095C137.169 109.095 145.062 110.665 152.427 113.716C159.792 116.766 166.483 121.237 172.12 126.874C177.757 132.511 182.228 139.203 185.279 146.567Z" stroke="black" strokeWidth="0.8"/>
<path d="M48.4283 69.2952C44.7885 71.0448 36.8313 73.5122 26.9476 73.9983C21.4499 74.2687 16.6364 74.1371 12.863 73.8212C10.3604 73.6117 8.32748 73.3221 6.85954 73.0188L38.8348 67.7962L48.4283 69.2952Z" stroke="black" strokeWidth="0.8"/>
<path d="M50.9365 69.294C54.5763 71.0436 62.5335 73.511 72.4171 73.9971C77.9148 74.2674 82.7283 74.1358 86.5017 73.82C89.0043 73.6105 91.0373 73.3209 92.5052 73.0176L60.5299 67.795L50.9365 69.294Z" stroke="black" strokeWidth="0.8"/>
<path d="M207.458 69.2944C203.818 71.0441 195.861 73.5115 185.977 73.9976C180.479 74.2679 175.666 74.1363 171.892 73.8205C169.39 73.611 167.357 73.3214 165.889 73.0181L197.864 67.7955L207.458 69.2944Z" stroke="black" strokeWidth="0.8"/>
<path d="M209.965 69.294C213.605 71.0436 221.562 73.511 231.446 73.9971C236.944 74.2674 241.757 74.1358 245.531 73.82C248.033 73.6105 250.066 73.3209 251.534 73.0176L219.559 67.795L209.965 69.294Z" stroke="black" strokeWidth="0.8"/>
<rect x="105.547" y="74.6367" width="47.3009" height="43.631" rx="16" fill="#2E2E2E"/>
<rect x="37.4497" y="70.9668" width="24.466" height="39.5533" rx="12.233" fill="#2E2E2E"/>
<rect x="196.479" y="70.9668" width="24.466" height="39.5533" rx="12.233" fill="#2E2E2E"/>
<rect width="20.8126" height="9.24405" rx="4.62203" transform="matrix(1 0 0 -1 118.791 127.511)" fill="#2E2E2E"/>
</svg>
