<svg width="260" height="221" viewBox="0 0 260 221" fill="none" xmlns="http://www.w3.org/2000/svg">
<rect x="34.8579" y="119.172" width="58.5162" height="25.1374" rx="12.5687" stroke="black" stroke-width="0.8"/>
<rect x="47.8413" y="144.309" width="32.5493" height="12.2796" fill="#2E2E2E" stroke="black" stroke-width="0.8"/>
<path d="M252.967 26.8344L176.036 120.4C175.675 120.839 175.522 121.419 175.611 122.013C175.7 122.607 176.024 123.165 176.511 123.566C176.998 123.966 177.609 124.176 178.208 124.149C178.808 124.121 179.348 123.859 179.709 123.42L256.64 29.8547C256.908 29.5266 257.063 29.1178 257.084 28.6797C257.106 28.2416 256.993 27.7939 256.761 27.393C256.528 26.9921 256.186 26.6558 255.778 26.4267C255.369 26.1975 254.913 26.0857 254.466 26.1052C254.168 26.1175 253.883 26.1882 253.625 26.3134C253.368 26.4386 253.144 26.6157 252.967 26.8344V26.8344Z" stroke="black" stroke-width="0.8" stroke-miterlimit="10"/>
<path d="M188.968 94.5393L164.885 123.83C164.772 123.967 165.362 124.673 166.524 125.792C167.687 126.911 169.327 128.351 171.084 129.796C172.841 131.24 174.571 132.571 175.894 133.496C177.216 134.42 178.023 134.862 178.136 134.725L202.219 105.434C202.3 105.329 201.991 104.908 201.332 104.223C200.673 103.539 199.693 102.621 198.515 101.587C197.337 100.553 196.014 99.4486 194.714 98.4123C193.413 97.3761 192.192 96.4547 191.205 95.7643C190.547 95.3042 190.011 94.9588 189.627 94.7485C189.243 94.5381 189.019 94.467 188.968 94.5393Z" fill="#2E2E2E" stroke="black" stroke-width="0.8" stroke-miterlimit="10"/>
<circle cx="251.67" cy="31.5102" r="6.32957" fill="#2E2E2E" stroke="black" stroke-width="0.8" stroke-miterlimit="10"/>
<path d="M204.833 189.225H6.8262C5.34298 189.225 2.30238 186.258 2.00573 174.39C1.73101 163.399 11.3996 157.686 17.3463 155.81C18.2355 155.53 19.1608 155.41 20.0919 155.363L88.9656 151.867C91.4426 151.741 93.8499 151.003 95.9718 149.719L131.785 128.044C133.489 127.013 135.382 126.331 137.353 126.039L215.052 114.526C224.613 113.109 232.998 120.972 232.199 130.604L229.36 164.821C229.089 168.088 227.755 171.177 225.562 173.614L215.983 184.259C213.139 187.42 209.086 189.225 204.833 189.225Z" fill="white" stroke="black" stroke-width="0.8"/>
<path fill-rule="evenodd" clip-rule="evenodd" d="M28.3833 195.819C38.0559 195.819 45.897 187.978 45.897 178.305C45.897 168.633 38.0559 160.792 28.3833 160.792C18.7108 160.792 10.8696 168.633 10.8696 178.305C10.8696 187.978 18.7108 195.819 28.3833 195.819ZM28.3835 183.868C31.456 183.868 33.9467 181.377 33.9467 178.305C33.9467 175.232 31.456 172.742 28.3835 172.742C25.311 172.742 22.8203 175.232 22.8203 178.305C22.8203 181.377 25.311 183.868 28.3835 183.868Z" fill="#2E2E2E"/>
<path d="M45.497 178.305C45.497 187.757 37.835 195.419 28.3833 195.419V196.219C38.2768 196.219 46.297 188.199 46.297 178.305H45.497ZM28.3833 161.192C37.835 161.192 45.497 168.854 45.497 178.305H46.297C46.297 168.412 38.2768 160.392 28.3833 160.392V161.192ZM11.2696 178.305C11.2696 168.854 18.9317 161.192 28.3833 161.192V160.392C18.4899 160.392 10.4696 168.412 10.4696 178.305H11.2696ZM28.3833 195.419C18.9317 195.419 11.2696 187.757 11.2696 178.305H10.4696C10.4696 188.199 18.4899 196.219 28.3833 196.219V195.419ZM33.5467 178.305C33.5467 181.157 31.2351 183.468 28.3835 183.468V184.268C31.6769 184.268 34.3467 181.598 34.3467 178.305H33.5467ZM28.3835 173.142C31.2351 173.142 33.5467 175.453 33.5467 178.305H34.3467C34.3467 175.012 31.6769 172.342 28.3835 172.342V173.142ZM23.2203 178.305C23.2203 175.453 25.532 173.142 28.3835 173.142V172.342C25.0901 172.342 22.4203 175.012 22.4203 178.305H23.2203ZM28.3835 183.468C25.532 183.468 23.2203 181.157 23.2203 178.305H22.4203C22.4203 181.598 25.0901 184.268 28.3835 184.268V183.468Z" fill="black"/>
<path fill-rule="evenodd" clip-rule="evenodd" d="M150.361 195.819C163.789 195.819 174.674 184.934 174.674 171.506C174.674 158.078 163.789 147.193 150.361 147.193C136.933 147.193 126.048 158.078 126.048 171.506C126.048 184.934 136.933 195.819 150.361 195.819ZM150.361 179.228C154.626 179.228 158.084 175.771 158.084 171.505C158.084 167.24 154.626 163.782 150.361 163.782C146.096 163.782 142.638 167.24 142.638 171.505C142.638 175.771 146.096 179.228 150.361 179.228Z" fill="#2E2E2E"/>
<path d="M174.274 171.506C174.274 184.713 163.568 195.419 150.361 195.419V196.219C164.01 196.219 175.074 185.155 175.074 171.506H174.274ZM150.361 147.593C163.568 147.593 174.274 158.299 174.274 171.506H175.074C175.074 157.858 164.01 146.793 150.361 146.793V147.593ZM126.448 171.506C126.448 158.299 137.154 147.593 150.361 147.593V146.793C136.712 146.793 125.648 157.858 125.648 171.506H126.448ZM150.361 195.419C137.154 195.419 126.448 184.713 126.448 171.506H125.648C125.648 185.155 136.712 196.219 150.361 196.219V195.419ZM157.684 171.505C157.684 175.55 154.405 178.828 150.361 178.828V179.628C154.847 179.628 158.484 175.992 158.484 171.505H157.684ZM150.361 164.182C154.405 164.182 157.684 167.461 157.684 171.505H158.484C158.484 167.019 154.847 163.382 150.361 163.382V164.182ZM143.038 171.505C143.038 167.461 146.316 164.182 150.361 164.182V163.382C145.875 163.382 142.238 167.019 142.238 171.505H143.038ZM150.361 178.828C146.316 178.828 143.038 175.55 143.038 171.505H142.238C142.238 175.992 145.875 179.628 150.361 179.628V178.828Z" fill="black"/>
</svg>
