<svg width="260" height="221" viewBox="0 0 260 221" fill="none" xmlns="http://www.w3.org/2000/svg">
<path d="M40.0435 96.789L40.0429 96.389L39.9868 96.3891L39.9331 96.4046L39.933 96.4046L39.9329 96.4047L39.9324 96.4048L39.9286 96.4059L39.9115 96.4106C39.8958 96.4149 39.8719 96.4214 39.8402 96.4296C39.7767 96.4462 39.6822 96.4699 39.5607 96.4977C39.3176 96.5535 38.9674 96.6257 38.5431 96.6906C37.6921 96.8207 36.5556 96.9191 35.3935 96.8011C34.2294 96.6829 33.0677 96.3505 32.1378 95.6432C31.2184 94.944 30.492 93.8533 30.2305 92.1464C29.6827 88.5697 29.5389 84.4946 30.6942 80.9494C31.8305 77.4624 34.2261 74.4737 38.8005 72.9632C38.8132 72.9682 38.8267 72.9734 38.8411 72.9791C38.9562 73.0239 39.1265 73.0897 39.3479 73.1734C39.7907 73.3409 40.4382 73.5805 41.2592 73.8699C42.9009 74.4486 45.2368 75.2266 48.0164 76.0245C53.5714 77.6193 60.9155 79.299 68.0362 79.6201C75.1171 79.9395 84.1061 80.1786 91.3228 80.3378C94.9316 80.4175 98.0981 80.4772 100.362 80.517C101.494 80.5368 102.401 80.5518 103.025 80.5617C103.336 80.5667 103.578 80.5704 103.741 80.5729L103.926 80.5757L103.973 80.5764L103.985 80.5765L103.985 80.5765L103.985 80.5765L103.986 80.5766L103.988 80.5766L103.989 80.5766L103.994 80.5769C103.998 80.577 104.002 80.5772 104.007 80.5775C104.014 80.5778 104.023 80.5784 104.034 80.5791C104.071 80.5814 104.126 80.5857 104.199 80.5937C104.343 80.6097 104.553 80.6401 104.807 80.6977C105.315 80.8131 105.99 81.0356 106.662 81.4625C107.982 82.3014 109.357 83.9686 109.357 87.3657C109.357 90.6343 109.137 92.9678 108.362 94.4606C107.983 95.1897 107.475 95.7094 106.79 96.0428C106.099 96.3799 105.197 96.541 104.01 96.495C101.546 96.3995 85.546 96.3732 70.1789 96.3706C62.4915 96.3692 54.9576 96.3739 49.3454 96.3788C46.5394 96.3813 44.2138 96.3838 42.5897 96.3858L40.7073 96.3881L40.2125 96.3888L40.0858 96.389L40.0537 96.389L40.0456 96.389L40.0436 96.389C40.0432 96.389 40.0429 96.389 40.0435 96.789Z" fill="#2E2E2E" stroke="black" stroke-width="0.8"/>
<path d="M53.4306 77.7501C49.8675 77.0465 46.3767 76.0164 43.0024 74.6729L53.4306 77.7501Z" fill="#2E2E2E"/>
<path d="M202.089 61.7468C206.209 61.7468 209.549 58.4064 209.549 54.286C209.549 50.1655 206.209 46.8252 202.089 46.8252C197.968 46.8252 194.628 50.1655 194.628 54.286C194.628 58.4064 197.968 61.7468 202.089 61.7468Z" fill="#353642"/>
<path d="M202.089 61.7468C206.209 61.7468 209.549 58.4064 209.549 54.286C209.549 50.1655 206.209 46.8252 202.089 46.8252C197.968 46.8252 194.628 50.1655 194.628 54.286C194.628 58.4064 197.968 61.7468 202.089 61.7468Z" stroke="black" stroke-width="0.8" stroke-miterlimit="10"/>
<path d="M202.089 61.7468C206.209 61.7468 209.549 58.4064 209.549 54.286C209.549 50.1655 206.209 46.8252 202.089 46.8252C197.968 46.8252 194.628 50.1655 194.628 54.286C194.628 58.4064 197.968 61.7468 202.089 61.7468Z" stroke="black" stroke-width="0.8" stroke-miterlimit="10"/>
<path d="M226.035 41.2031C232.321 44.4242 236.603 50.7859 236.603 58.1114C236.603 65.6652 232.067 72.1876 225.473 75.3072L226.035 41.2031Z" fill="#353642"/>
<path d="M133.885 122.016H108.987V133.336H140.796V128.932C140.796 127.098 140.068 125.34 138.772 124.043C137.476 122.747 135.718 122.017 133.885 122.016V122.016Z" stroke="black" stroke-width="0.8" stroke-miterlimit="10"/>
<path d="M8.17575 141.85H2V133.336C2.05918 132.74 2.12259 132.157 2.19867 131.578C4.80678 111.609 22.2688 96.9159 42.4066 96.9159H99.3072V123.546C99.3067 124.833 99.5596 126.107 100.052 127.296C100.543 128.485 101.265 129.565 102.174 130.475C103.084 131.385 104.164 132.106 105.352 132.599C106.541 133.091 107.815 133.345 109.101 133.345H141.777C149.591 133.365 157.277 131.366 164.091 127.541C178.861 119.18 194.26 102.348 194.628 65.0269V54.2859" stroke="black" stroke-width="0.8" stroke-miterlimit="10"/>
<path d="M226.035 37.8933C229.679 39.3978 232.795 41.9501 234.987 45.2269C237.179 48.5037 238.35 52.3576 238.35 56.3001C238.35 60.2426 237.179 64.0964 234.987 67.3732C232.795 70.6501 229.679 73.2024 226.035 74.7069" stroke="black" stroke-width="0.8" stroke-miterlimit="10"/>
<path d="M86.0553 145.962H6.91602C9.13605 137.15 14.2344 129.332 21.4026 123.747C28.5707 118.161 37.3984 115.129 46.4856 115.13H78.8439C80.7565 115.13 82.5907 115.89 83.9431 117.242C85.2955 118.595 86.0553 120.429 86.0553 122.342V145.962Z" stroke="black" stroke-width="0.8" stroke-miterlimit="10"/>
<path d="M6.91602 145.963H86.0553H178.848" stroke="black" stroke-width="0.8" stroke-miterlimit="10"/>
<path d="M218.426 115.131C209.336 115.129 200.505 118.162 193.335 123.75C186.166 129.338 181.067 137.16 178.848 145.976H258C256.236 138.996 252.66 132.606 247.634 127.452C242.607 122.298 236.308 118.564 229.374 116.627C226.207 115.721 223.424 113.804 221.447 111.169C219.471 108.534 218.41 105.325 218.426 102.031V82.5863C218.426 81.3052 218.935 80.0765 219.84 79.1699C220.745 78.2633 221.972 77.7528 223.254 77.7505C223.616 77.7511 223.975 77.6802 224.31 77.542C224.644 77.4037 224.949 77.2008 225.205 76.9448C225.461 76.6888 225.665 76.3848 225.804 76.0502C225.942 75.7155 226.014 75.3568 226.014 74.9945V38.0076C226.014 37.2755 225.723 36.5734 225.205 36.0558C224.688 35.5381 223.986 35.2473 223.254 35.2473H200.292C198.55 37.2014 195.009 43.6555 194.786 53.8397" stroke="black" stroke-width="0.8" stroke-miterlimit="10"/>
<path d="M75.7457 145.963C77.2001 150.561 77.5503 155.437 76.768 160.196C75.9856 164.955 74.0927 169.462 71.2428 173.353C68.3928 177.243 64.6661 180.407 60.3648 182.588C56.0634 184.769 51.3086 185.906 46.4859 185.906C41.6632 185.906 36.9084 184.769 32.6071 182.588C28.3058 180.407 24.579 177.243 21.7291 173.353C18.8791 169.462 16.9862 164.955 16.2039 160.196C15.4215 155.437 15.7717 150.561 17.2261 145.963" stroke="black" stroke-width="0.8" stroke-miterlimit="10"/>
<path d="M247.682 145.963C249.137 150.562 249.489 155.439 248.707 160.199C247.925 164.959 246.032 169.468 243.182 173.36C240.332 177.252 236.604 180.417 232.302 182.599C228 184.781 223.244 185.918 218.42 185.918C213.596 185.918 208.84 184.781 204.538 182.599C200.235 180.417 196.508 177.252 193.658 173.36C190.807 169.468 188.915 164.959 188.133 160.199C187.351 155.439 187.702 150.562 189.158 145.963" stroke="black" stroke-width="0.8" stroke-miterlimit="10"/>
<path d="M218.418 160.394C221.266 160.394 223.575 158.085 223.575 155.237C223.575 152.389 221.266 150.08 218.418 150.08C215.57 150.08 213.261 152.389 213.261 155.237C213.261 158.085 215.57 160.394 218.418 160.394Z" fill="black"/>
<path d="M46.4856 160.394C49.3338 160.394 51.6427 158.085 51.6427 155.237C51.6427 152.389 49.3338 150.08 46.4856 150.08C43.6375 150.08 41.3286 152.389 41.3286 155.237C41.3286 158.085 43.6375 160.394 46.4856 160.394Z" fill="black"/>
<path d="M99.3071 96.9116H106.62" stroke="black" stroke-width="0.8" stroke-miterlimit="10"/>
<path d="M184.766 145.789C184.736 145.903 184.724 145.963 184.724 145.963H178.848C178.871 145.907 178.888 145.849 178.899 145.789H184.766Z" fill="#D8D9DB"/>
</svg>
